%TF.GenerationSoftware,Altium Limited,Altium Designer,20.1.12 (249)*%
G04 Layer_Physical_Order=1*
G04 Layer_Color=255*
%FSLAX26Y26*%
%MOIN*%
%TF.SameCoordinates,7F4B2EE0-29BC-4F04-AEBD-3A4CCF5859FD*%
%TF.FilePolarity,Positive*%
%TF.FileFunction,Copper,L1,Top,Signal*%
%TF.Part,Single*%
G01*
G75*
%TA.AperFunction,SMDPad,CuDef*%
%ADD10R,0.023622X0.061024*%
%ADD11R,0.061024X0.023622*%
%ADD12R,0.011811X0.047244*%
%ADD13R,0.047244X0.011811*%
%ADD14O,0.011811X0.047244*%
%ADD15R,0.061024X0.039370*%
%TA.AperFunction,Conductor*%
%ADD16C,0.011811*%
%TA.AperFunction,ComponentPad*%
%ADD17R,0.062992X0.062992*%
%ADD18C,0.062992*%
%ADD19C,0.066929*%
%ADD20R,0.066929X0.066929*%
%ADD21R,0.062992X0.062992*%
%ADD22C,0.051181*%
%ADD23R,0.051181X0.051181*%
%ADD24C,0.433071*%
%ADD25C,0.047244*%
%ADD26O,0.062992X0.078740*%
%ADD27R,0.062992X0.078740*%
%TA.AperFunction,SMDPad,CuDef*%
%ADD28C,0.039370*%
%TA.AperFunction,ViaPad*%
%ADD29C,0.023622*%
D10*
X4135000Y3395000D02*
D03*
X4030669D02*
D03*
D11*
X4065000Y3097835D02*
D03*
Y3202165D02*
D03*
D12*
X4131890Y4219645D02*
D03*
X4151575D02*
D03*
X4171260D02*
D03*
X4190945D02*
D03*
X4210630D02*
D03*
X4230315D02*
D03*
X4250000D02*
D03*
X4269685D02*
D03*
X4289370D02*
D03*
X4309055D02*
D03*
X4328740D02*
D03*
X4348425D02*
D03*
Y3885000D02*
D03*
X4328740D02*
D03*
X4309055D02*
D03*
X4289370D02*
D03*
X4269685D02*
D03*
X4250000D02*
D03*
X4230315D02*
D03*
X4210630D02*
D03*
X4190945D02*
D03*
X4171260D02*
D03*
X4151575D02*
D03*
D13*
X4407480Y4160590D02*
D03*
Y4140905D02*
D03*
Y4121220D02*
D03*
Y4101535D02*
D03*
Y4081850D02*
D03*
Y4062165D02*
D03*
Y4042480D02*
D03*
Y4022795D02*
D03*
Y4003110D02*
D03*
Y3983425D02*
D03*
Y3963740D02*
D03*
Y3944055D02*
D03*
X4072835D02*
D03*
Y3963740D02*
D03*
Y3983425D02*
D03*
Y4003110D02*
D03*
Y4022795D02*
D03*
Y4042480D02*
D03*
Y4062165D02*
D03*
Y4081850D02*
D03*
Y4101535D02*
D03*
Y4121220D02*
D03*
Y4140905D02*
D03*
Y4160590D02*
D03*
D14*
X4131890Y3885000D02*
D03*
D15*
X4215000Y4497401D02*
D03*
Y4422598D02*
D03*
D16*
X3777559Y3984252D02*
X3777559D01*
X3777559D02*
X3778543Y3983268D01*
X3790354D01*
X3795276Y3978347D02*
X3937008D01*
X3790354Y3983268D02*
X3795276Y3978347D01*
X4046289Y3963740D02*
X4072835D01*
X4011971Y3929422D02*
X4046289Y3963740D01*
X4011971Y3914530D02*
Y3929422D01*
X3975394Y3877953D02*
X4011971Y3914530D01*
X3993110Y4064034D02*
X4004180D01*
X4021996Y4081850D01*
X3917323Y4392717D02*
X4023622D01*
X3610000Y4755000D02*
X3748937D01*
X4035433Y4468504D01*
X4137795Y4375984D02*
Y4428150D01*
X4121063Y4444882D02*
X4137795Y4428150D01*
X4131890Y4193099D02*
Y4219645D01*
Y4230315D01*
X4164399Y4160590D02*
X4407480D01*
X4131890Y4193099D02*
X4164399Y4160590D01*
X4171260Y4219645D02*
Y4267474D01*
X4178150Y4274363D01*
Y4277559D01*
X4271654Y4310039D02*
X4298228Y4336614D01*
X4271654Y4221614D02*
Y4310039D01*
X4328740Y4317913D02*
X4368110Y4357283D01*
X4328740Y4219645D02*
Y4317913D01*
X4250000Y4219645D02*
Y4326716D01*
X4266999Y4343715D01*
X4269685Y4219645D02*
X4271654Y4221614D01*
X4267869Y4343715D02*
X4488189Y4564034D01*
X4266999Y4343715D02*
X4267869D01*
X4488189Y4564034D02*
Y4744095D01*
X4258228Y4459646D02*
X4350394D01*
X4218090Y4419508D02*
X4258228Y4459646D01*
X4215000Y4376535D02*
Y4422598D01*
Y4376535D02*
X4235236Y4356299D01*
X4228346Y4263389D02*
Y4320239D01*
X4172677Y4375909D02*
X4228346Y4320239D01*
X4172677Y4375909D02*
Y4465905D01*
X4171463Y4329278D02*
X4210630Y4290111D01*
X4171463Y4329278D02*
Y4343716D01*
X4137795Y4342520D02*
X4151575Y4328740D01*
Y4219645D02*
Y4328740D01*
X4137795Y4342520D02*
Y4375984D01*
X4210630Y4219645D02*
Y4290111D01*
X4018107Y4022696D02*
X4037891Y4042480D01*
X4024606Y4055246D02*
X4031525Y4062165D01*
X3848221Y4022696D02*
X4018107D01*
X3888823Y4077913D02*
X3926323Y4040412D01*
X4024606Y4054250D02*
Y4055246D01*
X3836468Y4034449D02*
X3848221Y4022696D01*
X3801181Y4077913D02*
X3888823D01*
X3663386Y4034449D02*
X3836468D01*
X4021996Y4081850D02*
X4072835D01*
X4010769Y4040412D02*
X4024606Y4054250D01*
X4037891Y4042480D02*
X4072835D01*
X4031525Y4062165D02*
X4072835D01*
X3926323Y4040412D02*
X4010769D01*
X3394842Y4121220D02*
X4072835D01*
X3666339Y4091535D02*
X3676338Y4101535D01*
X4072835D01*
X3285000Y4011378D02*
X3394842Y4121220D01*
X4101349Y4178307D02*
X4328740Y3950916D01*
Y3885000D02*
Y3950916D01*
X4407480Y4160590D02*
X4560937D01*
X4094488Y4274764D02*
X4131890Y4237362D01*
X4094488Y4274764D02*
Y4744095D01*
X3897638Y3859252D02*
X3966535Y3928150D01*
X3977362D01*
X3775079Y3780000D02*
X3809055Y3813976D01*
X3816929D01*
X3485000Y3780000D02*
X3775079D01*
X3638658Y4405512D02*
X3765748D01*
X3575666Y4468504D02*
X3638658Y4405512D01*
X3451772Y4468504D02*
X3575666D01*
X3723425Y4494095D02*
X3772638Y4444882D01*
X3859223Y4496034D02*
X3908173Y4544984D01*
Y4552858D01*
X3910433Y4555118D01*
X3855315Y4466535D02*
X3881890D01*
X3805118Y4516732D02*
X3855315Y4466535D01*
X3881890Y4428150D02*
Y4466535D01*
Y4428150D02*
X3917323Y4392717D01*
X4230315Y4219645D02*
Y4261420D01*
X4228346Y4263389D02*
X4230315Y4261420D01*
X4010827Y4230315D02*
X4131890D01*
X3869915Y4337820D02*
Y4381011D01*
Y4337820D02*
X4029429Y4178307D01*
X4131890Y4230315D02*
Y4237362D01*
X4029429Y4178307D02*
X4101349D01*
X3710401Y4540525D02*
X3869915Y4381011D01*
X3663229Y4540525D02*
X3710401D01*
X3524843Y4232283D02*
X3799213D01*
X4054134Y3814961D02*
X4055197Y3816024D01*
X4131890D01*
X3786417Y4612205D02*
X3795916Y4602706D01*
X4215000Y4422598D02*
X4218090Y4419508D01*
X4467904Y4003110D02*
X4469046Y4001969D01*
X4481271Y4062165D02*
X4491912Y4072806D01*
X4495108D01*
X4407480Y4062165D02*
X4481271D01*
X4469046Y4001969D02*
X4511753D01*
X4552165Y4042381D01*
X4407480Y4003110D02*
X4467904D01*
X4552165Y4042381D02*
Y4096457D01*
X4495977Y4022795D02*
X4498773Y4025591D01*
X4407480Y4022795D02*
X4495977D01*
X4498773Y4025591D02*
X4501968D01*
X4323249Y3728819D02*
X4338583Y3744153D01*
Y3789224D01*
X4309055Y3818752D02*
X4338583Y3789224D01*
X3239202Y3728819D02*
X4323249D01*
X4176260Y3771653D02*
X4256832D01*
X4291338Y3806160D01*
X4309055Y3818752D02*
Y3885000D01*
X3689497Y4001447D02*
X3937008Y3753937D01*
X4314961D01*
X4131890Y3816024D02*
X4176260Y3771653D01*
X3228307Y3739714D02*
X3239202Y3728819D01*
X4131890Y3816024D02*
Y3885000D01*
X4072835Y3944055D02*
X4090552D01*
X4131890Y3902717D01*
Y3885000D02*
Y3902717D01*
X4407480Y4140905D02*
X4708504D01*
X4732283Y4117126D01*
X4194488Y4730245D02*
X4215000Y4709733D01*
Y4497401D02*
Y4709733D01*
X4194488Y4730245D02*
Y4744095D01*
X4172677Y4465905D02*
X4204173Y4497401D01*
X4577513Y4177165D02*
X4580709D01*
X4560937Y4160590D02*
X4577513Y4177165D01*
X3525591Y4494095D02*
X3723425D01*
X3466693Y4737062D02*
X3663229Y4540525D01*
X3466693Y4772938D02*
X3500207Y4806452D01*
X3780512Y4295276D02*
X3782480Y4297244D01*
X3786417D01*
X3578740Y4295276D02*
X3780512D01*
X3385000Y4372126D02*
X3524843Y4232283D01*
X3490401Y4165354D02*
X3495165Y4160590D01*
X4072835D01*
X3210000Y4680055D02*
Y4755000D01*
Y4680055D02*
X3292323Y4597732D01*
Y4527559D02*
Y4597732D01*
X3228307Y3739714D02*
Y4636693D01*
X3110000Y4755000D02*
X3228307Y4636693D01*
X3492062Y4898307D02*
X3527938D01*
X3455927Y4862173D02*
X3492062Y4898307D01*
X3691550Y4612205D02*
X3786417D01*
X3500207Y4845207D02*
X3510000Y4855000D01*
X3527938Y4898307D02*
X3566693Y4859552D01*
X3466693Y4737062D02*
Y4772938D01*
X3410000Y4755000D02*
X3455927Y4800927D01*
X3566693Y4737062D02*
Y4859552D01*
X3455927Y4800927D02*
Y4862173D01*
X3566693Y4737062D02*
X3691550Y4612205D01*
X3500207Y4806452D02*
Y4845207D01*
X4318956Y3442913D02*
X4453769D01*
X4616142Y3470472D02*
X4754921Y3331693D01*
X4181102Y3523622D02*
X4241561D01*
X4280259Y3484925D01*
X4453769Y3442913D02*
X4481328Y3470472D01*
X4280259Y3481610D02*
Y3484925D01*
Y3481610D02*
X4318956Y3442913D01*
X4481328Y3470472D02*
X4616142D01*
X4328740Y3466535D02*
X4371063D01*
X4500000Y3595472D01*
X4546260Y3506890D02*
Y3648564D01*
X4682145Y3784449D01*
X4561024Y3396653D02*
X4563976D01*
X4539662Y3418016D02*
X4561024Y3396653D01*
X4537402Y3446850D02*
X4539662Y3444590D01*
Y3418016D02*
Y3444590D01*
X4760827Y3760827D02*
X4986221Y3535433D01*
X4921772Y3451772D02*
X4977362D01*
X4670000Y3200000D02*
X4921772Y3451772D01*
X3487205Y4165354D02*
X3490401D01*
X3385000Y3780000D02*
Y3986378D01*
X3425197Y4026575D01*
X3285000Y3780000D02*
Y4011378D01*
X3085000Y3772126D02*
X3162244Y3694882D01*
X4050197D01*
X3085000Y3772126D02*
Y3780000D01*
X4250000Y3858454D02*
Y3885000D01*
X4214380Y3822835D02*
X4250000Y3858454D01*
X4202756Y3822835D02*
X4214380D01*
X4407480Y3983425D02*
X4619252D01*
X4620079Y3984252D01*
X4670275Y3960630D02*
X4702756Y3928150D01*
X4407480Y3963740D02*
X4546181D01*
X4549291Y3960630D01*
X4670275D01*
X4612263Y3922244D02*
X4615128D01*
X4622047Y3931843D02*
Y3935039D01*
X4615128Y3924925D02*
X4622047Y3931843D01*
X4615128Y3922244D02*
Y3924925D01*
X4702756Y3928150D02*
X4977362D01*
X4314034Y3624016D02*
X4612263Y3922244D01*
X4279149Y3555723D02*
X4370079Y3646653D01*
X4321850Y3216535D02*
Y3312008D01*
X4287402Y3346457D02*
X4321850Y3312008D01*
X4682145Y3784449D02*
X4807913D01*
X4815866Y3776496D01*
X4691929Y3760827D02*
X4760827D01*
X4815866Y3776496D02*
X5112025D01*
X5092559Y4224685D02*
X5224409Y4092835D01*
Y3746063D02*
Y4092835D01*
Y3746063D02*
X5226378Y3744095D01*
X5219794Y3342272D02*
X5273307Y3288759D01*
Y3070918D02*
Y3288759D01*
X5077756Y3579724D02*
X5116084D01*
X5230000Y3027611D02*
X5273307Y3070918D01*
X5116084Y3579724D02*
X5219794Y3476014D01*
X5230000Y2880000D02*
Y3027611D01*
X5219794Y3342272D02*
Y3476014D01*
X5156496Y3504908D02*
Y3505905D01*
X5030000Y3378412D02*
X5156496Y3504908D01*
X4269685Y3817913D02*
Y3885000D01*
X4267717Y3815945D02*
X4269685Y3817913D01*
X4291338Y3806160D02*
Y3883032D01*
X4289370Y3885000D02*
X4291338Y3883032D01*
X3877953Y3582677D02*
X4209646D01*
X4214567Y3587598D01*
X4072835Y3963740D02*
X4217491D01*
X4269685Y3911546D01*
Y3885000D02*
Y3911546D01*
X5180591Y3224409D02*
X5230000Y3175000D01*
X5096457Y3224409D02*
X5180591D01*
X5504921Y3591535D02*
X5576772D01*
X5489173Y3607284D02*
X5504921Y3591535D01*
X5664370Y3451772D02*
X5738189Y3377953D01*
X5664370Y3451772D02*
Y3499016D01*
X5712598Y3456693D02*
X6032008D01*
X6090000Y3514685D01*
X5498031Y3237008D02*
Y3320808D01*
Y3237008D02*
X5526772Y3208268D01*
X5307828Y3511012D02*
X5498031Y3320808D01*
X5224028Y3511012D02*
X5307828D01*
X5003819Y3731220D02*
X5224028Y3511012D01*
X5412402Y3259843D02*
X5423228D01*
X5474409Y3311024D01*
X5526772Y3208268D02*
X5992616D01*
X5376097Y3223538D02*
X5412402Y3259843D01*
X5330000Y2880000D02*
X5376097Y2926097D01*
Y3223538D01*
X5248032Y3874016D02*
X5472441Y4098425D01*
Y4612441D01*
X5519724Y4410699D02*
X5610276Y4501250D01*
X5519724Y4185000D02*
X5885827Y3818898D01*
X5519724Y4185000D02*
Y4410699D01*
X5393522Y3495000D02*
X5555000D01*
X5112025Y3776496D02*
X5393522Y3495000D01*
X5490158Y3691929D02*
X5492417Y3694189D01*
X5517024D01*
X5517717Y3694882D01*
X5538386D01*
X5744095Y3900591D01*
X5472441Y4612441D02*
X5565000Y4705000D01*
X5725394Y3841535D02*
X5846457Y3720472D01*
X5721457Y3841535D02*
X5725394D01*
X5289370Y3306102D02*
X5378937D01*
X5391732Y3293307D01*
X3755668Y3555723D02*
X4279149D01*
X3654945Y3455000D02*
X3755668Y3555723D01*
X4256890Y3451772D02*
Y3483239D01*
X3715157Y3490157D02*
X4249971D01*
X4256890Y3483239D01*
X3480000Y3255000D02*
X3715157Y3490157D01*
X3480000Y3455000D02*
X3654945D01*
X4256890Y3451772D02*
X4412402Y3296260D01*
X6108754Y3559961D02*
X6135276Y3533439D01*
X5975000Y3265000D02*
X6135276Y3425276D01*
X6025605Y3527417D02*
X6058148Y3559961D01*
X6135276Y3425276D02*
Y3533439D01*
X6058148Y3559961D02*
X6108754D01*
X5975000Y3527417D02*
X6025605D01*
X5965984Y3536433D02*
X5975000Y3527417D01*
X5030000Y3250000D02*
Y3378412D01*
X4826693Y3239134D02*
X5082559Y3495000D01*
X4826693Y3195448D02*
Y3239134D01*
X4665000Y2875000D02*
Y3033755D01*
X4826693Y3195448D01*
X4083701Y3097835D02*
X4261575Y2919961D01*
Y2845000D02*
Y2919961D01*
X4461299Y3060000D02*
X4503956D01*
X4564550Y3120595D01*
X4590595D01*
X4670000Y3200000D01*
X4571850Y3094488D02*
X4664488D01*
X4770000Y3200000D01*
X5555000Y3495000D02*
X5596433Y3536433D01*
X5965984D01*
X3385000Y4372126D02*
Y4380000D01*
X4204173Y4497401D02*
X4215000D01*
X5610276Y4501250D02*
Y4723754D01*
X5583754Y4750276D02*
X5610276Y4723754D01*
X5167881Y4460905D02*
X5457251Y4750276D01*
X5013819Y4460905D02*
X5167881D01*
X5457251Y4750276D02*
X5583754D01*
X5992616Y3208268D02*
X6385923Y2814961D01*
X6633858D01*
X3385000Y4380000D02*
Y4583074D01*
X3366693Y4601381D02*
X3385000Y4583074D01*
X3366693Y4601381D02*
Y4811693D01*
X3410000Y4855000D01*
X4135000Y3395000D02*
X4200748D01*
X4211260Y3405512D01*
X4212598D01*
X3946767Y3395000D02*
X4030669D01*
X3942515Y3399252D02*
X3946767Y3395000D01*
X3802480Y3399252D02*
X3942515D01*
X3765079Y3361850D02*
X3802480Y3399252D01*
X4030669Y3376299D02*
Y3395000D01*
X3976378Y3322008D02*
X4030669Y3376299D01*
X3976378Y3031496D02*
Y3322008D01*
X4065000Y3202165D02*
Y3257913D01*
X4074803Y3267716D01*
X4065000Y3097835D02*
X4083701D01*
X4819567Y3149567D02*
X4870000Y3200000D01*
X4819567Y3004480D02*
X4865000Y2959047D01*
X4819567Y3004480D02*
Y3149567D01*
X4865000Y2875000D02*
Y2959047D01*
X4861780Y3024519D02*
Y3053220D01*
Y3024519D02*
X5030000Y2856299D01*
X4855000Y3060000D02*
X4861780Y3053220D01*
X5965984Y3536433D02*
Y4405630D01*
X6011260Y4450905D01*
X6304449Y3956693D02*
X6562441Y4214685D01*
X6259842Y3956693D02*
X6304449D01*
X6090000Y3766687D02*
Y3995000D01*
Y3766687D02*
X6368701Y3487986D01*
Y3265000D02*
Y3487986D01*
X6090000Y3995000D02*
X6141732Y4046732D01*
Y4410633D01*
X6090000Y4462365D02*
Y4695000D01*
Y4462365D02*
X6141732Y4410633D01*
X3480000Y3555000D02*
X3493850D01*
X3521527Y3582677D01*
X3877953D01*
X3267716Y3149606D02*
Y3248032D01*
Y3006038D02*
Y3149606D01*
X3362323Y3055000D02*
X3480000D01*
X3267716Y3149606D02*
X3362323Y3055000D01*
X3267716Y3248032D02*
Y3342716D01*
X3374685Y3355000D02*
X3480000D01*
X3267716Y3248032D02*
X3374685Y3355000D01*
X3267716Y3342716D02*
X3480000Y3555000D01*
X3470207Y2764793D02*
X3480000Y2755000D01*
X3470207Y2764793D02*
Y2803548D01*
X3267716Y3006038D02*
X3470207Y2803548D01*
D17*
X5230000Y2880000D02*
D03*
X4665000Y2875000D02*
D03*
X5430000Y3175000D02*
D03*
X4670000Y3200000D02*
D03*
X4261575Y2845000D02*
D03*
X3610000Y4855000D02*
D03*
D18*
X5330000Y2880000D02*
D03*
X5430000D02*
D03*
X3480000Y3555000D02*
D03*
Y3455000D02*
D03*
Y3355000D02*
D03*
Y3255000D02*
D03*
Y3155000D02*
D03*
Y3055000D02*
D03*
Y2955000D02*
D03*
Y2855000D02*
D03*
Y2755000D02*
D03*
X4865000Y2875000D02*
D03*
X4765000D02*
D03*
X5230000Y3175000D02*
D03*
X5330000D02*
D03*
X4870000Y3200000D02*
D03*
X4770000D02*
D03*
X4360000Y2845000D02*
D03*
X4194488Y4744095D02*
D03*
X4094488D02*
D03*
X4588189D02*
D03*
X4488189D02*
D03*
X3610000Y4755000D02*
D03*
X3510000Y4855000D02*
D03*
X3110000Y4755000D02*
D03*
X3210000D02*
D03*
X3310000D02*
D03*
X3410000D02*
D03*
X3510000D02*
D03*
X3110000Y4855000D02*
D03*
X3210000D02*
D03*
X3310000D02*
D03*
X3410000D02*
D03*
D19*
X5555000Y3495000D02*
D03*
X5082559Y3975315D02*
D03*
X5555000D02*
D03*
X5082559Y3495000D02*
D03*
X6562441Y4214685D02*
D03*
X6090000Y4695000D02*
D03*
X6562441D02*
D03*
X6090000Y4214685D02*
D03*
X6562441Y3514685D02*
D03*
X6090000Y3995000D02*
D03*
X6562441D02*
D03*
X6090000Y3514685D02*
D03*
X5565000Y4224685D02*
D03*
X5092559Y4705000D02*
D03*
X5565000D02*
D03*
X5092559Y4224685D02*
D03*
D20*
X5003819Y3731220D02*
D03*
X6011260Y4450905D02*
D03*
Y3750905D02*
D03*
X5013819Y4460905D02*
D03*
D21*
X3480000Y2655000D02*
D03*
D22*
X3765079Y3263425D02*
D03*
Y3165000D02*
D03*
X3895000D02*
D03*
Y3263425D02*
D03*
D23*
X3765079Y3361850D02*
D03*
X3895000D02*
D03*
D24*
X6633858Y2814961D02*
D03*
X6023622Y2854331D02*
D03*
D25*
X5595000Y2850000D02*
D03*
Y3243701D02*
D03*
X4855000Y3060000D02*
D03*
X4461299D02*
D03*
X4888701Y2665000D02*
D03*
X4495000D02*
D03*
X5428701Y2660000D02*
D03*
X5035000D02*
D03*
X6368701Y3265000D02*
D03*
X5975000D02*
D03*
X5030000Y2856299D02*
D03*
Y3250000D02*
D03*
D26*
X3085000Y3780000D02*
D03*
X3185000D02*
D03*
X3285000D02*
D03*
X3385000D02*
D03*
X3485000D02*
D03*
X3085000Y4380000D02*
D03*
X3185000D02*
D03*
X3285000D02*
D03*
X3385000D02*
D03*
D27*
X3485000D02*
D03*
D28*
X2952756Y4921260D02*
D03*
Y2559055D02*
D03*
X6889764Y4921260D02*
D03*
D29*
X3777559Y3984252D02*
D03*
X3937008Y3978347D02*
D03*
X3975394Y3877953D02*
D03*
X3993110Y4064034D02*
D03*
X4023622Y4392717D02*
D03*
X4035433Y4468504D02*
D03*
X4121063Y4444882D02*
D03*
X4178150Y4277559D02*
D03*
X4298228Y4336614D02*
D03*
X4368110Y4357283D02*
D03*
X4350394Y4459646D02*
D03*
X4235236Y4356299D02*
D03*
X4171463Y4343716D02*
D03*
X4137795Y4375984D02*
D03*
X3977362Y3928150D02*
D03*
X3897638Y3859252D02*
D03*
X3816929Y3813976D02*
D03*
X3451772Y4468504D02*
D03*
X3765748Y4405512D02*
D03*
X3772638Y4444882D02*
D03*
X3805118Y4516732D02*
D03*
X3859223Y4496034D02*
D03*
X4010827Y4230315D02*
D03*
X3801181Y4077913D02*
D03*
X3799213Y4232283D02*
D03*
X4054134Y3814961D02*
D03*
X3795916Y4602706D02*
D03*
X4552165Y4096457D02*
D03*
X4495108Y4072806D02*
D03*
X4501968Y4025591D02*
D03*
X4314961Y3753937D02*
D03*
X3689497Y4001447D02*
D03*
X4732283Y4117126D02*
D03*
X4580709Y4177165D02*
D03*
X3910433Y4555118D02*
D03*
X3525591Y4494095D02*
D03*
X3786417Y4297244D02*
D03*
X3578740Y4295276D02*
D03*
X3292323Y4527559D02*
D03*
X4328740Y3466535D02*
D03*
X4500000Y3595472D02*
D03*
X4563976Y3396653D02*
D03*
X4537402Y3446850D02*
D03*
X4986221Y3535433D02*
D03*
X4977362Y3451772D02*
D03*
X3666339Y4091535D02*
D03*
X3487205Y4165354D02*
D03*
X3425197Y4026575D02*
D03*
X4050197Y3694882D02*
D03*
X4202756Y3822835D02*
D03*
X4620079Y3984252D02*
D03*
X4622047Y3935039D02*
D03*
X4314034Y3624016D02*
D03*
X4370079Y3646653D02*
D03*
X4287402Y3346457D02*
D03*
X4321850Y3216535D02*
D03*
X4546260Y3506890D02*
D03*
X4181102Y3523622D02*
D03*
X4754921Y3331693D02*
D03*
X4691929Y3760827D02*
D03*
X5226378Y3744095D02*
D03*
X5077756Y3579724D02*
D03*
X5156496Y3505905D02*
D03*
X4267717Y3815945D02*
D03*
X4214567Y3587598D02*
D03*
X3663386Y4034449D02*
D03*
X5096457Y3224409D02*
D03*
X5489173Y3607284D02*
D03*
X5576772Y3591535D02*
D03*
X5664370Y3499016D02*
D03*
X5712598Y3456693D02*
D03*
X5738189Y3377953D02*
D03*
X5474409Y3311024D02*
D03*
X5490158Y3691929D02*
D03*
X5248032Y3874016D02*
D03*
X5744095Y3900591D02*
D03*
X5391732Y3293307D02*
D03*
X5721457Y3841535D02*
D03*
X5289370Y3306102D02*
D03*
X4412402Y3296260D02*
D03*
X4977362Y3928150D02*
D03*
X4571850Y3094488D02*
D03*
X5846457Y3720472D02*
D03*
X5885827Y3818898D02*
D03*
X4212598Y3405512D02*
D03*
X3976378Y3031496D02*
D03*
X4074803Y3267716D02*
D03*
X6259842Y3956693D02*
D03*
X3877953Y3582677D02*
D03*
%TF.MD5,87a7c09518c74dc8ed36dd1e93fba238*%
M02*
