%TF.GenerationSoftware,Altium Limited,Altium Designer,20.1.12 (249)*%
G04 Layer_Color=32896*
%FSLAX26Y26*%
%MOIN*%
%TF.SameCoordinates,7F4B2EE0-29BC-4F04-AEBD-3A4CCF5859FD*%
%TF.FilePolarity,Positive*%
%TF.FileFunction,Legend,Bot*%
%TF.Part,Single*%
G01*
G75*
%TA.AperFunction,NonConductor*%
%ADD38C,0.007874*%
%ADD39C,0.003937*%
%ADD40C,0.010000*%
D38*
X4473386Y3468012D02*
G03*
X4473386Y3455216I0J-6398D01*
G01*
X4245000Y3282716D02*
G03*
X4245000Y3264016I0J-9350D01*
G01*
X4756201Y3405000D02*
G03*
X4731201Y3405000I-12500J0D01*
G01*
X4371024Y3436417D02*
X4473386D01*
X4371024D02*
Y3486811D01*
X4473386D01*
Y3468012D02*
Y3486811D01*
Y3436417D02*
Y3455216D01*
X4060630Y3134016D02*
X4244370D01*
X4060630D02*
Y3408386D01*
X4245000D01*
Y3282716D02*
Y3408386D01*
X4244370Y3134016D02*
Y3264016D01*
X4700787Y3405000D02*
Y3605000D01*
X4786614D01*
Y3405000D02*
Y3605000D01*
X4756201Y3405000D02*
X4786614D01*
X4700787D02*
X4731201D01*
D39*
X5816693Y3673465D02*
X5903307D01*
Y3531732D02*
Y3673465D01*
X5816693Y3531732D02*
Y3673465D01*
Y3531732D02*
X5903307D01*
X5651693Y3536732D02*
X5738307D01*
X5651693D02*
Y3678465D01*
X5738307Y3536732D02*
Y3678465D01*
X5651693D02*
X5738307D01*
X3866732Y3621693D02*
Y3708307D01*
X4008465D01*
X3866732Y3621693D02*
X4008465D01*
Y3708307D01*
X3606535Y4511693D02*
Y4598307D01*
X3748268D01*
X3606535Y4511693D02*
X3748268D01*
Y4598307D01*
X4491693Y3136732D02*
X4578307D01*
X4491693D02*
Y3278465D01*
X4578307Y3136732D02*
Y3278465D01*
X4491693D02*
X4578307D01*
X4539134Y4391693D02*
Y4478307D01*
X4680866D01*
X4539134Y4391693D02*
X4680866D01*
Y4478307D01*
X5351693Y3720866D02*
X5438307D01*
Y3579134D02*
Y3720866D01*
X5351693Y3579134D02*
Y3720866D01*
Y3579134D02*
X5438307D01*
X3609134Y4306693D02*
Y4393307D01*
X3750866D01*
X3609134Y4306693D02*
X3750866D01*
Y4393307D01*
X6239134Y4416693D02*
Y4503307D01*
X6380866D01*
X6239134Y4416693D02*
X6380866D01*
Y4503307D01*
X4094134Y2901693D02*
Y2988307D01*
X4235866D01*
X4094134Y2901693D02*
X4235866D01*
Y2988307D01*
X3889134Y2906693D02*
Y2993307D01*
X4030866D01*
X3889134Y2906693D02*
X4030866D01*
Y2993307D01*
X4106535Y3616693D02*
Y3703307D01*
X4248268D01*
X4106535Y3616693D02*
X4248268D01*
Y3703307D01*
X3231693Y2809134D02*
X3318307D01*
X3231693D02*
Y2950866D01*
X3318307Y2809134D02*
Y2950866D01*
X3231693D02*
X3318307D01*
X3721693Y4888465D02*
X3808307D01*
Y4746732D02*
Y4888465D01*
X3721693Y4746732D02*
Y4888465D01*
Y4746732D02*
X3808307D01*
X6393465Y4676693D02*
Y4763307D01*
X6251732Y4676693D02*
X6393465D01*
X6251732Y4763307D02*
X6393465D01*
X6251732Y4676693D02*
Y4763307D01*
X3816693Y4040866D02*
X3903307D01*
Y3899134D02*
Y4040866D01*
X3816693Y3899134D02*
Y4040866D01*
Y3899134D02*
X3903307D01*
X4771693Y4215866D02*
X4858307D01*
Y4074134D02*
Y4215866D01*
X4771693Y4074134D02*
Y4215866D01*
Y4074134D02*
X4858307D01*
X5219134Y3346693D02*
Y3433307D01*
X5360866D01*
X5219134Y3346693D02*
X5360866D01*
Y3433307D01*
X6236535Y4161693D02*
Y4248307D01*
X6378268D01*
X6236535Y4161693D02*
X6378268D01*
Y4248307D01*
X3826693Y4196535D02*
X3913307D01*
X3826693D02*
Y4338268D01*
X3913307Y4196535D02*
Y4338268D01*
X3826693D02*
X3913307D01*
X4746535Y3756693D02*
Y3843307D01*
X4888268D01*
X4746535Y3756693D02*
X4888268D01*
Y3843307D01*
X4996535Y2981693D02*
Y3068307D01*
X5138268D01*
X4996535Y2981693D02*
X5138268D01*
Y3068307D01*
X3398268Y4096693D02*
Y4183307D01*
X3256535Y4096693D02*
X3398268D01*
X3256535Y4183307D02*
X3398268D01*
X3256535Y4096693D02*
Y4183307D01*
D40*
X4477000Y3670981D02*
Y3620997D01*
X4467003Y3611000D01*
X4447010D01*
X4437013Y3620997D01*
Y3670981D01*
X4387029Y3611000D02*
Y3670981D01*
X4417020Y3640990D01*
X4377033D01*
X4713000Y3698981D02*
Y3648997D01*
X4703003Y3639000D01*
X4683010D01*
X4673013Y3648997D01*
Y3698981D01*
X4653019Y3688984D02*
X4643023Y3698981D01*
X4623029D01*
X4613032Y3688984D01*
Y3678987D01*
X4623029Y3668990D01*
X4633026D01*
X4623029D01*
X4613032Y3658994D01*
Y3648997D01*
X4623029Y3639000D01*
X4643023D01*
X4653019Y3648997D01*
X4167000Y3501981D02*
Y3451997D01*
X4157003Y3442000D01*
X4137010D01*
X4127013Y3451997D01*
Y3501981D01*
X4067032Y3442000D02*
X4107019D01*
X4067032Y3481987D01*
Y3491984D01*
X4077029Y3501981D01*
X4097023D01*
X4107019Y3491984D01*
X6397402Y4535000D02*
Y4594981D01*
X6367411D01*
X6357414Y4584984D01*
Y4564990D01*
X6367411Y4554993D01*
X6397402D01*
X6377408D02*
X6357414Y4535000D01*
X6337421D02*
X6317427D01*
X6327424D01*
Y4594981D01*
X6337421Y4584984D01*
X6287437D02*
X6277440Y4594981D01*
X6257447D01*
X6247450Y4584984D01*
Y4544997D01*
X6257447Y4535000D01*
X6277440D01*
X6287437Y4544997D01*
Y4584984D01*
X6345000Y4280000D02*
Y4339981D01*
X6315010D01*
X6305013Y4329984D01*
Y4309990D01*
X6315010Y4299993D01*
X6345000D01*
X6325007D02*
X6305013Y4280000D01*
X6285019Y4289997D02*
X6275023Y4280000D01*
X6255029D01*
X6245032Y4289997D01*
Y4329984D01*
X6255029Y4339981D01*
X6275023D01*
X6285019Y4329984D01*
Y4319987D01*
X6275023Y4309990D01*
X6245032D01*
X6360000Y4795000D02*
Y4854981D01*
X6330010D01*
X6320013Y4844984D01*
Y4824990D01*
X6330010Y4814993D01*
X6360000D01*
X6340007D02*
X6320013Y4795000D01*
X6300019Y4844984D02*
X6290023Y4854981D01*
X6270029D01*
X6260032Y4844984D01*
Y4834987D01*
X6270029Y4824990D01*
X6260032Y4814993D01*
Y4804997D01*
X6270029Y4795000D01*
X6290023D01*
X6300019Y4804997D01*
Y4814993D01*
X6290023Y4824990D01*
X6300019Y4834987D01*
Y4844984D01*
X6290023Y4824990D02*
X6270029D01*
X5327599Y3465000D02*
Y3524981D01*
X5297608D01*
X5287612Y3514984D01*
Y3494990D01*
X5297608Y3484994D01*
X5327599D01*
X5307605D02*
X5287612Y3465000D01*
X5267618Y3524981D02*
X5227631D01*
Y3514984D01*
X5267618Y3474997D01*
Y3465000D01*
X4600000Y3310000D02*
Y3369981D01*
X4570010D01*
X4560013Y3359984D01*
Y3339990D01*
X4570010Y3329994D01*
X4600000D01*
X4580007D02*
X4560013Y3310000D01*
X4500032Y3369981D02*
X4520026Y3359984D01*
X4540019Y3339990D01*
Y3319997D01*
X4530023Y3310000D01*
X4510029D01*
X4500032Y3319997D01*
Y3329994D01*
X4510029Y3339990D01*
X4540019D01*
X5104803Y3100000D02*
Y3159981D01*
X5074813D01*
X5064816Y3149984D01*
Y3129990D01*
X5074813Y3119994D01*
X5104803D01*
X5084810D02*
X5064816Y3100000D01*
X5004836Y3159981D02*
X5044823D01*
Y3129990D01*
X5024829Y3139987D01*
X5014832D01*
X5004836Y3129990D01*
Y3109997D01*
X5014832Y3100000D01*
X5034826D01*
X5044823Y3109997D01*
X5760000Y3710599D02*
Y3770579D01*
X5730010D01*
X5720013Y3760582D01*
Y3740589D01*
X5730010Y3730592D01*
X5760000D01*
X5740007D02*
X5720013Y3710599D01*
X5670029D02*
Y3770579D01*
X5700019Y3740589D01*
X5660032D01*
X5925000Y3705000D02*
Y3764981D01*
X5895010D01*
X5885013Y3754984D01*
Y3734990D01*
X5895010Y3724994D01*
X5925000D01*
X5905007D02*
X5885013Y3705000D01*
X5865019Y3754984D02*
X5855023Y3764981D01*
X5835029D01*
X5825032Y3754984D01*
Y3744987D01*
X5835029Y3734990D01*
X5845026D01*
X5835029D01*
X5825032Y3724994D01*
Y3714997D01*
X5835029Y3705000D01*
X5855023D01*
X5865019Y3714997D01*
X5460000Y3753000D02*
Y3812981D01*
X5430010D01*
X5420013Y3802984D01*
Y3782990D01*
X5430010Y3772994D01*
X5460000D01*
X5440007D02*
X5420013Y3753000D01*
X5360032D02*
X5400019D01*
X5360032Y3792987D01*
Y3802984D01*
X5370029Y3812981D01*
X5390023D01*
X5400019Y3802984D01*
X3350013Y3032984D02*
X3360010Y3042981D01*
X3380003D01*
X3390000Y3032984D01*
Y2992997D01*
X3380003Y2983000D01*
X3360010D01*
X3350013Y2992997D01*
X3330019Y2983000D02*
X3310026D01*
X3320023D01*
Y3042981D01*
X3330019Y3032984D01*
X3250045Y2983000D02*
Y3042981D01*
X3280036Y3012990D01*
X3240048D01*
X4224414Y3784984D02*
X4234411Y3794981D01*
X4254405D01*
X4264402Y3784984D01*
Y3744997D01*
X4254405Y3735000D01*
X4234411D01*
X4224414Y3744997D01*
X4204421Y3735000D02*
X4184427D01*
X4194424D01*
Y3794981D01*
X4204421Y3784984D01*
X4154437D02*
X4144440Y3794981D01*
X4124447D01*
X4114450Y3784984D01*
Y3774987D01*
X4124447Y3764990D01*
X4134444D01*
X4124447D01*
X4114450Y3754994D01*
Y3744997D01*
X4124447Y3735000D01*
X4144440D01*
X4154437Y3744997D01*
X3985013Y3789984D02*
X3995010Y3799981D01*
X4015003D01*
X4025000Y3789984D01*
Y3749997D01*
X4015003Y3740000D01*
X3995010D01*
X3985013Y3749997D01*
X3965019Y3740000D02*
X3945026D01*
X3955023D01*
Y3799981D01*
X3965019Y3789984D01*
X3875049Y3740000D02*
X3915036D01*
X3875049Y3779987D01*
Y3789984D01*
X3885045Y3799981D01*
X3905039D01*
X3915036Y3789984D01*
X3987013Y3074984D02*
X3997010Y3084981D01*
X4017003D01*
X4027000Y3074984D01*
Y3034997D01*
X4017003Y3025000D01*
X3997010D01*
X3987013Y3034997D01*
X3967019Y3025000D02*
X3947026D01*
X3957023D01*
Y3084981D01*
X3967019Y3074984D01*
X3917036Y3025000D02*
X3897042D01*
X3907039D01*
Y3084981D01*
X3917036Y3074984D01*
X4212414Y3069984D02*
X4222411Y3079981D01*
X4242405D01*
X4252402Y3069984D01*
Y3029997D01*
X4242405Y3020000D01*
X4222411D01*
X4212414Y3029997D01*
X4192421Y3020000D02*
X4172427D01*
X4182424D01*
Y3079981D01*
X4192421Y3069984D01*
X4142437D02*
X4132440Y3079981D01*
X4112447D01*
X4102450Y3069984D01*
Y3029997D01*
X4112447Y3020000D01*
X4132440D01*
X4142437Y3029997D01*
Y3069984D01*
X4840013Y4297984D02*
X4850010Y4307981D01*
X4870003D01*
X4880000Y4297984D01*
Y4257997D01*
X4870003Y4248000D01*
X4850010D01*
X4840013Y4257997D01*
X4820019D02*
X4810023Y4248000D01*
X4790029D01*
X4780032Y4257997D01*
Y4297984D01*
X4790029Y4307981D01*
X4810023D01*
X4820019Y4297984D01*
Y4287987D01*
X4810023Y4277990D01*
X4780032D01*
X3790013Y4969984D02*
X3800010Y4979981D01*
X3820003D01*
X3830000Y4969984D01*
Y4929997D01*
X3820003Y4920000D01*
X3800010D01*
X3790013Y4929997D01*
X3770019Y4969984D02*
X3760023Y4979981D01*
X3740029D01*
X3730032Y4969984D01*
Y4959987D01*
X3740029Y4949990D01*
X3730032Y4939993D01*
Y4929997D01*
X3740029Y4920000D01*
X3760023D01*
X3770019Y4929997D01*
Y4939993D01*
X3760023Y4949990D01*
X3770019Y4959987D01*
Y4969984D01*
X3760023Y4949990D02*
X3740029D01*
X3895013Y4419984D02*
X3905010Y4429981D01*
X3925003D01*
X3935000Y4419984D01*
Y4379997D01*
X3925003Y4370000D01*
X3905010D01*
X3895013Y4379997D01*
X3875019Y4429981D02*
X3835032D01*
Y4419984D01*
X3875019Y4379997D01*
Y4370000D01*
X3885013Y4122984D02*
X3895010Y4132981D01*
X3915003D01*
X3925000Y4122984D01*
Y4082997D01*
X3915003Y4073000D01*
X3895010D01*
X3885013Y4082997D01*
X3825032Y4132981D02*
X3845026Y4122984D01*
X3865019Y4102990D01*
Y4082997D01*
X3855023Y4073000D01*
X3835029D01*
X3825032Y4082997D01*
Y4092994D01*
X3835029Y4102990D01*
X3865019D01*
X4814414Y3924984D02*
X4824411Y3934981D01*
X4844405D01*
X4854402Y3924984D01*
Y3884997D01*
X4844405Y3875000D01*
X4824411D01*
X4814414Y3884997D01*
X4754434Y3934981D02*
X4794421D01*
Y3904990D01*
X4774427Y3914987D01*
X4764431D01*
X4754434Y3904990D01*
Y3884997D01*
X4764431Y3875000D01*
X4784424D01*
X4794421Y3884997D01*
X4607013Y4559984D02*
X4617010Y4569981D01*
X4637003D01*
X4647000Y4559984D01*
Y4519997D01*
X4637003Y4510000D01*
X4617010D01*
X4607013Y4519997D01*
X4557029Y4510000D02*
Y4569981D01*
X4587019Y4539990D01*
X4547032D01*
X3677414Y4474984D02*
X3687411Y4484981D01*
X3707405D01*
X3717401Y4474984D01*
Y4434997D01*
X3707405Y4425000D01*
X3687411D01*
X3677414Y4434997D01*
X3657421Y4474984D02*
X3647424Y4484981D01*
X3627431D01*
X3617434Y4474984D01*
Y4464987D01*
X3627431Y4454990D01*
X3637427D01*
X3627431D01*
X3617434Y4444993D01*
Y4434997D01*
X3627431Y4425000D01*
X3647424D01*
X3657421Y4434997D01*
X3675013Y4680181D02*
X3685010Y4690177D01*
X3705003D01*
X3715000Y4680181D01*
Y4640194D01*
X3705003Y4630197D01*
X3685010D01*
X3675013Y4640194D01*
X3615032Y4630197D02*
X3655019D01*
X3615032Y4670184D01*
Y4680181D01*
X3625029Y4690177D01*
X3645023D01*
X3655019Y4680181D01*
X3304414Y4264984D02*
X3314411Y4274981D01*
X3334405D01*
X3344401Y4264984D01*
Y4224997D01*
X3334405Y4215000D01*
X3314411D01*
X3304414Y4224997D01*
X3284421Y4215000D02*
X3264427D01*
X3274424D01*
Y4274981D01*
X3284421Y4264984D01*
%TF.MD5,72f959b52fcfc348d7697881b2f22a83*%
M02*
