%TF.GenerationSoftware,Altium Limited,Altium Designer,20.1.12 (249)*%
G04 Layer_Color=16711935*
%FSLAX26Y26*%
%MOIN*%
%TF.SameCoordinates,7F4B2EE0-29BC-4F04-AEBD-3A4CCF5859FD*%
%TF.FilePolarity,Negative*%
%TF.FileFunction,Soldermask,Bot*%
%TF.Part,Single*%
G01*
G75*
%TA.AperFunction,SMDPad,CuDef*%
%ADD41R,0.069024X0.047370*%
%ADD42R,0.047370X0.069024*%
%ADD43O,0.025716X0.065087*%
%ADD44R,0.025716X0.065087*%
%TA.AperFunction,ConnectorPad*%
%ADD45R,0.069024X0.047370*%
%TA.AperFunction,SMDPad,CuDef*%
%ADD46R,0.027685X0.069024*%
%ADD47O,0.027685X0.069024*%
%ADD48O,0.069024X0.031622*%
%ADD49R,0.069024X0.031622*%
%TA.AperFunction,ComponentPad*%
%ADD50R,0.070992X0.070992*%
%ADD51C,0.070992*%
%ADD52C,0.074929*%
%ADD53R,0.074929X0.074929*%
%ADD54R,0.070992X0.070992*%
%ADD55C,0.059181*%
%ADD56R,0.059181X0.059181*%
%ADD57C,0.441071*%
%ADD58C,0.055244*%
%ADD59O,0.070992X0.086740*%
%ADD60R,0.070992X0.086740*%
%TA.AperFunction,SMDPad,CuDef*%
%ADD61C,0.078740*%
%TA.AperFunction,ViaPad*%
%ADD62C,0.031622*%
D41*
X5860000Y3565197D02*
D03*
Y3640000D02*
D03*
X5695000Y3645000D02*
D03*
Y3570197D02*
D03*
X4535000Y3245000D02*
D03*
Y3170197D02*
D03*
X5395000Y3612599D02*
D03*
Y3687402D02*
D03*
X3275000Y2917401D02*
D03*
Y2842598D02*
D03*
X3860000Y3932599D02*
D03*
Y4007402D02*
D03*
X4815000Y4107599D02*
D03*
Y4182402D02*
D03*
X3870000Y4304803D02*
D03*
Y4230000D02*
D03*
D42*
X3975000Y3665000D02*
D03*
X3900197D02*
D03*
X3714803Y4555000D02*
D03*
X3640000D02*
D03*
X4647401Y4435000D02*
D03*
X4572598D02*
D03*
X3717401Y4350000D02*
D03*
X3642598D02*
D03*
X6347401Y4460000D02*
D03*
X6272598D02*
D03*
X4202401Y2945000D02*
D03*
X4127598D02*
D03*
X3997401Y2950000D02*
D03*
X3922598D02*
D03*
X4214803Y3660000D02*
D03*
X4140000D02*
D03*
X6285197Y4720000D02*
D03*
X6360000D02*
D03*
X5327401Y3390000D02*
D03*
X5252598D02*
D03*
X6344803Y4205000D02*
D03*
X6270000D02*
D03*
X4854803Y3800000D02*
D03*
X4780000D02*
D03*
X5104803Y3025000D02*
D03*
X5030000D02*
D03*
X3290000Y4140000D02*
D03*
X3364803D02*
D03*
D43*
X4383819Y3548228D02*
D03*
X4409409D02*
D03*
X4435000D02*
D03*
X4460591D02*
D03*
X4383819Y3375000D02*
D03*
X4409409D02*
D03*
X4435000D02*
D03*
D44*
X4460591D02*
D03*
D45*
X3765000Y4780197D02*
D03*
Y4855000D02*
D03*
D46*
X4190000Y3209016D02*
D03*
D47*
X4152598D02*
D03*
X4115197D02*
D03*
X4190000Y3335000D02*
D03*
X4115197D02*
D03*
D48*
X4850000Y3580000D02*
D03*
Y3530000D02*
D03*
Y3480000D02*
D03*
Y3430000D02*
D03*
X4637402Y3580000D02*
D03*
Y3530000D02*
D03*
Y3480000D02*
D03*
D49*
Y3430000D02*
D03*
D50*
X5230000Y2880000D02*
D03*
X4665000Y2875000D02*
D03*
X5430000Y3175000D02*
D03*
X4670000Y3200000D02*
D03*
X4261575Y2845000D02*
D03*
X3610000Y4855000D02*
D03*
D51*
X5330000Y2880000D02*
D03*
X5430000D02*
D03*
X3480000Y3555000D02*
D03*
Y3455000D02*
D03*
Y3355000D02*
D03*
Y3255000D02*
D03*
Y3155000D02*
D03*
Y3055000D02*
D03*
Y2955000D02*
D03*
Y2855000D02*
D03*
Y2755000D02*
D03*
X4865000Y2875000D02*
D03*
X4765000D02*
D03*
X5230000Y3175000D02*
D03*
X5330000D02*
D03*
X4870000Y3200000D02*
D03*
X4770000D02*
D03*
X4360000Y2845000D02*
D03*
X4194488Y4744095D02*
D03*
X4094488D02*
D03*
X4588189D02*
D03*
X4488189D02*
D03*
X3610000Y4755000D02*
D03*
X3510000Y4855000D02*
D03*
X3110000Y4755000D02*
D03*
X3210000D02*
D03*
X3310000D02*
D03*
X3410000D02*
D03*
X3510000D02*
D03*
X3110000Y4855000D02*
D03*
X3210000D02*
D03*
X3310000D02*
D03*
X3410000D02*
D03*
D52*
X5555000Y3495000D02*
D03*
X5082559Y3975315D02*
D03*
X5555000D02*
D03*
X5082559Y3495000D02*
D03*
X6562441Y4214685D02*
D03*
X6090000Y4695000D02*
D03*
X6562441D02*
D03*
X6090000Y4214685D02*
D03*
X6562441Y3514685D02*
D03*
X6090000Y3995000D02*
D03*
X6562441D02*
D03*
X6090000Y3514685D02*
D03*
X5565000Y4224685D02*
D03*
X5092559Y4705000D02*
D03*
X5565000D02*
D03*
X5092559Y4224685D02*
D03*
D53*
X5003819Y3731220D02*
D03*
X6011260Y4450905D02*
D03*
Y3750905D02*
D03*
X5013819Y4460905D02*
D03*
D54*
X3480000Y2655000D02*
D03*
D55*
X3765079Y3263425D02*
D03*
Y3165000D02*
D03*
X3895000D02*
D03*
Y3263425D02*
D03*
D56*
X3765079Y3361850D02*
D03*
X3895000D02*
D03*
D57*
X6633858Y2814961D02*
D03*
X6023622Y2854331D02*
D03*
D58*
X5595000Y2850000D02*
D03*
Y3243701D02*
D03*
X4855000Y3060000D02*
D03*
X4461299D02*
D03*
X4888701Y2665000D02*
D03*
X4495000D02*
D03*
X5428701Y2660000D02*
D03*
X5035000D02*
D03*
X6368701Y3265000D02*
D03*
X5975000D02*
D03*
X5030000Y2856299D02*
D03*
Y3250000D02*
D03*
D59*
X3085000Y3780000D02*
D03*
X3185000D02*
D03*
X3285000D02*
D03*
X3385000D02*
D03*
X3485000D02*
D03*
X3085000Y4380000D02*
D03*
X3185000D02*
D03*
X3285000D02*
D03*
X3385000D02*
D03*
D60*
X3485000D02*
D03*
D61*
X2952756Y4921260D02*
D03*
Y2559055D02*
D03*
X6889764Y4921260D02*
D03*
D62*
X3777559Y3984252D02*
D03*
X3937008Y3978347D02*
D03*
X3975394Y3877953D02*
D03*
X3993110Y4064034D02*
D03*
X4023622Y4392717D02*
D03*
X4035433Y4468504D02*
D03*
X4121063Y4444882D02*
D03*
X4178150Y4277559D02*
D03*
X4298228Y4336614D02*
D03*
X4368110Y4357283D02*
D03*
X4350394Y4459646D02*
D03*
X4235236Y4356299D02*
D03*
X4171463Y4343716D02*
D03*
X4137795Y4375984D02*
D03*
X3977362Y3928150D02*
D03*
X3897638Y3859252D02*
D03*
X3816929Y3813976D02*
D03*
X3451772Y4468504D02*
D03*
X3765748Y4405512D02*
D03*
X3772638Y4444882D02*
D03*
X3805118Y4516732D02*
D03*
X3859223Y4496034D02*
D03*
X4010827Y4230315D02*
D03*
X3801181Y4077913D02*
D03*
X3799213Y4232283D02*
D03*
X4054134Y3814961D02*
D03*
X3795916Y4602706D02*
D03*
X4552165Y4096457D02*
D03*
X4495108Y4072806D02*
D03*
X4501968Y4025591D02*
D03*
X4314961Y3753937D02*
D03*
X3689497Y4001447D02*
D03*
X4732283Y4117126D02*
D03*
X4580709Y4177165D02*
D03*
X3910433Y4555118D02*
D03*
X3525591Y4494095D02*
D03*
X3786417Y4297244D02*
D03*
X3578740Y4295276D02*
D03*
X3292323Y4527559D02*
D03*
X4328740Y3466535D02*
D03*
X4500000Y3595472D02*
D03*
X4563976Y3396653D02*
D03*
X4537402Y3446850D02*
D03*
X4986221Y3535433D02*
D03*
X4977362Y3451772D02*
D03*
X3666339Y4091535D02*
D03*
X3487205Y4165354D02*
D03*
X3425197Y4026575D02*
D03*
X4050197Y3694882D02*
D03*
X4202756Y3822835D02*
D03*
X4620079Y3984252D02*
D03*
X4622047Y3935039D02*
D03*
X4314034Y3624016D02*
D03*
X4370079Y3646653D02*
D03*
X4287402Y3346457D02*
D03*
X4321850Y3216535D02*
D03*
X4546260Y3506890D02*
D03*
X4181102Y3523622D02*
D03*
X4754921Y3331693D02*
D03*
X4691929Y3760827D02*
D03*
X5226378Y3744095D02*
D03*
X5077756Y3579724D02*
D03*
X5156496Y3505905D02*
D03*
X4267717Y3815945D02*
D03*
X4214567Y3587598D02*
D03*
X3663386Y4034449D02*
D03*
X5096457Y3224409D02*
D03*
X5489173Y3607284D02*
D03*
X5576772Y3591535D02*
D03*
X5664370Y3499016D02*
D03*
X5712598Y3456693D02*
D03*
X5738189Y3377953D02*
D03*
X5474409Y3311024D02*
D03*
X5490158Y3691929D02*
D03*
X5248032Y3874016D02*
D03*
X5744095Y3900591D02*
D03*
X5391732Y3293307D02*
D03*
X5721457Y3841535D02*
D03*
X5289370Y3306102D02*
D03*
X4412402Y3296260D02*
D03*
X4977362Y3928150D02*
D03*
X4571850Y3094488D02*
D03*
X5846457Y3720472D02*
D03*
X5885827Y3818898D02*
D03*
X4212598Y3405512D02*
D03*
X3976378Y3031496D02*
D03*
X4074803Y3267716D02*
D03*
X6259842Y3956693D02*
D03*
X3877953Y3582677D02*
D03*
%TF.MD5,2910f06c8ca1b7d1a2c56a2be29f51a7*%
M02*
