%TF.GenerationSoftware,Altium Limited,Altium Designer,18.1.7 (191)*%
G04 Layer_Color=0*
%FSLAX26Y26*%
%MOIN*%
%TF.FileFunction,Plated,1,2,PTH,Drill*%
%TF.Part,Single*%
G01*
G75*
%TA.AperFunction,ComponentDrill*%
%ADD90C,0.062992*%
%ADD91C,0.030000*%
%ADD92C,0.030000*%
%TA.AperFunction,OtherDrill,Free Pad (1771.653mil,1555.118mil)*%
%ADD93C,0.196850*%
%TA.AperFunction,ComponentDrill*%
%ADD94C,0.042000*%
%TA.AperFunction,OtherDrill,Free Pad (98.425mil,98.425mil)*%
%ADD95C,0.118110*%
%TA.AperFunction,OtherDrill,Free Pad (98.425mil,1417.323mil)*%
%ADD96C,0.118110*%
%TA.AperFunction,OtherDrill,Free Pad (3425.197mil,1417.323mil)*%
%ADD97C,0.118110*%
%TA.AperFunction,OtherDrill,Free Pad (3425.197mil,98.425mil)*%
%ADD98C,0.118110*%
%TA.AperFunction,ViaDrill,NotFilled*%
%ADD99C,0.011811*%
%ADD100C,0.027559*%
D90*
X3035590Y427087D02*
D03*
X3268661D02*
D03*
X2842874Y117835D02*
D03*
X3228346Y120079D02*
D03*
D91*
X2986496Y118937D02*
D03*
X3086496D02*
D03*
X566685Y1323000D02*
D03*
X466685D02*
D03*
X366685D02*
D03*
Y1223000D02*
D03*
X466685D02*
D03*
X566685D02*
D03*
D92*
X93685Y386000D02*
D03*
Y486000D02*
D03*
Y586000D02*
D03*
Y686000D02*
D03*
Y1086000D02*
D03*
Y986000D02*
D03*
Y886000D02*
D03*
Y786000D02*
D03*
D93*
X1771653Y1555118D02*
D03*
D94*
X2758504Y427087D02*
D03*
X2858504D02*
D03*
D95*
X98425Y98425D02*
D03*
D96*
Y1417323D02*
D03*
D97*
X3425197D02*
D03*
D98*
Y98425D02*
D03*
D99*
X2549882Y817323D02*
D03*
X2262638Y888189D02*
D03*
X2502559Y911457D02*
D03*
X2467913Y805787D02*
D03*
X2291220Y966142D02*
D03*
X2385039Y779575D02*
D03*
Y987385D02*
D03*
X1700591Y794882D02*
D03*
X2097047Y1602520D02*
D03*
X2237795Y1455276D02*
D03*
X2212756Y236299D02*
D03*
X1389213Y199567D02*
D03*
X2002165Y1650945D02*
D03*
X1668196Y753880D02*
D03*
X1637480Y767756D02*
D03*
X2201220Y1424685D02*
D03*
X1602126Y781063D02*
D03*
X2398987Y1612445D02*
D03*
X2242716Y1546142D02*
D03*
X2278032Y1517402D02*
D03*
X2301078Y1604210D02*
D03*
X1142205Y574961D02*
D03*
X1112685Y795779D02*
D03*
X1285433Y905551D02*
D03*
X2381039Y241720D02*
D03*
X2385157Y652205D02*
D03*
X1104528Y455984D02*
D03*
X1061772Y502520D02*
D03*
X1451614Y843661D02*
D03*
X2211685Y166000D02*
D03*
X1352401Y507205D02*
D03*
X2530748Y217284D02*
D03*
X1273835Y409000D02*
D03*
X1240493D02*
D03*
X1204685D02*
D03*
X2245685Y202000D02*
D03*
X2464685Y270000D02*
D03*
X1384842Y540158D02*
D03*
X1414457Y763472D02*
D03*
X1527953Y930945D02*
D03*
X1059094Y992716D02*
D03*
X1243701Y874055D02*
D03*
X1217953Y750787D02*
D03*
X1218386Y843661D02*
D03*
X849063Y716378D02*
D03*
X1172331Y640268D02*
D03*
X1428583Y693150D02*
D03*
X767685Y488000D02*
D03*
X415685Y787000D02*
D03*
X466685Y886000D02*
D03*
X1454685Y797748D02*
D03*
X937685Y672000D02*
D03*
X1011997Y705228D02*
D03*
X733685Y886315D02*
D03*
X784656Y1181000D02*
D03*
X747685Y615000D02*
D03*
X741685Y788000D02*
D03*
X2422598Y264000D02*
D03*
X2395709Y192284D02*
D03*
X2359417Y147127D02*
D03*
X2289016Y238819D02*
D03*
X2351902Y1060000D02*
D03*
X2400685Y103820D02*
D03*
D100*
X1089685Y940000D02*
D03*
%TF.MD5,e917254f0f25bee5e2bbae6e3bd03b18*%
M02*
