%TF.GenerationSoftware,Altium Limited,Altium Designer,18.1.7 (191)*%
G04 Layer_Color=32896*
%FSLAX26Y26*%
%MOIN*%
%TF.FileFunction,Legend,Bot*%
%TF.Part,Single*%
G01*
G75*
%TA.AperFunction,NonConductor*%
%ADD53C,0.010000*%
%ADD54C,0.003937*%
%ADD55C,0.007874*%
%ADD56C,0.008661*%
D53*
X3094646Y427087D02*
G03*
X3094646Y427087I-59055J0D01*
G01*
X3327716D02*
G03*
X3327716Y427087I-59055J0D01*
G01*
X2901929Y117835D02*
G03*
X2901929Y117835I-59055J0D01*
G01*
X3287401Y120079D02*
G03*
X3287401Y120079I-59055J0D01*
G01*
X2934492Y168937D02*
X3136496D01*
X2934492Y68937D02*
Y168937D01*
Y68937D02*
X3136496D01*
Y168937D01*
X2683504Y552087D02*
X2933504D01*
Y302087D02*
Y377087D01*
Y452087D01*
Y552087D01*
X2683504Y302087D02*
X2933504D01*
X2683504D02*
Y552087D01*
D54*
X414016Y1391260D02*
G03*
X414016Y1391260I-1968J0D01*
G01*
X216142Y1082914D02*
G03*
X216142Y1082914I-1968J0D01*
G01*
D55*
X2381811Y908740D02*
X2385748D01*
X2381811Y859528D02*
X2385748D01*
X1351102Y851221D02*
Y855158D01*
X1301890Y851221D02*
Y855158D01*
X538032Y1383701D02*
X541968D01*
X538032Y1432913D02*
X541968D01*
X3443237Y1266434D02*
X3482598Y1207392D01*
Y1266434D02*
X3443237D01*
X3482598Y1207392D02*
X3443237D01*
X3396284Y1246754D02*
Y1207392D01*
Y1238319D02*
X3401907Y1243942D01*
X3407530Y1246754D01*
X3415965D01*
X3421588Y1243942D01*
X3427211Y1238319D01*
X3430023Y1229884D01*
Y1224261D01*
X3427211Y1215827D01*
X3421588Y1210204D01*
X3415965Y1207392D01*
X3407530D01*
X3401907Y1210204D01*
X3396284Y1215827D01*
X3346801Y1238319D02*
X3352424Y1243942D01*
X3358047Y1246754D01*
X3366482D01*
X3372105Y1243942D01*
X3377728Y1238319D01*
X3380539Y1229884D01*
Y1224261D01*
X3377728Y1215827D01*
X3372105Y1210204D01*
X3366482Y1207392D01*
X3358047D01*
X3352424Y1210204D01*
X3346801Y1215827D01*
X3334149Y1266434D02*
Y1207392D01*
Y1235507D02*
X3325714Y1243942D01*
X3320091Y1246754D01*
X3311656D01*
X3306033Y1243942D01*
X3303222Y1235507D01*
Y1207392D01*
X3254020Y1246754D02*
Y1207392D01*
Y1238319D02*
X3259643Y1243942D01*
X3265266Y1246754D01*
X3273701D01*
X3279324Y1243942D01*
X3284947Y1238319D01*
X3287758Y1229884D01*
Y1224261D01*
X3284947Y1215827D01*
X3279324Y1210204D01*
X3273701Y1207392D01*
X3265266D01*
X3259643Y1210204D01*
X3254020Y1215827D01*
X3238275Y1246754D02*
Y1207392D01*
Y1229884D02*
X3235464Y1238319D01*
X3229840Y1243942D01*
X3224217Y1246754D01*
X3215783D01*
X3207629D02*
X3190760Y1207392D01*
X3173891Y1246754D02*
X3190760Y1207392D01*
X3196383Y1196146D01*
X3202006Y1190523D01*
X3207629Y1187711D01*
X3210441D01*
X3100791Y1266434D02*
X3106414Y1263623D01*
X3112037Y1258000D01*
X3114848Y1252377D01*
X3117660Y1243942D01*
Y1229884D01*
X3114848Y1221450D01*
X3112037Y1215827D01*
X3106414Y1210204D01*
X3100791Y1207392D01*
X3089544D01*
X3083921Y1210204D01*
X3078298Y1215827D01*
X3075487Y1221450D01*
X3072675Y1229884D01*
Y1243942D01*
X3075487Y1252377D01*
X3078298Y1258000D01*
X3083921Y1263623D01*
X3089544Y1266434D01*
X3100791D01*
X3092356Y1218638D02*
X3075487Y1201769D01*
X3058898Y1246754D02*
Y1218638D01*
X3056087Y1210204D01*
X3050464Y1207392D01*
X3042029D01*
X3036406Y1210204D01*
X3027972Y1218638D01*
Y1246754D02*
Y1207392D01*
X3012508Y1229884D02*
X2978769D01*
Y1235507D01*
X2981581Y1241130D01*
X2984392Y1243942D01*
X2990016Y1246754D01*
X2998450D01*
X3004073Y1243942D01*
X3009697Y1238319D01*
X3012508Y1229884D01*
Y1224261D01*
X3009697Y1215827D01*
X3004073Y1210204D01*
X2998450Y1207392D01*
X2990016D01*
X2984392Y1210204D01*
X2978769Y1215827D01*
X2966117Y1246754D02*
Y1207392D01*
Y1229884D02*
X2963306Y1238319D01*
X2957683Y1243942D01*
X2952060Y1246754D01*
X2943625D01*
X2938283Y1229884D02*
X2904545D01*
Y1235507D01*
X2907356Y1241130D01*
X2910168Y1243942D01*
X2915791Y1246754D01*
X2924226D01*
X2929849Y1243942D01*
X2935472Y1238319D01*
X2938283Y1229884D01*
Y1224261D01*
X2935472Y1215827D01*
X2929849Y1210204D01*
X2924226Y1207392D01*
X2915791D01*
X2910168Y1210204D01*
X2904545Y1215827D01*
X2891893Y1246754D02*
Y1207392D01*
Y1235507D02*
X2883458Y1243942D01*
X2877835Y1246754D01*
X2869400D01*
X2863777Y1243942D01*
X2860966Y1235507D01*
Y1207392D01*
X2811764Y1246754D02*
Y1201769D01*
X2814575Y1193334D01*
X2817387Y1190523D01*
X2823010Y1187711D01*
X2831445D01*
X2837068Y1190523D01*
X2811764Y1238319D02*
X2817387Y1243942D01*
X2823010Y1246754D01*
X2831445D01*
X2837068Y1243942D01*
X2842691Y1238319D01*
X2845502Y1229884D01*
Y1224261D01*
X2842691Y1215827D01*
X2837068Y1210204D01*
X2831445Y1207392D01*
X2823010D01*
X2817387Y1210204D01*
X2811764Y1215827D01*
X2762280Y1246754D02*
Y1207392D01*
Y1238319D02*
X2767903Y1243942D01*
X2773527Y1246754D01*
X2781961D01*
X2787584Y1243942D01*
X2793207Y1238319D01*
X2796019Y1229884D01*
Y1224261D01*
X2793207Y1215827D01*
X2787584Y1210204D01*
X2781961Y1207392D01*
X2773527D01*
X2767903Y1210204D01*
X2762280Y1215827D01*
X2715609Y1238319D02*
X2718420Y1243942D01*
X2726855Y1246754D01*
X2735290D01*
X2743724Y1243942D01*
X2746536Y1238319D01*
X2743724Y1232696D01*
X2738101Y1229884D01*
X2724043Y1227073D01*
X2718420Y1224261D01*
X2715609Y1218638D01*
Y1215827D01*
X2718420Y1210204D01*
X2726855Y1207392D01*
X2735290D01*
X2743724Y1210204D01*
X2746536Y1215827D01*
X2672311Y1238319D02*
X2675122Y1243942D01*
X2683557Y1246754D01*
X2691992D01*
X2700427Y1243942D01*
X2703238Y1238319D01*
X2700427Y1232696D01*
X2694803Y1229884D01*
X2680746Y1227073D01*
X2675122Y1224261D01*
X2672311Y1218638D01*
Y1215827D01*
X2675122Y1210204D01*
X2683557Y1207392D01*
X2691992D01*
X2700427Y1210204D01*
X2703238Y1215827D01*
X2659940Y1229884D02*
X2626202D01*
Y1235507D01*
X2629013Y1241130D01*
X2631825Y1243942D01*
X2637448Y1246754D01*
X2645883D01*
X2651506Y1243942D01*
X2657129Y1238319D01*
X2659940Y1229884D01*
Y1224261D01*
X2657129Y1215827D01*
X2651506Y1210204D01*
X2645883Y1207392D01*
X2637448D01*
X2631825Y1210204D01*
X2626202Y1215827D01*
X2613550Y1246754D02*
Y1207392D01*
Y1229884D02*
X2610738Y1238319D01*
X2605115Y1243942D01*
X2599492Y1246754D01*
X2591057D01*
X3440425Y1140136D02*
X3443237Y1145759D01*
X3448860Y1151382D01*
X3454483Y1154194D01*
X3465729D01*
X3471352Y1151382D01*
X3476975Y1145759D01*
X3479787Y1140136D01*
X3482598Y1131701D01*
Y1117643D01*
X3479787Y1109209D01*
X3476975Y1103586D01*
X3471352Y1097963D01*
X3465729Y1095151D01*
X3454483D01*
X3448860Y1097963D01*
X3443237Y1103586D01*
X3440425Y1109209D01*
Y1117643D01*
X3454483D02*
X3440425D01*
X3393191Y1134513D02*
Y1095151D01*
Y1126078D02*
X3398814Y1131701D01*
X3404437Y1134513D01*
X3412872D01*
X3418495Y1131701D01*
X3424118Y1126078D01*
X3426930Y1117643D01*
Y1112020D01*
X3424118Y1103586D01*
X3418495Y1097963D01*
X3412872Y1095151D01*
X3404437D01*
X3398814Y1097963D01*
X3393191Y1103586D01*
X3377447Y1154194D02*
Y1095151D01*
Y1126078D02*
X3371823Y1131701D01*
X3366200Y1134513D01*
X3357766D01*
X3352143Y1131701D01*
X3346520Y1126078D01*
X3343708Y1117643D01*
Y1112020D01*
X3346520Y1103586D01*
X3352143Y1097963D01*
X3357766Y1095151D01*
X3366200D01*
X3371823Y1097963D01*
X3377447Y1103586D01*
X3331056Y1134513D02*
Y1095151D01*
Y1117643D02*
X3328245Y1126078D01*
X3322622Y1131701D01*
X3316998Y1134513D01*
X3308564D01*
X3297599Y1154194D02*
X3294787Y1151382D01*
X3291976Y1154194D01*
X3294787Y1157005D01*
X3297599Y1154194D01*
X3294787Y1134513D02*
Y1095151D01*
X3281573Y1117643D02*
X3247834D01*
Y1123267D01*
X3250646Y1128890D01*
X3253457Y1131701D01*
X3259081Y1134513D01*
X3267515D01*
X3273138Y1131701D01*
X3278761Y1126078D01*
X3281573Y1117643D01*
Y1112020D01*
X3278761Y1103586D01*
X3273138Y1097963D01*
X3267515Y1095151D01*
X3259081D01*
X3253457Y1097963D01*
X3247834Y1103586D01*
X3235182Y1154194D02*
Y1095151D01*
X3176421Y1154194D02*
Y1095151D01*
X3142683D01*
X3130593Y1154194D02*
X3127781Y1151382D01*
X3124970Y1154194D01*
X3127781Y1157005D01*
X3130593Y1154194D01*
X3127781Y1134513D02*
Y1095151D01*
X3114567Y1134513D02*
Y1075470D01*
Y1126078D02*
X3108944Y1131701D01*
X3103321Y1134513D01*
X3094886D01*
X3089263Y1131701D01*
X3083640Y1126078D01*
X3080829Y1117643D01*
Y1112020D01*
X3083640Y1103586D01*
X3089263Y1097963D01*
X3094886Y1095151D01*
X3103321D01*
X3108944Y1097963D01*
X3114567Y1103586D01*
X3068177Y1134513D02*
Y1075470D01*
Y1126078D02*
X3062553Y1131701D01*
X3056930Y1134513D01*
X3048496D01*
X3042873Y1131701D01*
X3037250Y1126078D01*
X3034438Y1117643D01*
Y1112020D01*
X3037250Y1103586D01*
X3042873Y1097963D01*
X3048496Y1095151D01*
X3056930D01*
X3062553Y1097963D01*
X3068177Y1103586D01*
X3016163Y1154194D02*
X3013352Y1151382D01*
X3010540Y1154194D01*
X3013352Y1157005D01*
X3016163Y1154194D01*
X3013352Y1134513D02*
Y1095151D01*
X2966399Y1134513D02*
Y1095151D01*
Y1126078D02*
X2972022Y1131701D01*
X2977645Y1134513D01*
X2986079D01*
X2991703Y1131701D01*
X2997326Y1126078D01*
X3000137Y1117643D01*
Y1112020D01*
X2997326Y1103586D01*
X2991703Y1097963D01*
X2986079Y1095151D01*
X2977645D01*
X2972022Y1097963D01*
X2966399Y1103586D01*
X2942219Y1154194D02*
Y1106397D01*
X2939408Y1097963D01*
X2933785Y1095151D01*
X2928162D01*
X2950654Y1134513D02*
X2930973D01*
X2911292Y1154194D02*
Y1106397D01*
X2908481Y1097963D01*
X2902858Y1095151D01*
X2897235D01*
X2919727Y1134513D02*
X2900046D01*
X3482598Y1041953D02*
Y982910D01*
Y1041953D02*
X3460106Y982910D01*
X3437614Y1041953D02*
X3460106Y982910D01*
X3437614Y1041953D02*
Y982910D01*
X3415121Y1041953D02*
X3412310Y1039141D01*
X3409498Y1041953D01*
X3412310Y1044764D01*
X3415121Y1041953D01*
X3412310Y1022272D02*
Y982910D01*
X3365357Y1013837D02*
X3370980Y1019460D01*
X3376603Y1022272D01*
X3385038D01*
X3390661Y1019460D01*
X3396284Y1013837D01*
X3399095Y1005403D01*
Y999779D01*
X3396284Y991345D01*
X3390661Y985722D01*
X3385038Y982910D01*
X3376603D01*
X3370980Y985722D01*
X3365357Y991345D01*
X3352705Y1041953D02*
Y982910D01*
Y1011026D02*
X3344270Y1019460D01*
X3338647Y1022272D01*
X3330213D01*
X3324590Y1019460D01*
X3321778Y1011026D01*
Y982910D01*
X3272576Y1022272D02*
Y982910D01*
Y1013837D02*
X3278199Y1019460D01*
X3283822Y1022272D01*
X3292257D01*
X3297880Y1019460D01*
X3303503Y1013837D01*
X3306314Y1005403D01*
Y999779D01*
X3303503Y991345D01*
X3297880Y985722D01*
X3292257Y982910D01*
X3283822D01*
X3278199Y985722D01*
X3272576Y991345D01*
X3256831Y1005403D02*
X3223093D01*
Y1011026D01*
X3225904Y1016649D01*
X3228716Y1019460D01*
X3234339Y1022272D01*
X3242774D01*
X3248397Y1019460D01*
X3254020Y1013837D01*
X3256831Y1005403D01*
Y999779D01*
X3254020Y991345D01*
X3248397Y985722D01*
X3242774Y982910D01*
X3234339D01*
X3228716Y985722D01*
X3223093Y991345D01*
X3210441Y1041953D02*
Y982910D01*
X3151680Y1041953D02*
Y982910D01*
X3117941D01*
X3111474Y1005403D02*
X3077736D01*
Y1011026D01*
X3080547Y1016649D01*
X3083359Y1019460D01*
X3088982Y1022272D01*
X3097417D01*
X3103040Y1019460D01*
X3108663Y1013837D01*
X3111474Y1005403D01*
Y999779D01*
X3108663Y991345D01*
X3103040Y985722D01*
X3097417Y982910D01*
X3088982D01*
X3083359Y985722D01*
X3077736Y991345D01*
X3051026Y1022272D02*
X3056649Y1019460D01*
X3062272Y1013837D01*
X3065084Y1005403D01*
Y999779D01*
X3062272Y991345D01*
X3056649Y985722D01*
X3051026Y982910D01*
X3042591D01*
X3036968Y985722D01*
X3031345Y991345D01*
X3028534Y999779D01*
Y1005403D01*
X3031345Y1013837D01*
X3036968Y1019460D01*
X3042591Y1022272D01*
X3051026D01*
X3015601D02*
Y982910D01*
Y1011026D02*
X3007166Y1019460D01*
X3001543Y1022272D01*
X2993108D01*
X2987485Y1019460D01*
X2984674Y1011026D01*
Y982910D01*
X2935472Y1022272D02*
Y982910D01*
Y1013837D02*
X2941095Y1019460D01*
X2946718Y1022272D01*
X2955153D01*
X2960776Y1019460D01*
X2966399Y1013837D01*
X2969210Y1005403D01*
Y999779D01*
X2966399Y991345D01*
X2960776Y985722D01*
X2955153Y982910D01*
X2946718D01*
X2941095Y985722D01*
X2935472Y991345D01*
X2919727Y1022272D02*
Y982910D01*
Y1005403D02*
X2916916Y1013837D01*
X2911292Y1019460D01*
X2905669Y1022272D01*
X2897235D01*
X2858154Y1041953D02*
Y982910D01*
Y1013837D02*
X2863777Y1019460D01*
X2869400Y1022272D01*
X2877835D01*
X2883458Y1019460D01*
X2889081Y1013837D01*
X2891893Y1005403D01*
Y999779D01*
X2889081Y991345D01*
X2883458Y985722D01*
X2877835Y982910D01*
X2869400D01*
X2863777Y985722D01*
X2858154Y991345D01*
X3482598Y949393D02*
Y890350D01*
X3443237Y949393D02*
X3482598Y910031D01*
X3468541Y924089D02*
X3443237Y890350D01*
X3430023Y929712D02*
Y890350D01*
Y912842D02*
X3427211Y921277D01*
X3421588Y926900D01*
X3415965Y929712D01*
X3407530D01*
X3396565Y949393D02*
X3393754Y946581D01*
X3390942Y949393D01*
X3393754Y952204D01*
X3396565Y949393D01*
X3393754Y929712D02*
Y890350D01*
X3349612Y921277D02*
X3352424Y926900D01*
X3360858Y929712D01*
X3369293D01*
X3377728Y926900D01*
X3380539Y921277D01*
X3377728Y915654D01*
X3372105Y912842D01*
X3358047Y910031D01*
X3352424Y907219D01*
X3349612Y901596D01*
Y898785D01*
X3352424Y893162D01*
X3360858Y890350D01*
X3369293D01*
X3377728Y893162D01*
X3380539Y898785D01*
X3337242Y949393D02*
Y890350D01*
Y918466D02*
X3328807Y926900D01*
X3323184Y929712D01*
X3314749D01*
X3309126Y926900D01*
X3306314Y918466D01*
Y890350D01*
X3290851Y929712D02*
Y890350D01*
Y918466D02*
X3282416Y926900D01*
X3276793Y929712D01*
X3268359D01*
X3262735Y926900D01*
X3259924Y918466D01*
Y890350D01*
X3210722Y929712D02*
Y890350D01*
Y921277D02*
X3216345Y926900D01*
X3221968Y929712D01*
X3230403D01*
X3236026Y926900D01*
X3241649Y921277D01*
X3244461Y912842D01*
Y907219D01*
X3241649Y898785D01*
X3236026Y893162D01*
X3230403Y890350D01*
X3221968D01*
X3216345Y893162D01*
X3210722Y898785D01*
X3148587Y949393D02*
Y890350D01*
Y949393D02*
X3123283D01*
X3114848Y946581D01*
X3112037Y943769D01*
X3109225Y938146D01*
Y932523D01*
X3112037Y926900D01*
X3114848Y924089D01*
X3123283Y921277D01*
X3148587D02*
X3123283D01*
X3114848Y918466D01*
X3112037Y915654D01*
X3109225Y910031D01*
Y901596D01*
X3112037Y895973D01*
X3114848Y893162D01*
X3123283Y890350D01*
X3148587D01*
X3096011Y912842D02*
X3062272D01*
Y918466D01*
X3065084Y924089D01*
X3067895Y926900D01*
X3073519Y929712D01*
X3081953D01*
X3087576Y926900D01*
X3093199Y921277D01*
X3096011Y912842D01*
Y907219D01*
X3093199Y898785D01*
X3087576Y893162D01*
X3081953Y890350D01*
X3073519D01*
X3067895Y893162D01*
X3062272Y898785D01*
X3049620Y929712D02*
Y890350D01*
Y912842D02*
X3046809Y921277D01*
X3041186Y926900D01*
X3035563Y929712D01*
X3027128D01*
X3016163Y949393D02*
X3013352Y946581D01*
X3010540Y949393D01*
X3013352Y952204D01*
X3016163Y949393D01*
X3013352Y929712D02*
Y890350D01*
X2997326Y929712D02*
X2980456Y890350D01*
X2963587Y929712D02*
X2980456Y890350D01*
X2986079Y879104D01*
X2991703Y873481D01*
X2997326Y870669D01*
X3000137D01*
X2920008Y929712D02*
Y890350D01*
Y921277D02*
X2925631Y926900D01*
X2931254Y929712D01*
X2939689D01*
X2945312Y926900D01*
X2950935Y921277D01*
X2953747Y912842D01*
Y907219D01*
X2950935Y898785D01*
X2945312Y893162D01*
X2939689Y890350D01*
X2931254D01*
X2925631Y893162D01*
X2920008Y898785D01*
X3156911Y50239D02*
X3163471Y56798D01*
X3176590D01*
X3183150Y50239D01*
Y24000D01*
X3176590Y17441D01*
X3163471D01*
X3156911Y24000D01*
X3143792Y56798D02*
Y24000D01*
X3137233Y17441D01*
X3124113D01*
X3117554Y24000D01*
Y56798D01*
X3104435Y17441D02*
Y56798D01*
X3084756D01*
X3078197Y50239D01*
Y37120D01*
X3084756Y30560D01*
X3104435D01*
X3091316D02*
X3078197Y17441D01*
X3065077D02*
Y56798D01*
X3045399D01*
X3038839Y50239D01*
Y37120D01*
X3045399Y30560D01*
X3065077D01*
X3051958D02*
X3038839Y17441D01*
X2999482Y56798D02*
X3025720D01*
Y17441D01*
X2999482D01*
X3025720Y37120D02*
X3012601D01*
X2986363Y17441D02*
Y56798D01*
X2960124Y17441D01*
Y56798D01*
X2947005D02*
X2920767D01*
X2933886D01*
Y17441D01*
X3287677Y548098D02*
Y521859D01*
X3274558Y508740D01*
X3261439Y521859D01*
Y548098D01*
X3228641D02*
X3241760D01*
X3248320Y541538D01*
Y515300D01*
X3241760Y508740D01*
X3228641D01*
X3222082Y515300D01*
Y541538D01*
X3228641Y548098D01*
X3208962D02*
Y508740D01*
X3182724D01*
X3169605Y548098D02*
X3143367D01*
X3156486D01*
Y508740D01*
X3130248D02*
Y534978D01*
X3117128Y548098D01*
X3104009Y534978D01*
Y508740D01*
Y528419D01*
X3130248D01*
X3064652Y541538D02*
X3071211Y548098D01*
X3084331D01*
X3090890Y541538D01*
Y515300D01*
X3084331Y508740D01*
X3071211D01*
X3064652Y515300D01*
Y528419D01*
X3077771D01*
X3025295Y548098D02*
X3051533D01*
Y508740D01*
X3025295D01*
X3051533Y528419D02*
X3038414D01*
X2438307Y928937D02*
Y968294D01*
X2418628D01*
X2412069Y961735D01*
Y948616D01*
X2418628Y942056D01*
X2438307D01*
X2425188D02*
X2412069Y928937D01*
X2372711D02*
X2398950D01*
X2372711Y955175D01*
Y961735D01*
X2379271Y968294D01*
X2392390D01*
X2398950Y961735D01*
X2339914Y928937D02*
Y968294D01*
X2359592Y948616D01*
X2333354D01*
X2897047Y240381D02*
X2870809D01*
X2883928D01*
Y201024D01*
X2857690D02*
Y240381D01*
X2838011D01*
X2831452Y233821D01*
Y220702D01*
X2838011Y214143D01*
X2857690D01*
X2798654Y201024D02*
Y240381D01*
X2818332Y220702D01*
X2792094D01*
X3279252Y236208D02*
X3253014D01*
X3266133D01*
Y196850D01*
X3239895D02*
Y236208D01*
X3220216D01*
X3213656Y229648D01*
Y216529D01*
X3220216Y209970D01*
X3239895D01*
X3200537Y229648D02*
X3193978Y236208D01*
X3180858D01*
X3174299Y229648D01*
Y223089D01*
X3180858Y216529D01*
X3187418D01*
X3180858D01*
X3174299Y209970D01*
Y203410D01*
X3180858Y196850D01*
X3193978D01*
X3200537Y203410D01*
X3086772Y348846D02*
X3060534D01*
X3073653D01*
Y309488D01*
X3047414D02*
Y348846D01*
X3027736D01*
X3021176Y342286D01*
Y329167D01*
X3027736Y322607D01*
X3047414D01*
X2981819Y309488D02*
X3008057D01*
X2981819Y335726D01*
Y342286D01*
X2988378Y348846D01*
X3001497D01*
X3008057Y342286D01*
X3315433Y350460D02*
X3289195D01*
X3302314D01*
Y311102D01*
X3276076D02*
Y350460D01*
X3256397D01*
X3249838Y343900D01*
Y330781D01*
X3256397Y324221D01*
X3276076D01*
X3236718Y311102D02*
X3223599D01*
X3230159D01*
Y350460D01*
X3236718Y343900D01*
X1304094Y947756D02*
X1343452D01*
Y967435D01*
X1336892Y973994D01*
X1323773D01*
X1317214Y967435D01*
Y947756D01*
Y960875D02*
X1304094Y973994D01*
Y1013351D02*
Y987113D01*
X1330333Y1013351D01*
X1336892D01*
X1343452Y1006792D01*
Y993673D01*
X1336892Y987113D01*
X1304094Y1052709D02*
Y1026471D01*
X1330333Y1052709D01*
X1336892D01*
X1343452Y1046149D01*
Y1033030D01*
X1336892Y1026471D01*
X617685Y1486000D02*
Y1525357D01*
X598006D01*
X591447Y1518798D01*
Y1505679D01*
X598006Y1499119D01*
X617685D01*
X604566D02*
X591447Y1486000D01*
X552089D02*
X578328D01*
X552089Y1512238D01*
Y1518798D01*
X558649Y1525357D01*
X571768D01*
X578328Y1518798D01*
X538970Y1486000D02*
X525851D01*
X532411D01*
Y1525357D01*
X538970Y1518798D01*
X379198Y896462D02*
X397751Y877909D01*
X383836Y863994D01*
X374560Y873270D01*
X383836Y863994D01*
X369921Y850079D01*
Y905739D02*
X342091Y877909D01*
X328176Y891823D01*
Y901100D01*
X332815Y905738D01*
X342091Y905739D01*
X356006Y891823D01*
X342091Y905739D01*
Y915015D01*
X346730Y919653D01*
X356006Y919653D01*
X369921Y905739D01*
X295708Y924292D02*
X314262Y905739D01*
Y942845D01*
X318900Y947483D01*
X328176Y947483D01*
X337453Y938207D01*
Y928930D01*
X399370Y1422468D02*
Y1383110D01*
X379691D01*
X373132Y1389670D01*
Y1415908D01*
X379691Y1422468D01*
X399370D01*
X360013Y1383110D02*
X346894D01*
X353453D01*
Y1422468D01*
X360013Y1415908D01*
X300977Y1422468D02*
X327215D01*
Y1402789D01*
X314096Y1409348D01*
X307536D01*
X300977Y1402789D01*
Y1389670D01*
X307536Y1383110D01*
X320655D01*
X327215Y1389670D01*
X235980Y1131176D02*
X208150Y1103347D01*
X194235Y1117261D01*
Y1126538D01*
X212788Y1145091D01*
X222065D01*
X235980Y1131176D01*
X180320D02*
X171043Y1140453D01*
X175681Y1135815D01*
X203511Y1163645D01*
Y1154368D01*
X180320Y1177560D02*
Y1186836D01*
X171043Y1196113D01*
X161767Y1196113D01*
X157128Y1191474D01*
Y1182198D01*
X161767Y1177560D01*
X157128Y1182198D01*
X147852Y1182198D01*
X143213Y1177560D01*
X143213Y1168283D01*
X152490Y1159006D01*
X161767D01*
X3046833Y222783D02*
X3059952D01*
X3053392D01*
Y189985D01*
X3059952Y183425D01*
X3066511D01*
X3073071Y189985D01*
X3033713Y183425D02*
X3020594D01*
X3027154D01*
Y222783D01*
X3033713Y216223D01*
X2755100Y610184D02*
X2768220D01*
X2761660D01*
Y577386D01*
X2768220Y570827D01*
X2774779D01*
X2781339Y577386D01*
X2715743Y570827D02*
X2741981D01*
X2715743Y597065D01*
Y603625D01*
X2722302Y610184D01*
X2735422D01*
X2741981Y603625D01*
D56*
X3445497Y1662153D02*
X3482047D01*
Y1603110D01*
X3445497D01*
X3482047Y1634037D02*
X3459555D01*
X3435657Y1662153D02*
Y1603110D01*
Y1662153D02*
X3396295Y1603110D01*
Y1662153D02*
Y1603110D01*
X3337815Y1648095D02*
X3340626Y1653718D01*
X3346250Y1659341D01*
X3351873Y1662153D01*
X3363119D01*
X3368742Y1659341D01*
X3374365Y1653718D01*
X3377177Y1648095D01*
X3379988Y1639660D01*
Y1625603D01*
X3377177Y1617168D01*
X3374365Y1611545D01*
X3368742Y1605922D01*
X3363119Y1603110D01*
X3351873D01*
X3346250Y1605922D01*
X3340626Y1611545D01*
X3337815Y1617168D01*
Y1625603D01*
X3351873D02*
X3337815D01*
X3282146Y1648095D02*
X3284958Y1653718D01*
X3290581Y1659341D01*
X3296204Y1662153D01*
X3307450D01*
X3313073Y1659341D01*
X3318696Y1653718D01*
X3321508Y1648095D01*
X3324320Y1639660D01*
Y1625603D01*
X3321508Y1617168D01*
X3318696Y1611545D01*
X3313073Y1605922D01*
X3307450Y1603110D01*
X3296204D01*
X3290581Y1605922D01*
X3284958Y1611545D01*
X3282146Y1617168D01*
Y1625603D01*
X3296204D02*
X3282146D01*
X3265839Y1648095D02*
Y1650907D01*
X3263028Y1656530D01*
X3260216Y1659341D01*
X3254593Y1662153D01*
X3243347D01*
X3237724Y1659341D01*
X3234912Y1656530D01*
X3232101Y1650907D01*
Y1645283D01*
X3234912Y1639660D01*
X3240535Y1631226D01*
X3268651Y1603110D01*
X3229289D01*
X3202017Y1662153D02*
X3210452Y1659341D01*
X3213264Y1653718D01*
Y1648095D01*
X3210452Y1642472D01*
X3204829Y1639660D01*
X3193583Y1636849D01*
X3185148Y1634037D01*
X3179525Y1628414D01*
X3176713Y1622791D01*
Y1614356D01*
X3179525Y1608733D01*
X3182336Y1605922D01*
X3190771Y1603110D01*
X3202017D01*
X3210452Y1605922D01*
X3213264Y1608733D01*
X3216075Y1614356D01*
Y1622791D01*
X3213264Y1628414D01*
X3207640Y1634037D01*
X3199206Y1636849D01*
X3187959Y1639660D01*
X3182336Y1642472D01*
X3179525Y1648095D01*
Y1653718D01*
X3182336Y1659341D01*
X3190771Y1662153D01*
X3202017D01*
X3146630D02*
X3155064Y1659341D01*
X3160688Y1650907D01*
X3163499Y1636849D01*
Y1628414D01*
X3160688Y1614356D01*
X3155064Y1605922D01*
X3146630Y1603110D01*
X3141007D01*
X3132572Y1605922D01*
X3126949Y1614356D01*
X3124137Y1628414D01*
Y1636849D01*
X3126949Y1650907D01*
X3132572Y1659341D01*
X3141007Y1662153D01*
X3146630D01*
X3094054D02*
X3102489Y1659341D01*
X3108112Y1650907D01*
X3110923Y1636849D01*
Y1628414D01*
X3108112Y1614356D01*
X3102489Y1605922D01*
X3094054Y1603110D01*
X3088431D01*
X3079996Y1605922D01*
X3074373Y1614356D01*
X3071562Y1628414D01*
Y1636849D01*
X3074373Y1650907D01*
X3079996Y1659341D01*
X3088431Y1662153D01*
X3094054D01*
X2992276D02*
Y1603110D01*
X3011957Y1662153D02*
X2972595D01*
X2965566Y1631226D02*
X2940262D01*
X2931828Y1634037D01*
X2929016Y1636849D01*
X2926205Y1642472D01*
Y1650907D01*
X2929016Y1656530D01*
X2931828Y1659341D01*
X2940262Y1662153D01*
X2965566D01*
Y1603110D01*
X2896121Y1662153D02*
X2904556Y1659341D01*
X2910179Y1650907D01*
X2912990Y1636849D01*
Y1628414D01*
X2910179Y1614356D01*
X2904556Y1605922D01*
X2896121Y1603110D01*
X2890498D01*
X2882063Y1605922D01*
X2876440Y1614356D01*
X2873629Y1628414D01*
Y1636849D01*
X2876440Y1650907D01*
X2882063Y1659341D01*
X2890498Y1662153D01*
X2896121D01*
X2860414Y1650907D02*
X2854791Y1653718D01*
X2846357Y1662153D01*
Y1603110D01*
X2728553Y1648095D02*
X2731365Y1653718D01*
X2736988Y1659341D01*
X2742611Y1662153D01*
X2753857D01*
X2759480Y1659341D01*
X2765103Y1653718D01*
X2767915Y1648095D01*
X2770726Y1639660D01*
Y1625603D01*
X2767915Y1617168D01*
X2765103Y1611545D01*
X2759480Y1605922D01*
X2753857Y1603110D01*
X2742611D01*
X2736988Y1605922D01*
X2731365Y1611545D01*
X2728553Y1617168D01*
Y1625603D01*
X2742611D02*
X2728553D01*
X2698188Y1662153D02*
X2706623Y1659341D01*
X2712246Y1650907D01*
X2715058Y1636849D01*
Y1628414D01*
X2712246Y1614356D01*
X2706623Y1605922D01*
X2698188Y1603110D01*
X2692565D01*
X2684131Y1605922D01*
X2678508Y1614356D01*
X2675696Y1628414D01*
Y1636849D01*
X2678508Y1650907D01*
X2684131Y1659341D01*
X2692565Y1662153D01*
X2698188D01*
X2659670Y1648095D02*
Y1650907D01*
X2656859Y1656530D01*
X2654047Y1659341D01*
X2648424Y1662153D01*
X2637178D01*
X2631555Y1659341D01*
X2628743Y1656530D01*
X2625932Y1650907D01*
Y1645283D01*
X2628743Y1639660D01*
X2634366Y1631226D01*
X2662482Y1603110D01*
X2623120D01*
%TF.MD5,ef1021824056fe59e39d5121ed9709ea*%
M02*
