%TF.GenerationSoftware,Altium Limited,Altium Designer,18.1.7 (191)*%
G04 Layer_Color=65535*
%FSLAX26Y26*%
%MOIN*%
%TF.FileFunction,Legend,Top*%
%TF.Part,Single*%
G01*
G75*
%TA.AperFunction,NonConductor*%
%ADD53C,0.010000*%
%ADD54C,0.003937*%
%ADD55C,0.007874*%
%ADD56C,0.008661*%
%ADD68C,0.009842*%
%ADD69C,0.023622*%
D53*
X3509685Y980000D02*
G03*
X3509685Y880000I0J-50000D01*
G01*
X43685Y336000D02*
X143685D01*
X143685Y1136000D02*
X143685Y336000D01*
X43685Y1136000D02*
X143685D01*
X43685D02*
X43685Y336000D01*
X2629685Y1130000D02*
X3129685D01*
X2629685Y730000D02*
X3129685D01*
X2629685Y630000D02*
Y1230000D01*
X3129685Y630000D02*
Y730000D01*
Y1130000D02*
Y1230000D01*
X3509685Y730000D02*
Y880000D01*
Y980000D02*
Y1130000D01*
X2629685Y630000D02*
X3129685D01*
X2629685D02*
Y730000D01*
Y1230000D02*
X3129685D01*
X2629685Y1130000D02*
Y1230000D01*
X3129685D02*
X3509685D01*
Y1130000D02*
Y1230000D01*
Y630000D02*
Y730000D01*
X3129685Y630000D02*
X3509685D01*
X1173501Y1076496D02*
X1181375D01*
X1173501Y1013504D02*
X1181375D01*
X326685Y1173000D02*
X386685D01*
X316685D02*
X326685D01*
X316685D02*
Y1273000D01*
X386685Y1173000D02*
X616685D01*
X316685Y1273000D02*
Y1373000D01*
X616685Y1173000D02*
Y1273000D01*
X316685Y1373000D02*
X416685D01*
Y1423000D01*
X516685D01*
Y1373000D02*
Y1423000D01*
Y1373000D02*
X616685D01*
Y1273000D02*
Y1373000D01*
D54*
X2553622Y1031732D02*
G03*
X2553622Y1031732I-1968J0D01*
G01*
X632157Y1325315D02*
G03*
X632157Y1325315I-1968J0D01*
G01*
X2712968Y1293496D02*
G03*
X2712968Y1293496I-1968J0D01*
G01*
X213150Y584685D02*
G03*
X213150Y584685I-1968J0D01*
G01*
Y484685D02*
G03*
X213150Y484685I-1968J0D01*
G01*
Y384685D02*
G03*
X213150Y384685I-1968J0D01*
G01*
Y683079D02*
G03*
X213150Y683079I-1968J0D01*
G01*
X545866Y784134D02*
G03*
X545866Y784134I-1968J0D01*
G01*
X543858Y884606D02*
G03*
X543858Y884606I-1968J0D01*
G01*
X2407441Y222756D02*
G03*
X2407441Y222756I-1968J0D01*
G01*
X2614150Y960685D02*
G03*
X2614150Y960685I-1968J0D01*
G01*
X2618150Y760195D02*
G03*
X2618150Y760195I-1968J0D01*
G01*
X2825157Y288213D02*
G03*
X2825157Y288213I-1968J0D01*
G01*
D55*
X2381811Y859528D02*
X2385748D01*
X2381811Y908740D02*
X2385748D01*
X2498622Y1663937D02*
X2502559D01*
X2498622Y1614724D02*
X2502559D01*
X2497638Y1572244D02*
X2501575D01*
X2497638Y1523032D02*
X2501575D01*
X2497638Y1482520D02*
X2501575D01*
X2497638Y1433307D02*
X2501575D01*
X2072441Y1594016D02*
Y1597953D01*
X2023228Y1594016D02*
Y1597953D01*
X747291Y1226032D02*
Y1229968D01*
X698079Y1226032D02*
Y1229968D01*
X1215638Y904047D02*
X1459732D01*
X1215638Y659953D02*
X1459732D01*
Y904047D01*
X1215638Y659953D02*
Y904047D01*
X2405472Y238504D02*
Y301496D01*
X2503898Y238504D02*
Y301496D01*
X2396386Y349693D02*
X2402291D01*
X2396386Y436307D02*
X2402291D01*
X3169291Y218504D02*
X3196850D01*
X3259842D02*
X3287401D01*
X3169291D02*
Y253937D01*
X3287401Y218504D02*
Y253937D01*
X2499054Y193434D02*
X2535488Y157000D01*
X2479551Y193434D02*
X2499054D01*
X2381370Y208752D02*
Y219000D01*
X2333994Y161376D02*
X2381370Y208752D01*
X2476181Y996266D02*
Y1000203D01*
X2525394Y996266D02*
Y1000203D01*
X2373496Y1043307D02*
X2389244D01*
X2373496Y956693D02*
X2389244D01*
X2373496D02*
Y1043307D01*
X2389244Y956693D02*
Y1043307D01*
X2288291Y766032D02*
Y769968D01*
X2239079Y766032D02*
Y769968D01*
X2373496Y726693D02*
X2389244D01*
X2373496Y813307D02*
X2389244D01*
Y726693D02*
Y813307D01*
X2373496Y726693D02*
Y813307D01*
X2299528Y1413150D02*
Y1417087D01*
X2348740Y1413150D02*
Y1417087D01*
X1488307Y259488D02*
X1492244D01*
X1488307Y210276D02*
X1492244D01*
X2115984Y1556929D02*
Y1560866D01*
X2165197Y1556929D02*
Y1560866D01*
X1228976Y254606D02*
X1232913D01*
X1228976Y205394D02*
X1232913D01*
X622693Y412606D02*
X626630D01*
X622693Y363394D02*
X626630D01*
X622693Y512606D02*
X626630D01*
X622693Y463394D02*
X626630D01*
X622693Y612606D02*
X626630D01*
X622693Y563394D02*
X626630D01*
X622693Y712606D02*
X626630D01*
X622693Y663394D02*
X626630D01*
X622693Y812606D02*
X626630D01*
X622693Y763394D02*
X626630D01*
X622693Y912606D02*
X626630D01*
X622693Y863394D02*
X626630D01*
X848504Y1007506D02*
Y1011443D01*
X897716Y1007506D02*
Y1011443D01*
X969079Y1008032D02*
Y1011968D01*
X1018291Y1008032D02*
Y1011968D01*
X827716Y1570394D02*
X831654D01*
X827716Y1619606D02*
X831654D01*
X1033902Y1619843D02*
X1037839D01*
X1033902Y1570630D02*
X1037839D01*
X2183347Y869764D02*
Y909121D01*
X2203025D01*
X2209585Y902562D01*
Y889442D01*
X2203025Y882883D01*
X2183347D01*
X2196466D02*
X2209585Y869764D01*
X2248942D02*
X2222704D01*
X2248942Y896002D01*
Y902562D01*
X2242383Y909121D01*
X2229264D01*
X2222704Y902562D01*
X2262061D02*
X2268621Y909121D01*
X2281740D01*
X2288300Y902562D01*
Y896002D01*
X2281740Y889442D01*
X2275180D01*
X2281740D01*
X2288300Y882883D01*
Y876323D01*
X2281740Y869764D01*
X2268621D01*
X2262061Y876323D01*
X2558910Y1112913D02*
X2598268D01*
Y1132592D01*
X2591708Y1139152D01*
X2565470D01*
X2558910Y1132592D01*
Y1112913D01*
X2598268Y1152271D02*
Y1165390D01*
Y1158830D01*
X2558910D01*
X2565470Y1152271D01*
X2558910Y1211307D02*
X2565470Y1198188D01*
X2578589Y1185069D01*
X2591708D01*
X2598268Y1191628D01*
Y1204747D01*
X2591708Y1211307D01*
X2585149D01*
X2578589Y1204747D01*
Y1185069D01*
X775512Y1261238D02*
Y1300595D01*
X795191D01*
X801750Y1294036D01*
Y1280917D01*
X795191Y1274357D01*
X775512D01*
X788631D02*
X801750Y1261238D01*
X841107D02*
X814869D01*
X841107Y1287476D01*
Y1294036D01*
X834548Y1300595D01*
X821429D01*
X814869Y1294036D01*
X854227D02*
X860786Y1300595D01*
X873905D01*
X880465Y1294036D01*
Y1267798D01*
X873905Y1261238D01*
X860786D01*
X854227Y1267798D01*
Y1294036D01*
X87026Y1199279D02*
X73906D01*
X80466D01*
Y1166481D01*
X73906Y1159921D01*
X67347D01*
X60787Y1166481D01*
X119823Y1159921D02*
Y1199279D01*
X100145Y1179600D01*
X126383D01*
X699055Y1378885D02*
Y1339528D01*
X718734D01*
X725293Y1346087D01*
Y1372325D01*
X718734Y1378885D01*
X699055D01*
X738413Y1339528D02*
X751532D01*
X744972D01*
Y1378885D01*
X738413Y1372325D01*
X790889Y1339528D02*
Y1378885D01*
X771210Y1359206D01*
X797448D01*
X216142Y364594D02*
Y325236D01*
X235820D01*
X242380Y331796D01*
Y358034D01*
X235820Y364594D01*
X216142D01*
X255499Y325236D02*
X268618D01*
X262059D01*
Y364594D01*
X255499Y358034D01*
X314535Y325236D02*
X288297D01*
X314535Y351474D01*
Y358034D01*
X307976Y364594D01*
X294856D01*
X288297Y358034D01*
X216142Y462468D02*
Y423110D01*
X235820D01*
X242380Y429670D01*
Y455908D01*
X235820Y462468D01*
X216142D01*
X255499Y423110D02*
X268618D01*
X262059D01*
Y462468D01*
X255499Y455908D01*
X288297Y423110D02*
X301416D01*
X294856D01*
Y462468D01*
X288297Y455908D01*
X217992Y563137D02*
Y523779D01*
X237671D01*
X244230Y530339D01*
Y556577D01*
X237671Y563137D01*
X217992D01*
X257349Y523779D02*
X270469D01*
X263909D01*
Y563137D01*
X257349Y556577D01*
X290147D02*
X296707Y563137D01*
X309826D01*
X316385Y556577D01*
Y530339D01*
X309826Y523779D01*
X296707D01*
X290147Y530339D01*
Y556577D01*
X2951120Y378728D02*
X2924882D01*
Y359049D01*
X2938001D01*
X2924882D01*
Y339370D01*
X2964239Y378728D02*
Y339370D01*
X2983918D01*
X2990477Y345930D01*
Y352489D01*
X2983918Y359049D01*
X2964239D01*
X2983918D01*
X2990477Y365608D01*
Y372168D01*
X2983918Y378728D01*
X2964239D01*
X3003597Y339370D02*
X3016716D01*
X3010156D01*
Y378728D01*
X3003597Y372168D01*
X220787Y664790D02*
Y625433D01*
X240466D01*
X247026Y631993D01*
Y658231D01*
X240466Y664790D01*
X220787D01*
X260145Y631993D02*
X266704Y625433D01*
X279824D01*
X286383Y631993D01*
Y658231D01*
X279824Y664790D01*
X266704D01*
X260145Y658231D01*
Y651671D01*
X266704Y645112D01*
X286383D01*
X458905Y705106D02*
Y665748D01*
X478584D01*
X485144Y672308D01*
Y698546D01*
X478584Y705106D01*
X458905D01*
X498263Y698546D02*
X504822Y705106D01*
X517942D01*
X524501Y698546D01*
Y691986D01*
X517942Y685427D01*
X524501Y678867D01*
Y672308D01*
X517942Y665748D01*
X504822D01*
X498263Y672308D01*
Y678867D01*
X504822Y685427D01*
X498263Y691986D01*
Y698546D01*
X504822Y685427D02*
X517942D01*
X457079Y956452D02*
Y917094D01*
X476757D01*
X483317Y923654D01*
Y949892D01*
X476757Y956452D01*
X457079D01*
X496436D02*
X522674D01*
Y949892D01*
X496436Y923654D01*
Y917094D01*
X2561863Y809882D02*
X2601220D01*
Y829561D01*
X2594661Y836120D01*
X2568423D01*
X2561863Y829561D01*
Y809882D01*
Y875477D02*
X2568423Y862358D01*
X2581542Y849239D01*
X2594661D01*
X2601220Y855799D01*
Y868918D01*
X2594661Y875477D01*
X2588101D01*
X2581542Y868918D01*
Y849239D01*
X2563871Y619882D02*
X2603228D01*
Y639561D01*
X2596669Y646120D01*
X2570430D01*
X2563871Y639561D01*
Y619882D01*
Y685477D02*
Y659239D01*
X2583550D01*
X2576990Y672358D01*
Y678918D01*
X2583550Y685477D01*
X2596669D01*
X2603228Y678918D01*
Y665799D01*
X2596669Y659239D01*
X1111822Y1227238D02*
X1105263Y1220679D01*
Y1207560D01*
X1111822Y1201000D01*
X1138060D01*
X1144620Y1207560D01*
Y1220679D01*
X1138060Y1227238D01*
X1144620Y1240357D02*
Y1253476D01*
Y1246917D01*
X1105263D01*
X1111822Y1240357D01*
X1105263Y1299393D02*
X1111822Y1286274D01*
X1124941Y1273155D01*
X1138060D01*
X1144620Y1279715D01*
Y1292834D01*
X1138060Y1299393D01*
X1131501D01*
X1124941Y1292834D01*
Y1273155D01*
X1218887Y1226238D02*
X1212328Y1219679D01*
Y1206560D01*
X1218887Y1200000D01*
X1245125D01*
X1251685Y1206560D01*
Y1219679D01*
X1245125Y1226238D01*
X1251685Y1239357D02*
Y1252476D01*
Y1245917D01*
X1212328D01*
X1218887Y1239357D01*
X1212328Y1298393D02*
Y1272155D01*
X1232006D01*
X1225447Y1285274D01*
Y1291834D01*
X1232006Y1298393D01*
X1245125D01*
X1251685Y1291834D01*
Y1278715D01*
X1245125Y1272155D01*
X2697008Y1351798D02*
Y1312441D01*
X2716686D01*
X2723246Y1319001D01*
Y1345239D01*
X2716686Y1351798D01*
X2697008D01*
X2756044Y1312441D02*
Y1351798D01*
X2736365Y1332120D01*
X2762603D01*
X2371711Y666262D02*
X2365151Y672822D01*
X2352032D01*
X2345472Y666262D01*
Y640024D01*
X2352032Y633465D01*
X2365151D01*
X2371711Y640024D01*
X2384830Y633465D02*
X2397949D01*
X2391389D01*
Y672822D01*
X2384830Y666262D01*
X2437306Y633465D02*
Y672822D01*
X2417628Y653143D01*
X2443866D01*
X2379522Y1150798D02*
X2372962Y1157357D01*
X2359843D01*
X2353284Y1150798D01*
Y1124560D01*
X2359843Y1118000D01*
X2372962D01*
X2379522Y1124560D01*
X2392641Y1118000D02*
X2405760D01*
X2399200D01*
Y1157357D01*
X2392641Y1150798D01*
X2425439D02*
X2431998Y1157357D01*
X2445117D01*
X2451677Y1150798D01*
Y1144238D01*
X2445117Y1137679D01*
X2438558D01*
X2445117D01*
X2451677Y1131119D01*
Y1124560D01*
X2445117Y1118000D01*
X2431998D01*
X2425439Y1124560D01*
X2520394Y1095158D02*
X2481036D01*
Y1114836D01*
X2487596Y1121396D01*
X2500715D01*
X2507275Y1114836D01*
Y1095158D01*
Y1108277D02*
X2520394Y1121396D01*
Y1134515D02*
Y1147634D01*
Y1141074D01*
X2481036D01*
X2487596Y1134515D01*
X2513834Y1167313D02*
X2520394Y1173872D01*
Y1186991D01*
X2513834Y1193551D01*
X2487596D01*
X2481036Y1186991D01*
Y1173872D01*
X2487596Y1167313D01*
X2494155D01*
X2500715Y1173872D01*
Y1193551D01*
X2106685Y744409D02*
Y783767D01*
X2126364D01*
X2132923Y777207D01*
Y764088D01*
X2126364Y757529D01*
X2106685D01*
X2119804D02*
X2132923Y744409D01*
X2146042D02*
X2159162D01*
X2152602D01*
Y783767D01*
X2146042Y777207D01*
X2178840D02*
X2185400Y783767D01*
X2198519D01*
X2205078Y777207D01*
Y770648D01*
X2198519Y764088D01*
X2205078Y757529D01*
Y750969D01*
X2198519Y744409D01*
X2185400D01*
X2178840Y750969D01*
Y757529D01*
X2185400Y764088D01*
X2178840Y770648D01*
Y777207D01*
X2185400Y764088D02*
X2198519D01*
X2658898Y577953D02*
Y617310D01*
X2672017Y604191D01*
X2685136Y617310D01*
Y577953D01*
X2698255D02*
X2711374D01*
X2704815D01*
Y617310D01*
X2698255Y610751D01*
X2469134Y786562D02*
Y753764D01*
X2475693Y747205D01*
X2488813D01*
X2495372Y753764D01*
Y786562D01*
X2528170Y747205D02*
Y786562D01*
X2508491Y766883D01*
X2534729D01*
X2224472Y1033357D02*
Y1000560D01*
X2231032Y994000D01*
X2244151D01*
X2250711Y1000560D01*
Y1033357D01*
X2290068D02*
X2263830D01*
Y1013679D01*
X2276949Y1020238D01*
X2283508D01*
X2290068Y1013679D01*
Y1000560D01*
X2283508Y994000D01*
X2270389D01*
X2263830Y1000560D01*
X1142852Y405632D02*
X1136293Y412192D01*
X1123174D01*
X1116614Y405632D01*
Y379394D01*
X1123174Y372835D01*
X1136293D01*
X1142852Y379394D01*
X1155972D02*
X1162531Y372835D01*
X1175650D01*
X1182210Y379394D01*
Y405632D01*
X1175650Y412192D01*
X1162531D01*
X1155972Y405632D01*
Y399073D01*
X1162531Y392513D01*
X1182210D01*
X3338443Y233793D02*
Y260031D01*
X3331883Y266591D01*
X3318764D01*
X3312205Y260031D01*
Y233793D01*
X3318764Y227234D01*
X3331883D01*
X3325324Y240353D02*
X3338443Y227234D01*
X3331883D02*
X3338443Y233793D01*
X3351562Y227234D02*
X3364681D01*
X3358122D01*
Y266591D01*
X3351562Y260031D01*
X3097026Y378334D02*
X3070787D01*
Y358655D01*
X3083907D01*
X3070787D01*
Y338976D01*
X3110145D02*
X3123264D01*
X3116704D01*
Y378334D01*
X3110145Y371774D01*
X2824764Y242310D02*
Y202953D01*
X2844442D01*
X2851002Y209512D01*
Y235751D01*
X2844442Y242310D01*
X2824764D01*
X2864121Y235751D02*
X2870681Y242310D01*
X2883800D01*
X2890359Y235751D01*
Y229191D01*
X2883800Y222631D01*
X2877240D01*
X2883800D01*
X2890359Y216072D01*
Y209512D01*
X2883800Y202953D01*
X2870681D01*
X2864121Y209512D01*
X2501929Y382468D02*
Y349670D01*
X2508489Y343110D01*
X2521608D01*
X2528167Y349670D01*
Y382468D01*
X2541287Y375908D02*
X2547846Y382468D01*
X2560965D01*
X2567525Y375908D01*
Y369348D01*
X2560965Y362789D01*
X2554406D01*
X2560965D01*
X2567525Y356229D01*
Y349670D01*
X2560965Y343110D01*
X2547846D01*
X2541287Y349670D01*
X2555748Y251654D02*
Y291011D01*
X2575427D01*
X2581986Y284451D01*
Y271332D01*
X2575427Y264773D01*
X2555748D01*
X2568867D02*
X2581986Y251654D01*
X2595105D02*
X2608224D01*
X2601665D01*
Y291011D01*
X2595105Y284451D01*
X2627903Y291011D02*
X2654141D01*
Y284451D01*
X2627903Y258213D01*
Y251654D01*
X2318685Y503357D02*
Y464000D01*
X2344923D01*
X2358042D02*
X2371162D01*
X2364602D01*
Y503357D01*
X2358042Y496798D01*
X2238781Y298734D02*
X2232221Y292175D01*
Y279056D01*
X2238781Y272496D01*
X2265019D01*
X2271579Y279056D01*
Y292175D01*
X2265019Y298734D01*
X2238781Y311853D02*
X2232221Y318413D01*
Y331532D01*
X2238781Y338092D01*
X2245340D01*
X2251900Y331532D01*
X2258460Y338092D01*
X2265019D01*
X2271579Y331532D01*
Y318413D01*
X2265019Y311853D01*
X2258460D01*
X2251900Y318413D01*
X2245340Y311853D01*
X2238781D01*
X2251900Y318413D02*
Y331532D01*
X2557608Y132798D02*
X2551049Y139357D01*
X2537930D01*
X2531370Y132798D01*
Y106560D01*
X2537930Y100000D01*
X2551049D01*
X2557608Y106560D01*
X2596966Y139357D02*
X2583847Y132798D01*
X2570727Y119679D01*
Y106560D01*
X2577287Y100000D01*
X2590406D01*
X2596966Y106560D01*
Y113119D01*
X2590406Y119679D01*
X2570727D01*
X2440687Y96066D02*
X2434128Y102625D01*
X2421008D01*
X2414449Y96066D01*
Y69827D01*
X2421008Y63268D01*
X2434128D01*
X2440687Y69827D01*
X2480044Y102625D02*
X2453806D01*
Y82946D01*
X2466925Y89506D01*
X2473485D01*
X2480044Y82946D01*
Y69827D01*
X2473485Y63268D01*
X2460366D01*
X2453806Y69827D01*
X2306557Y106411D02*
X2299997Y99852D01*
Y86733D01*
X2306557Y80173D01*
X2332795D01*
X2339354Y86733D01*
Y99852D01*
X2332795Y106411D01*
X2299997Y119531D02*
Y145769D01*
X2306557D01*
X2332795Y119531D01*
X2339354D01*
X1062126Y683491D02*
Y650693D01*
X1068686Y644134D01*
X1081805D01*
X1088364Y650693D01*
Y683491D01*
X1101483Y644134D02*
X1114602D01*
X1108043D01*
Y683491D01*
X1101483Y676932D01*
X1304230Y1098782D02*
X1297671Y1105342D01*
X1284552D01*
X1277992Y1098782D01*
Y1072544D01*
X1284552Y1065984D01*
X1297671D01*
X1304230Y1072544D01*
X1343588Y1065984D02*
X1317350D01*
X1343588Y1092223D01*
Y1098782D01*
X1337028Y1105342D01*
X1323909D01*
X1317350Y1098782D01*
X1242262Y549569D02*
X1235702Y556129D01*
X1222583D01*
X1216024Y549569D01*
Y523331D01*
X1222583Y516772D01*
X1235702D01*
X1242262Y523331D01*
X1255381Y516772D02*
X1268500D01*
X1261941D01*
Y556129D01*
X1255381Y549569D01*
X1056451Y74837D02*
X1049891Y81397D01*
X1036772D01*
X1030213Y74837D01*
Y68278D01*
X1036772Y61718D01*
X1049891D01*
X1056451Y55158D01*
Y48599D01*
X1049891Y42039D01*
X1036772D01*
X1030213Y48599D01*
X1069570Y42039D02*
X1082689D01*
X1076130D01*
Y81397D01*
X1069570Y74837D01*
X2597126Y1441653D02*
Y1481011D01*
X2616805D01*
X2623364Y1474451D01*
Y1461332D01*
X2616805Y1454773D01*
X2597126D01*
X2610245D02*
X2623364Y1441653D01*
X2636483D02*
X2649602D01*
X2643043D01*
Y1481011D01*
X2636483Y1474451D01*
X2695519Y1481011D02*
X2682400Y1474451D01*
X2669281Y1461332D01*
Y1448213D01*
X2675841Y1441653D01*
X2688960D01*
X2695519Y1448213D01*
Y1454773D01*
X2688960Y1461332D01*
X2669281D01*
X1444025Y280089D02*
Y319447D01*
X1463704D01*
X1470263Y312887D01*
Y299768D01*
X1463704Y293209D01*
X1444025D01*
X1457144D02*
X1470263Y280089D01*
X1483382D02*
X1496502D01*
X1489942D01*
Y319447D01*
X1483382Y312887D01*
X1542418Y319447D02*
X1516180D01*
Y299768D01*
X1529299Y306328D01*
X1535859D01*
X1542418Y299768D01*
Y286649D01*
X1535859Y280089D01*
X1522740D01*
X1516180Y286649D01*
X2345866Y1271693D02*
X2306509D01*
Y1291372D01*
X2313068Y1297931D01*
X2326187D01*
X2332747Y1291372D01*
Y1271693D01*
Y1284812D02*
X2345866Y1297931D01*
Y1311050D02*
Y1324169D01*
Y1317610D01*
X2306509D01*
X2313068Y1311050D01*
X2230887Y1398994D02*
X2224328Y1392435D01*
Y1379315D01*
X2230887Y1372756D01*
X2257125D01*
X2263685Y1379315D01*
Y1392435D01*
X2257125Y1398994D01*
X2263685Y1431792D02*
X2224328D01*
X2244006Y1412113D01*
Y1438351D01*
X355136Y1434318D02*
X342017D01*
X348576D01*
Y1401520D01*
X342017Y1394961D01*
X335457D01*
X328898Y1401520D01*
X368255Y1427758D02*
X374815Y1434318D01*
X387934D01*
X394493Y1427758D01*
Y1421199D01*
X387934Y1414639D01*
X381374D01*
X387934D01*
X394493Y1408080D01*
Y1401520D01*
X387934Y1394961D01*
X374815D01*
X368255Y1401520D01*
X2331732Y1540420D02*
Y1507623D01*
X2338292Y1501063D01*
X2351411D01*
X2357970Y1507623D01*
Y1540420D01*
X2397328Y1501063D02*
X2371090D01*
X2397328Y1527301D01*
Y1533861D01*
X2390768Y1540420D01*
X2377649D01*
X2371090Y1533861D01*
X1039580Y1015276D02*
X1078937Y1041514D01*
X1039580D02*
X1078937Y1015276D01*
Y1054633D02*
Y1067752D01*
Y1061193D01*
X1039580D01*
X1046139Y1054633D01*
X677520Y1614200D02*
Y1574842D01*
X697198D01*
X703758Y1581402D01*
Y1607640D01*
X697198Y1614200D01*
X677520D01*
X743115Y1574842D02*
X716877D01*
X743115Y1601081D01*
Y1607640D01*
X736556Y1614200D01*
X723437D01*
X716877Y1607640D01*
X1126024Y1615302D02*
Y1575945D01*
X1145702D01*
X1152262Y1582505D01*
Y1608743D01*
X1145702Y1615302D01*
X1126024D01*
X1165381Y1575945D02*
X1178500D01*
X1171941D01*
Y1615302D01*
X1165381Y1608743D01*
X893685Y1106552D02*
X854328D01*
Y1126231D01*
X860887Y1132791D01*
X874006D01*
X880566Y1126231D01*
Y1106552D01*
Y1119671D02*
X893685Y1132791D01*
Y1145910D02*
Y1159029D01*
Y1152469D01*
X854328D01*
X860887Y1145910D01*
X893685Y1198386D02*
X854328D01*
X874006Y1178708D01*
Y1204946D01*
X1014260Y1107078D02*
X974902D01*
Y1126757D01*
X981462Y1133316D01*
X994581D01*
X1001141Y1126757D01*
Y1107078D01*
Y1120197D02*
X1014260Y1133316D01*
Y1146436D02*
Y1159555D01*
Y1152995D01*
X974902D01*
X981462Y1146436D01*
Y1179233D02*
X974902Y1185793D01*
Y1198912D01*
X981462Y1205472D01*
X988022D01*
X994581Y1198912D01*
Y1192352D01*
Y1198912D01*
X1001141Y1205472D01*
X1007700D01*
X1014260Y1198912D01*
Y1185793D01*
X1007700Y1179233D01*
X721661Y366774D02*
Y406131D01*
X741340D01*
X747900Y399572D01*
Y386453D01*
X741340Y379893D01*
X721661D01*
X734780D02*
X747900Y366774D01*
X761019D02*
X774138D01*
X767578D01*
Y406131D01*
X761019Y399572D01*
X793817Y366774D02*
X806936D01*
X800376D01*
Y406131D01*
X793817Y399572D01*
X725095Y467526D02*
Y506884D01*
X744774D01*
X751333Y500324D01*
Y487205D01*
X744774Y480645D01*
X725095D01*
X738214D02*
X751333Y467526D01*
X764452D02*
X777571D01*
X771012D01*
Y506884D01*
X764452Y500324D01*
X797250D02*
X803810Y506884D01*
X816929D01*
X823488Y500324D01*
Y474086D01*
X816929Y467526D01*
X803810D01*
X797250Y474086D01*
Y500324D01*
X723799Y566774D02*
Y606131D01*
X743477D01*
X750037Y599572D01*
Y586453D01*
X743477Y579893D01*
X723799D01*
X736918D02*
X750037Y566774D01*
X763156Y573334D02*
X769716Y566774D01*
X782835D01*
X789394Y573334D01*
Y599572D01*
X782835Y606131D01*
X769716D01*
X763156Y599572D01*
Y593012D01*
X769716Y586453D01*
X789394D01*
X723720Y667526D02*
Y706884D01*
X743399D01*
X749958Y700324D01*
Y687205D01*
X743399Y680645D01*
X723720D01*
X736839D02*
X749958Y667526D01*
X763077Y700324D02*
X769637Y706884D01*
X782756D01*
X789316Y700324D01*
Y693764D01*
X782756Y687205D01*
X789316Y680645D01*
Y674086D01*
X782756Y667526D01*
X769637D01*
X763077Y674086D01*
Y680645D01*
X769637Y687205D01*
X763077Y693764D01*
Y700324D01*
X769637Y687205D02*
X782756D01*
X723661Y767937D02*
Y807294D01*
X743340D01*
X749900Y800735D01*
Y787616D01*
X743340Y781056D01*
X723661D01*
X736780D02*
X749900Y767937D01*
X763019Y807294D02*
X789257D01*
Y800735D01*
X763019Y774496D01*
Y767937D01*
X721661Y866774D02*
Y906131D01*
X741340D01*
X747900Y899572D01*
Y886453D01*
X741340Y879893D01*
X721661D01*
X734780D02*
X747900Y866774D01*
X787257Y906131D02*
X774138Y899572D01*
X761019Y886453D01*
Y873334D01*
X767578Y866774D01*
X780697D01*
X787257Y873334D01*
Y879893D01*
X780697Y886453D01*
X761019D01*
X2597126Y1529882D02*
Y1569239D01*
X2616805D01*
X2623364Y1562680D01*
Y1549561D01*
X2616805Y1543001D01*
X2597126D01*
X2610245D02*
X2623364Y1529882D01*
X2662722Y1569239D02*
X2636483D01*
Y1549561D01*
X2649602Y1556120D01*
X2656162D01*
X2662722Y1549561D01*
Y1536441D01*
X2656162Y1529882D01*
X2643043D01*
X2636483Y1536441D01*
X2597126Y1621339D02*
Y1660696D01*
X2616805D01*
X2623364Y1654136D01*
Y1641017D01*
X2616805Y1634458D01*
X2597126D01*
X2610245D02*
X2623364Y1621339D01*
X2656162D02*
Y1660696D01*
X2636483Y1641017D01*
X2662722D01*
X1182945Y289000D02*
Y328357D01*
X1202624D01*
X1209183Y321798D01*
Y308679D01*
X1202624Y302119D01*
X1182945D01*
X1196064D02*
X1209183Y289000D01*
X1222302D02*
X1235421D01*
X1228862D01*
Y328357D01*
X1222302Y321798D01*
X1281338Y289000D02*
X1255100D01*
X1281338Y315238D01*
Y321798D01*
X1274779Y328357D01*
X1261660D01*
X1255100Y321798D01*
X2160984Y1400709D02*
X2121627D01*
Y1420387D01*
X2128186Y1426947D01*
X2141305D01*
X2147865Y1420387D01*
Y1400709D01*
Y1413828D02*
X2160984Y1426947D01*
X2128186Y1440066D02*
X2121627Y1446626D01*
Y1459745D01*
X2128186Y1466304D01*
X2134746D01*
X2141305Y1459745D01*
Y1453185D01*
Y1459745D01*
X2147865Y1466304D01*
X2154425D01*
X2160984Y1459745D01*
Y1446626D01*
X2154425Y1440066D01*
X2070315Y1438661D02*
X2030958D01*
Y1458340D01*
X2037517Y1464900D01*
X2050636D01*
X2057196Y1458340D01*
Y1438661D01*
Y1451781D02*
X2070315Y1464900D01*
Y1504257D02*
Y1478019D01*
X2044077Y1504257D01*
X2037517D01*
X2030958Y1497697D01*
Y1484578D01*
X2037517Y1478019D01*
X1401002Y1098782D02*
X1394443Y1105342D01*
X1381323D01*
X1374764Y1098782D01*
Y1072544D01*
X1381323Y1065984D01*
X1394443D01*
X1401002Y1072544D01*
X1414121Y1098782D02*
X1420681Y1105342D01*
X1433800D01*
X1440359Y1098782D01*
Y1092223D01*
X1433800Y1085663D01*
X1427240D01*
X1433800D01*
X1440359Y1079103D01*
Y1072544D01*
X1433800Y1065984D01*
X1420681D01*
X1414121Y1072544D01*
D56*
X2883715Y1670995D02*
X2847165D01*
Y1611953D01*
X2883715D01*
X2847165Y1642880D02*
X2869658D01*
X2893556Y1670995D02*
Y1611953D01*
Y1670995D02*
X2932917Y1611953D01*
Y1670995D02*
Y1611953D01*
X2991398Y1656938D02*
X2988586Y1662561D01*
X2982963Y1668184D01*
X2977340Y1670995D01*
X2966094D01*
X2960471Y1668184D01*
X2954847Y1662561D01*
X2952036Y1656938D01*
X2949224Y1648503D01*
Y1634446D01*
X2952036Y1626011D01*
X2954847Y1620388D01*
X2960471Y1614765D01*
X2966094Y1611953D01*
X2977340D01*
X2982963Y1614765D01*
X2988586Y1620388D01*
X2991398Y1626011D01*
Y1634446D01*
X2977340D02*
X2991398D01*
X3047066Y1656938D02*
X3044255Y1662561D01*
X3038631Y1668184D01*
X3033008Y1670995D01*
X3021762D01*
X3016139Y1668184D01*
X3010516Y1662561D01*
X3007704Y1656938D01*
X3004893Y1648503D01*
Y1634446D01*
X3007704Y1626011D01*
X3010516Y1620388D01*
X3016139Y1614765D01*
X3021762Y1611953D01*
X3033008D01*
X3038631Y1614765D01*
X3044255Y1620388D01*
X3047066Y1626011D01*
Y1634446D01*
X3033008D02*
X3047066D01*
X3063373Y1656938D02*
Y1659749D01*
X3066185Y1665372D01*
X3068996Y1668184D01*
X3074619Y1670995D01*
X3085865D01*
X3091489Y1668184D01*
X3094300Y1665372D01*
X3097112Y1659749D01*
Y1654126D01*
X3094300Y1648503D01*
X3088677Y1640069D01*
X3060562Y1611953D01*
X3099923D01*
X3127195Y1670995D02*
X3118761Y1668184D01*
X3115949Y1662561D01*
Y1656938D01*
X3118761Y1651315D01*
X3124384Y1648503D01*
X3135630Y1645692D01*
X3144064Y1642880D01*
X3149688Y1637257D01*
X3152499Y1631634D01*
Y1623199D01*
X3149688Y1617576D01*
X3146876Y1614765D01*
X3138441Y1611953D01*
X3127195D01*
X3118761Y1614765D01*
X3115949Y1617576D01*
X3113137Y1623199D01*
Y1631634D01*
X3115949Y1637257D01*
X3121572Y1642880D01*
X3130007Y1645692D01*
X3141253Y1648503D01*
X3146876Y1651315D01*
X3149688Y1656938D01*
Y1662561D01*
X3146876Y1668184D01*
X3138441Y1670995D01*
X3127195D01*
X3182583D02*
X3174148Y1668184D01*
X3168525Y1659749D01*
X3165713Y1645692D01*
Y1637257D01*
X3168525Y1623199D01*
X3174148Y1614765D01*
X3182583Y1611953D01*
X3188206D01*
X3196640Y1614765D01*
X3202264Y1623199D01*
X3205075Y1637257D01*
Y1645692D01*
X3202264Y1659749D01*
X3196640Y1668184D01*
X3188206Y1670995D01*
X3182583D01*
X3235159D02*
X3226724Y1668184D01*
X3221101Y1659749D01*
X3218289Y1645692D01*
Y1637257D01*
X3221101Y1623199D01*
X3226724Y1614765D01*
X3235159Y1611953D01*
X3240782D01*
X3249216Y1614765D01*
X3254839Y1623199D01*
X3257651Y1637257D01*
Y1645692D01*
X3254839Y1659749D01*
X3249216Y1668184D01*
X3240782Y1670995D01*
X3235159D01*
X2866846Y1579357D02*
Y1520315D01*
X2847165Y1579357D02*
X2886527D01*
X2893556Y1548430D02*
X2918860D01*
X2927294Y1551242D01*
X2930106Y1554053D01*
X2932917Y1559677D01*
Y1568111D01*
X2930106Y1573734D01*
X2927294Y1576546D01*
X2918860Y1579357D01*
X2893556D01*
Y1520315D01*
X2963001Y1579357D02*
X2954566Y1576546D01*
X2948943Y1568111D01*
X2946132Y1554053D01*
Y1545619D01*
X2948943Y1531561D01*
X2954566Y1523126D01*
X2963001Y1520315D01*
X2968624D01*
X2977059Y1523126D01*
X2982682Y1531561D01*
X2985493Y1545619D01*
Y1554053D01*
X2982682Y1568111D01*
X2977059Y1576546D01*
X2968624Y1579357D01*
X2963001D01*
X2998708Y1568111D02*
X3004331Y1570923D01*
X3012765Y1579357D01*
Y1520315D01*
X3130569Y1565300D02*
X3127758Y1570923D01*
X3122134Y1576546D01*
X3116511Y1579357D01*
X3105265D01*
X3099642Y1576546D01*
X3094019Y1570923D01*
X3091207Y1565300D01*
X3088396Y1556865D01*
Y1542807D01*
X3091207Y1534373D01*
X3094019Y1528749D01*
X3099642Y1523126D01*
X3105265Y1520315D01*
X3116511D01*
X3122134Y1523126D01*
X3127758Y1528749D01*
X3130569Y1534373D01*
Y1542807D01*
X3116511D02*
X3130569D01*
X3160934Y1579357D02*
X3152499Y1576546D01*
X3146876Y1568111D01*
X3144064Y1554053D01*
Y1545619D01*
X3146876Y1531561D01*
X3152499Y1523126D01*
X3160934Y1520315D01*
X3166557D01*
X3174992Y1523126D01*
X3180615Y1531561D01*
X3183426Y1545619D01*
Y1554053D01*
X3180615Y1568111D01*
X3174992Y1576546D01*
X3166557Y1579357D01*
X3160934D01*
X3199452Y1565300D02*
Y1568111D01*
X3202264Y1573734D01*
X3205075Y1576546D01*
X3210698Y1579357D01*
X3221944D01*
X3227567Y1576546D01*
X3230379Y1573734D01*
X3233191Y1568111D01*
Y1562488D01*
X3230379Y1556865D01*
X3224756Y1548430D01*
X3196640Y1520315D01*
X3236002D01*
D68*
X1486307Y953260D02*
G03*
X1486307Y953260I-4921J0D01*
G01*
X3312008Y293307D02*
G03*
X3312008Y293307I-4921J0D01*
G01*
X2342000Y1055118D02*
G03*
X2342000Y1055118I-4921J0D01*
G01*
X2430583Y714882D02*
G03*
X2430583Y714882I-4921J0D01*
G01*
X2247323Y1661748D02*
G03*
X2247323Y1661748I-4921J0D01*
G01*
D69*
X1432173Y864677D02*
G03*
X1432173Y864677I-11811J0D01*
G01*
%TF.MD5,4700ff7721f37e1c8e35e8baeadd6009*%
M02*
