%TF.GenerationSoftware,Altium Limited,Altium Designer,18.1.7 (191)*%
G04 Layer_Color=8388736*
%FSLAX26Y26*%
%MOIN*%
%TF.FileFunction,Soldermask,Top*%
%TF.Part,Single*%
G01*
G75*
%TA.AperFunction,SMDPad,CuDef*%
%ADD57R,0.055244X0.065087*%
%ADD58R,0.065087X0.055244*%
%ADD59R,0.035559X0.035559*%
%TA.AperFunction,ComponentPad*%
%ADD62C,0.118000*%
%ADD63C,0.068000*%
%TA.AperFunction,ViaPad*%
%ADD64C,0.196850*%
%TA.AperFunction,ComponentPad*%
%ADD65C,0.092016*%
%TA.AperFunction,ViaPad*%
%ADD66C,0.181228*%
%ADD67C,0.063118*%
%TA.AperFunction,SMDPad,CuDef*%
%ADD70R,0.034646X0.036221*%
%ADD71R,0.035559X0.035559*%
%ADD72R,0.051307X0.055244*%
%ADD73O,0.027559X0.070866*%
%ADD74O,0.070866X0.027559*%
%ADD75R,0.023622X0.025197*%
%ADD76R,0.036221X0.034646*%
%ADD77R,0.025197X0.023622*%
%ADD78O,0.013780X0.041339*%
%ADD79R,0.060236X0.095276*%
%ADD80R,0.037528X0.051307*%
%TA.AperFunction,ConnectorPad*%
G04:AMPARAMS|DCode=81|XSize=47.37mil|YSize=39.496mil|CornerRadius=7.15mil|HoleSize=0mil|Usage=FLASHONLY|Rotation=0.000|XOffset=0mil|YOffset=0mil|HoleType=Round|Shape=RoundedRectangle|*
%AMROUNDEDRECTD81*
21,1,0.047370,0.025197,0,0,0.0*
21,1,0.033071,0.039496,0,0,0.0*
1,1,0.014299,0.016535,-0.012598*
1,1,0.014299,-0.016535,-0.012598*
1,1,0.014299,-0.016535,0.012598*
1,1,0.014299,0.016535,0.012598*
%
%ADD81ROUNDEDRECTD81*%
G04:AMPARAMS|DCode=82|XSize=35.559mil|YSize=67.055mil|CornerRadius=6.756mil|HoleSize=0mil|Usage=FLASHONLY|Rotation=0.000|XOffset=0mil|YOffset=0mil|HoleType=Round|Shape=RoundedRectangle|*
%AMROUNDEDRECTD82*
21,1,0.035559,0.053543,0,0,0.0*
21,1,0.022047,0.067055,0,0,0.0*
1,1,0.013512,0.011024,-0.026772*
1,1,0.013512,-0.011024,-0.026772*
1,1,0.013512,-0.011024,0.026772*
1,1,0.013512,0.011024,0.026772*
%
%ADD82ROUNDEDRECTD82*%
%TA.AperFunction,BGAPad,CuDef*%
%ADD83C,0.068000*%
%TA.AperFunction,SMDPad,CuDef*%
%ADD84R,0.049339X0.023748*%
%ADD85R,0.055244X0.051307*%
%ADD86O,0.013780X0.047244*%
%ADD87O,0.047244X0.013780*%
%ADD88R,0.067055X0.086740*%
D57*
X2425118Y884134D02*
D03*
X2342441D02*
D03*
X2459252Y1639331D02*
D03*
X2541929D02*
D03*
X2458268Y1547638D02*
D03*
X2540945D02*
D03*
X2458268Y1457913D02*
D03*
X2540945D02*
D03*
X1448937Y234882D02*
D03*
X1531614D02*
D03*
X1189606Y230000D02*
D03*
X1272284D02*
D03*
X583323Y388000D02*
D03*
X666000D02*
D03*
X583323Y488000D02*
D03*
X666000D02*
D03*
X583323Y588000D02*
D03*
X666000D02*
D03*
X583323Y688000D02*
D03*
X666000D02*
D03*
X583323Y788000D02*
D03*
X666000D02*
D03*
X583323Y888000D02*
D03*
X666000D02*
D03*
X871024Y1595000D02*
D03*
X788346D02*
D03*
X994532Y1595236D02*
D03*
X1077209D02*
D03*
D58*
X2047835Y1637323D02*
D03*
Y1554646D02*
D03*
X722685Y1269339D02*
D03*
Y1186661D02*
D03*
X2500787Y956896D02*
D03*
Y1039573D02*
D03*
X2263685Y809339D02*
D03*
Y726661D02*
D03*
X2324134Y1373780D02*
D03*
Y1456457D02*
D03*
X2140590Y1517559D02*
D03*
Y1600236D02*
D03*
X873110Y968136D02*
D03*
Y1050813D02*
D03*
X993685Y968661D02*
D03*
Y1051339D02*
D03*
D59*
X2583150Y1029764D02*
D03*
Y1073071D02*
D03*
X661685Y1323346D02*
D03*
Y1366653D02*
D03*
X179685Y586654D02*
D03*
Y543346D02*
D03*
Y486654D02*
D03*
Y443346D02*
D03*
Y386654D02*
D03*
Y343346D02*
D03*
Y685047D02*
D03*
Y641740D02*
D03*
X512402Y786102D02*
D03*
Y742795D02*
D03*
X511575Y886339D02*
D03*
Y843032D02*
D03*
X2580685Y919346D02*
D03*
Y962654D02*
D03*
X2584685Y718857D02*
D03*
Y762164D02*
D03*
X2854685Y329551D02*
D03*
Y286244D02*
D03*
D62*
X3035590Y427087D02*
D03*
X3268661D02*
D03*
X2842874Y117835D02*
D03*
X3228346Y120079D02*
D03*
D63*
X2986496Y118937D02*
D03*
X3086496D02*
D03*
X93685Y386000D02*
D03*
Y486000D02*
D03*
Y586000D02*
D03*
Y686000D02*
D03*
Y1086000D02*
D03*
Y986000D02*
D03*
Y886000D02*
D03*
Y786000D02*
D03*
X566685Y1323000D02*
D03*
X466685D02*
D03*
X366685D02*
D03*
Y1223000D02*
D03*
X466685D02*
D03*
X566685D02*
D03*
D64*
X1771653Y1555118D02*
D03*
D65*
X2758504Y427087D02*
D03*
X2858504D02*
D03*
D66*
X98425Y98425D02*
D03*
Y1417323D02*
D03*
X3425197D02*
D03*
Y98425D02*
D03*
D67*
X1089685Y940000D02*
D03*
D70*
X2201220Y1503740D02*
D03*
X2246102D02*
D03*
X1348126Y542000D02*
D03*
X1303244D02*
D03*
D71*
X2752338Y1262000D02*
D03*
X2709031D02*
D03*
D72*
X2932677Y294882D02*
D03*
X2999606D02*
D03*
X1223149Y455264D02*
D03*
X1156220D02*
D03*
X2466150Y147127D02*
D03*
X2399220D02*
D03*
X3058189Y294488D02*
D03*
X3125118D02*
D03*
D73*
X1447921Y953260D02*
D03*
X1416425D02*
D03*
X1384929D02*
D03*
X1353433D02*
D03*
X1321937D02*
D03*
X1290441D02*
D03*
X1258945D02*
D03*
X1227449D02*
D03*
Y610740D02*
D03*
X1258945D02*
D03*
X1290441D02*
D03*
X1321937D02*
D03*
X1353433D02*
D03*
X1384929D02*
D03*
X1416425D02*
D03*
X1447921D02*
D03*
D74*
X1166425Y892236D02*
D03*
Y860740D02*
D03*
Y829244D02*
D03*
Y797748D02*
D03*
Y766252D02*
D03*
Y734756D02*
D03*
Y703260D02*
D03*
Y671764D02*
D03*
X1508945D02*
D03*
Y703260D02*
D03*
Y734756D02*
D03*
Y766252D02*
D03*
Y797748D02*
D03*
Y829244D02*
D03*
Y860740D02*
D03*
Y892236D02*
D03*
D75*
X2527685Y286115D02*
D03*
Y255406D02*
D03*
X2381039Y264173D02*
D03*
Y294882D02*
D03*
D76*
X1126257Y1122000D02*
D03*
Y1166882D02*
D03*
X1228619Y1122000D02*
D03*
Y1166882D02*
D03*
D77*
X2381039Y700000D02*
D03*
X2350331D02*
D03*
X2414039Y1071000D02*
D03*
X2383331D02*
D03*
X2419331Y193000D02*
D03*
X2450039D02*
D03*
X1386039Y1014504D02*
D03*
X1355331D02*
D03*
X1320685D02*
D03*
X1289976D02*
D03*
D78*
X2425157Y237716D02*
D03*
X2444842D02*
D03*
X2464528D02*
D03*
X2484213D02*
D03*
X2425157Y302283D02*
D03*
X2444842D02*
D03*
X2464528D02*
D03*
X2484213D02*
D03*
D79*
X2445992Y393000D02*
D03*
X2352685D02*
D03*
D80*
X3228346Y196850D02*
D03*
X3190945Y295276D02*
D03*
X3265748D02*
D03*
D81*
X1532913Y105512D02*
D03*
Y26772D02*
D03*
X1127401D02*
D03*
Y105512D02*
D03*
D82*
X1448268Y135039D02*
D03*
X1389213D02*
D03*
X1271102D02*
D03*
X1212047D02*
D03*
D83*
X2779685Y1180000D02*
D03*
X2879685D02*
D03*
X2979685D02*
D03*
X3079685D02*
D03*
X2879685Y680000D02*
D03*
X2779685D02*
D03*
X2679685D02*
D03*
Y1180000D02*
D03*
X2979685Y680000D02*
D03*
X3079685D02*
D03*
D84*
X2337079Y1025591D02*
D03*
Y1000000D02*
D03*
Y974409D02*
D03*
X2425662D02*
D03*
Y1025591D02*
D03*
X2425661Y744409D02*
D03*
Y770000D02*
D03*
Y795591D02*
D03*
X2337079D02*
D03*
Y744409D02*
D03*
D85*
X2333000Y310961D02*
D03*
Y244032D02*
D03*
D86*
X2300472Y1646000D02*
D03*
Y1561354D02*
D03*
D87*
X2342795Y1633205D02*
D03*
Y1613520D02*
D03*
Y1593835D02*
D03*
Y1574150D02*
D03*
X2258150D02*
D03*
Y1593835D02*
D03*
Y1613520D02*
D03*
Y1633205D02*
D03*
D88*
X1228619Y1045000D02*
D03*
X1126257D02*
D03*
%TF.MD5,35f7e79227212b3ad0c300964be97a05*%
M02*
