%TF.GenerationSoftware,Altium Limited,Altium Designer,18.1.7 (191)*%
G04 Layer_Physical_Order=2*
G04 Layer_Color=16711680*
%FSLAX26Y26*%
%MOIN*%
%TF.FileFunction,Copper,L2,Bot,Signal*%
%TF.Part,Single*%
G01*
G75*
%TA.AperFunction,SMDPad,CuDef*%
%ADD10R,0.047244X0.057087*%
%ADD12R,0.057087X0.047244*%
%ADD13R,0.027559X0.027559*%
%TA.AperFunction,Conductor*%
%ADD32C,0.019685*%
%TA.AperFunction,ComponentPad*%
%ADD43C,0.110000*%
%ADD44C,0.060000*%
%TA.AperFunction,ViaPad*%
%ADD45C,0.216535*%
%TA.AperFunction,ComponentPad*%
%ADD46C,0.084016*%
%TA.AperFunction,ViaPad*%
%ADD47C,0.173228*%
%ADD48C,0.023622*%
%ADD49C,0.055118*%
%TA.AperFunction,SMDPad,CuDef*%
%ADD50P,0.038974X4X270.0*%
G04:AMPARAMS|DCode=51|XSize=47.244mil|YSize=43.307mil|CornerRadius=0mil|HoleSize=0mil|Usage=FLASHONLY|Rotation=225.000|XOffset=0mil|YOffset=0mil|HoleType=Round|Shape=Rectangle|*
%AMROTATEDRECTD51*
4,1,4,0.001392,0.032015,0.032015,0.001392,-0.001392,-0.032015,-0.032015,-0.001392,0.001392,0.032015,0.0*
%
%ADD51ROTATEDRECTD51*%

%TA.AperFunction,Conductor*%
%ADD52C,0.015748*%
G36*
X3516597Y1465737D02*
X3511597Y1464521D01*
X3511375Y1464952D01*
X3508568Y1469709D01*
X3505500Y1474301D01*
X3502179Y1478714D01*
X3498616Y1482934D01*
X3494821Y1486947D01*
X3490808Y1490742D01*
X3486588Y1494305D01*
X3482175Y1497626D01*
X3477583Y1500695D01*
X3472826Y1503501D01*
X3467919Y1506036D01*
X3462877Y1508292D01*
X3457717Y1510261D01*
X3452455Y1511938D01*
X3447107Y1513318D01*
X3441690Y1514395D01*
X3438976Y1514778D01*
Y1417323D01*
Y1319867D01*
X3441690Y1320250D01*
X3447107Y1321328D01*
X3452455Y1322707D01*
X3457717Y1324384D01*
X3462877Y1326354D01*
X3467919Y1328610D01*
X3472826Y1331145D01*
X3477583Y1333951D01*
X3482175Y1337020D01*
X3486588Y1340341D01*
X3490808Y1343904D01*
X3494821Y1347698D01*
X3498616Y1351712D01*
X3502179Y1355932D01*
X3505500Y1360345D01*
X3508568Y1364937D01*
X3511375Y1369694D01*
X3511597Y1370124D01*
X3516597Y1368909D01*
Y146839D01*
X3511597Y145624D01*
X3511375Y146054D01*
X3508568Y150811D01*
X3505500Y155403D01*
X3502179Y159816D01*
X3498616Y164036D01*
X3494821Y168050D01*
X3490808Y171844D01*
X3486588Y175407D01*
X3482175Y178728D01*
X3477583Y181797D01*
X3472826Y184603D01*
X3467919Y187138D01*
X3462877Y189394D01*
X3457717Y191363D01*
X3452455Y193041D01*
X3447107Y194420D01*
X3441690Y195498D01*
X3438976Y195881D01*
Y98425D01*
X3425197D01*
Y84646D01*
X3327741D01*
X3328124Y81932D01*
X3329202Y76515D01*
X3330581Y71167D01*
X3332258Y65905D01*
X3334228Y60745D01*
X3336484Y55703D01*
X3339019Y50796D01*
X3341825Y46039D01*
X3344894Y41447D01*
X3348215Y37034D01*
X3351778Y32814D01*
X3355572Y28801D01*
X3359586Y25006D01*
X3363806Y21443D01*
X3368219Y18122D01*
X3372811Y15053D01*
X3376245Y13028D01*
X3374880Y8028D01*
X148742D01*
X147377Y13028D01*
X150811Y15053D01*
X155403Y18122D01*
X159816Y21443D01*
X164036Y25006D01*
X168050Y28801D01*
X171844Y32814D01*
X175407Y37034D01*
X178728Y41447D01*
X181797Y46039D01*
X184603Y50796D01*
X187138Y55703D01*
X189394Y60745D01*
X191363Y65905D01*
X193041Y71167D01*
X194420Y76515D01*
X195498Y81932D01*
X195881Y84646D01*
X98425D01*
Y98425D01*
X84646D01*
Y195881D01*
X81932Y195498D01*
X76515Y194420D01*
X71167Y193041D01*
X65905Y191363D01*
X60745Y189394D01*
X55703Y187138D01*
X50796Y184603D01*
X46039Y181797D01*
X41447Y178728D01*
X37034Y175407D01*
X32814Y171844D01*
X28801Y168050D01*
X25006Y164036D01*
X21443Y159816D01*
X18122Y155403D01*
X15053Y150811D01*
X13028Y147377D01*
X8028Y148742D01*
Y1367006D01*
X13028Y1368371D01*
X15053Y1364937D01*
X18122Y1360345D01*
X21443Y1355932D01*
X25006Y1351712D01*
X28801Y1347698D01*
X32814Y1343904D01*
X37034Y1340341D01*
X41447Y1337020D01*
X46039Y1333951D01*
X50796Y1331145D01*
X55703Y1328610D01*
X60745Y1326354D01*
X65905Y1324384D01*
X71167Y1322707D01*
X76515Y1321328D01*
X81932Y1320250D01*
X84646Y1319867D01*
Y1417323D01*
Y1514778D01*
X81932Y1514395D01*
X76515Y1513318D01*
X71167Y1511938D01*
X65905Y1510261D01*
X60745Y1508292D01*
X55703Y1506036D01*
X50796Y1503501D01*
X46039Y1500695D01*
X41447Y1497626D01*
X37034Y1494305D01*
X32814Y1490742D01*
X28801Y1486947D01*
X25006Y1482934D01*
X21443Y1478714D01*
X18122Y1474301D01*
X15053Y1469709D01*
X13028Y1466275D01*
X8028Y1467639D01*
Y1697032D01*
X3516597Y1697032D01*
Y1465737D01*
D02*
G37*
%LPC*%
G36*
X1785433Y1674407D02*
Y1568898D01*
X1890943D01*
X1890468Y1572743D01*
X1889460Y1578551D01*
X1888169Y1584304D01*
X1886596Y1589986D01*
X1884747Y1595584D01*
X1882625Y1601084D01*
X1880236Y1606474D01*
X1877585Y1611740D01*
X1874679Y1616870D01*
X1871525Y1621850D01*
X1868131Y1626670D01*
X1864504Y1631318D01*
X1860653Y1635782D01*
X1856588Y1640052D01*
X1852318Y1644117D01*
X1847854Y1647968D01*
X1843206Y1651595D01*
X1838386Y1654990D01*
X1833405Y1658144D01*
X1828275Y1661050D01*
X1823009Y1663701D01*
X1817620Y1666090D01*
X1812119Y1668212D01*
X1806521Y1670061D01*
X1800839Y1671633D01*
X1795087Y1672925D01*
X1789278Y1673933D01*
X1785433Y1674407D01*
D02*
G37*
G36*
X1757874D02*
X1754029Y1673933D01*
X1748220Y1672925D01*
X1742468Y1671633D01*
X1736786Y1670061D01*
X1731188Y1668212D01*
X1725688Y1666090D01*
X1720298Y1663701D01*
X1715032Y1661050D01*
X1709902Y1658144D01*
X1704921Y1654990D01*
X1700101Y1651595D01*
X1695453Y1647968D01*
X1690989Y1644117D01*
X1686719Y1640052D01*
X1682654Y1635782D01*
X1678803Y1631318D01*
X1675176Y1626670D01*
X1671782Y1621850D01*
X1668628Y1616870D01*
X1665722Y1611740D01*
X1663071Y1606474D01*
X1660682Y1601084D01*
X1658560Y1595584D01*
X1656711Y1589986D01*
X1655138Y1584304D01*
X1653847Y1578551D01*
X1652839Y1572743D01*
X1652364Y1568898D01*
X1757874D01*
Y1674407D01*
D02*
G37*
G36*
X434984Y1461591D02*
X419236D01*
Y1446140D01*
X424080Y1446453D01*
X426246Y1446797D01*
X428017Y1447217D01*
X429395Y1447713D01*
X430380Y1448285D01*
X430970Y1448934D01*
X431167Y1449659D01*
Y1445842D01*
X434984D01*
Y1461591D01*
D02*
G37*
G36*
X1890943Y1541339D02*
X1785433D01*
Y1435829D01*
X1789278Y1436303D01*
X1795087Y1437311D01*
X1800839Y1438603D01*
X1806521Y1440175D01*
X1812119Y1442025D01*
X1817620Y1444146D01*
X1823009Y1446535D01*
X1828275Y1449186D01*
X1833405Y1452092D01*
X1838386Y1455246D01*
X1843206Y1458641D01*
X1847854Y1462268D01*
X1852318Y1466119D01*
X1856588Y1470184D01*
X1860653Y1474454D01*
X1864504Y1478918D01*
X1868131Y1483566D01*
X1871525Y1488386D01*
X1874679Y1493367D01*
X1877585Y1498496D01*
X1880236Y1503762D01*
X1882625Y1509152D01*
X1884747Y1514653D01*
X1886596Y1520251D01*
X1888169Y1525933D01*
X1889460Y1531685D01*
X1890468Y1537494D01*
X1890943Y1541339D01*
D02*
G37*
G36*
X1757874D02*
X1652364D01*
X1652839Y1537494D01*
X1653847Y1531685D01*
X1655138Y1525933D01*
X1656711Y1520251D01*
X1658560Y1514653D01*
X1660682Y1509152D01*
X1663071Y1503762D01*
X1665722Y1498496D01*
X1668628Y1493367D01*
X1671782Y1488386D01*
X1675176Y1483566D01*
X1678803Y1478918D01*
X1682654Y1474454D01*
X1686719Y1470184D01*
X1690989Y1466119D01*
X1695453Y1462268D01*
X1700101Y1458641D01*
X1704921Y1455246D01*
X1709902Y1452092D01*
X1715032Y1449186D01*
X1720298Y1446535D01*
X1725688Y1444146D01*
X1731188Y1442025D01*
X1736786Y1440175D01*
X1742468Y1438603D01*
X1748220Y1437311D01*
X1754029Y1436303D01*
X1757874Y1435829D01*
Y1541339D01*
D02*
G37*
G36*
X2002165Y1670661D02*
X1999958Y1670537D01*
X1997778Y1670167D01*
X1995654Y1669554D01*
X1993611Y1668708D01*
X1991676Y1667639D01*
X1989873Y1666360D01*
X1988224Y1664886D01*
X1986751Y1663238D01*
X1985471Y1661434D01*
X1984402Y1659499D01*
X1983556Y1657457D01*
X1983551Y1657439D01*
X1965083Y1638972D01*
X1963552Y1637226D01*
X1962262Y1635295D01*
X1961235Y1633212D01*
X1960488Y1631013D01*
X1960035Y1628735D01*
X1959883Y1626417D01*
Y1532354D01*
X1600524Y1172995D01*
X1598992Y1171248D01*
X1597702Y1169317D01*
X1596675Y1167235D01*
X1595928Y1165035D01*
X1595475Y1162758D01*
X1595323Y1160440D01*
Y799552D01*
X1593572Y798827D01*
X1591637Y797757D01*
X1589833Y796478D01*
X1588185Y795004D01*
X1586711Y793356D01*
X1585432Y791553D01*
X1584362Y789617D01*
X1583516Y787575D01*
X1582904Y785450D01*
X1582534Y783270D01*
X1582410Y781063D01*
X1582534Y778856D01*
X1582904Y776676D01*
X1583516Y774551D01*
X1584362Y772509D01*
X1585432Y770573D01*
X1586711Y768770D01*
X1588185Y767122D01*
X1589833Y765648D01*
X1591637Y764369D01*
X1593572Y763299D01*
X1595614Y762453D01*
X1597739Y761841D01*
X1599918Y761471D01*
X1602126Y761347D01*
X1604333Y761471D01*
X1606513Y761841D01*
X1608638Y762453D01*
X1610680Y763299D01*
X1612616Y764369D01*
X1612974Y764623D01*
X1617063Y763653D01*
X1618486Y762578D01*
X1618871Y761244D01*
X1619717Y759201D01*
X1620786Y757266D01*
X1622066Y755463D01*
X1623539Y753815D01*
X1625188Y752341D01*
X1626991Y751062D01*
X1628926Y749992D01*
X1630968Y749146D01*
X1633093Y748534D01*
X1635273Y748164D01*
X1637480Y748040D01*
X1639688Y748164D01*
X1641868Y748534D01*
X1643992Y749146D01*
X1644549Y749185D01*
X1648523Y747751D01*
X1649966Y746452D01*
X1650432Y745325D01*
X1651502Y743390D01*
X1652781Y741587D01*
X1654255Y739938D01*
X1655903Y738465D01*
X1657707Y737186D01*
X1659641Y736116D01*
X1661684Y735270D01*
X1663809Y734658D01*
X1665988Y734288D01*
X1668196Y734164D01*
X1670403Y734288D01*
X1672583Y734658D01*
X1674708Y735270D01*
X1674969Y735378D01*
X1679092Y733253D01*
X1679969Y732182D01*
Y688363D01*
X1602120Y610514D01*
X1601648Y609938D01*
X1601163Y609356D01*
X1601152Y609334D01*
X1601136Y609315D01*
X1600783Y608654D01*
X1600424Y607992D01*
X1600417Y607969D01*
X1600405Y607947D01*
X1600188Y607232D01*
X1599964Y606511D01*
X1599962Y606486D01*
X1599955Y606463D01*
X1599882Y605721D01*
X1599803Y604968D01*
X1599316Y525655D01*
X1506573Y432912D01*
X940685D01*
X939141Y432760D01*
X937657Y432310D01*
X936289Y431579D01*
X935090Y430595D01*
X812408Y307912D01*
X448400Y307912D01*
X352597Y403715D01*
X352597Y962480D01*
X352445Y964024D01*
X351995Y965508D01*
X351263Y966876D01*
X350279Y968075D01*
X299295Y1019059D01*
X298096Y1020043D01*
X296728Y1020774D01*
X295244Y1021225D01*
X293700Y1021377D01*
X273583Y1021377D01*
X272039Y1021225D01*
X271691Y1021119D01*
X270882Y1021928D01*
X267988Y1019060D01*
X267339Y1018410D01*
X209090Y960161D01*
X208106Y958962D01*
X207375Y957594D01*
X206925Y956110D01*
X206773Y954567D01*
X206773Y307362D01*
X206925Y305819D01*
X207375Y304334D01*
X208106Y302966D01*
X209090Y301767D01*
X356452Y154405D01*
X357651Y153421D01*
X359019Y152690D01*
X360503Y152240D01*
X362047Y152088D01*
X921685Y152088D01*
X923229Y152240D01*
X924713Y152690D01*
X926081Y153421D01*
X927280Y154405D01*
X998962Y226088D01*
X1371458Y226088D01*
Y208138D01*
X1371449Y208121D01*
X1370603Y206079D01*
X1369991Y203954D01*
X1369621Y201774D01*
X1369497Y199567D01*
X1369621Y197359D01*
X1369991Y195180D01*
X1370603Y193055D01*
X1371449Y191012D01*
X1372519Y189077D01*
X1373798Y187274D01*
X1375271Y185626D01*
X1376920Y184152D01*
X1378723Y182873D01*
X1380658Y181803D01*
X1382701Y180957D01*
X1384825Y180345D01*
X1387005Y179975D01*
X1389213Y179851D01*
X1391420Y179975D01*
X1393600Y180345D01*
X1395724Y180957D01*
X1397767Y181803D01*
X1399702Y182873D01*
X1401505Y184152D01*
X1403154Y185626D01*
X1404627Y187274D01*
X1405907Y189077D01*
X1406976Y191012D01*
X1407822Y193055D01*
X1408434Y195180D01*
X1408805Y197359D01*
X1408929Y199567D01*
X1408805Y201774D01*
X1408434Y203954D01*
X1407822Y206079D01*
X1406976Y208121D01*
X1406967Y208138D01*
Y226088D01*
X1873649Y226088D01*
X1992163Y108205D01*
X1992163Y108204D01*
X1992164Y108204D01*
X1992166Y108202D01*
X1992779Y107702D01*
X1993365Y107223D01*
X1993366Y107222D01*
X1993368Y107221D01*
X1994075Y106845D01*
X1994734Y106495D01*
X1994736Y106494D01*
X1994738Y106493D01*
X1995492Y106267D01*
X1996219Y106048D01*
X1996221Y106048D01*
X1996223Y106047D01*
X1997032Y105970D01*
X1997763Y105899D01*
X2201956Y106342D01*
X2202716Y106418D01*
X2203483Y106494D01*
X2203491Y106497D01*
X2203499Y106497D01*
X2204218Y106717D01*
X2204967Y106944D01*
X2204975Y106948D01*
X2204983Y106951D01*
X2205664Y107317D01*
X2206335Y107675D01*
X2206341Y107681D01*
X2206349Y107685D01*
X2206956Y108186D01*
X2207534Y108659D01*
X2273280Y174405D01*
X2274264Y175604D01*
X2274995Y176972D01*
X2275445Y178456D01*
X2275597Y180000D01*
X2275597Y220000D01*
X2275445Y221543D01*
X2274995Y223028D01*
X2274264Y224395D01*
X2273280Y225594D01*
X2230280Y268595D01*
X2229081Y269579D01*
X2227713Y270310D01*
X2226229Y270760D01*
X2224686Y270912D01*
X2132836Y270912D01*
X1715478Y688270D01*
Y781999D01*
X1716005Y782589D01*
X1717284Y784392D01*
X1718354Y786327D01*
X1719200Y788370D01*
X1719812Y790495D01*
X1720182Y792674D01*
X1720306Y794882D01*
X1720182Y797089D01*
X1719812Y799269D01*
X1719200Y801394D01*
X1718354Y803436D01*
X1717284Y805371D01*
X1716005Y807175D01*
X1715478Y807764D01*
Y1118285D01*
X2004124Y1406931D01*
X2192650D01*
X2192666Y1406922D01*
X2194709Y1406076D01*
X2196833Y1405464D01*
X2199013Y1405093D01*
X2201220Y1404969D01*
X2203428Y1405093D01*
X2205608Y1405464D01*
X2207732Y1406076D01*
X2209775Y1406922D01*
X2211710Y1407991D01*
X2213513Y1409271D01*
X2215162Y1410744D01*
X2216635Y1412392D01*
X2217914Y1414196D01*
X2218984Y1416131D01*
X2219830Y1418173D01*
X2220442Y1420298D01*
X2220812Y1422478D01*
X2220936Y1424685D01*
X2220812Y1426893D01*
X2220442Y1429072D01*
X2219830Y1431197D01*
X2219282Y1432521D01*
X2220141Y1434719D01*
X2222331Y1437521D01*
X2229224D01*
X2229241Y1437512D01*
X2231283Y1436666D01*
X2233408Y1436054D01*
X2235588Y1435684D01*
X2237795Y1435560D01*
X2240003Y1435684D01*
X2242182Y1436054D01*
X2244307Y1436666D01*
X2246350Y1437512D01*
X2248285Y1438582D01*
X2250088Y1439861D01*
X2251736Y1441334D01*
X2253210Y1442983D01*
X2254489Y1444786D01*
X2255559Y1446721D01*
X2256405Y1448764D01*
X2256479Y1449020D01*
X2256802Y1449389D01*
X2258092Y1451320D01*
X2259120Y1453403D01*
X2259866Y1455602D01*
X2260319Y1457880D01*
X2260471Y1460197D01*
Y1537571D01*
X2260480Y1537587D01*
X2261326Y1539630D01*
X2261938Y1541755D01*
X2262309Y1543934D01*
X2262432Y1546142D01*
X2262309Y1548349D01*
X2261938Y1550529D01*
X2261326Y1552653D01*
X2260480Y1554696D01*
X2259410Y1556631D01*
X2258131Y1558434D01*
X2256658Y1560083D01*
X2255009Y1561556D01*
X2253206Y1562836D01*
X2251271Y1563905D01*
X2249228Y1564751D01*
X2247104Y1565363D01*
X2244924Y1565734D01*
X2242716Y1565858D01*
X2240509Y1565734D01*
X2238329Y1565363D01*
X2236205Y1564751D01*
X2234162Y1563905D01*
X2232227Y1562836D01*
X2230424Y1561556D01*
X2228775Y1560083D01*
X2227302Y1558434D01*
X2226023Y1556631D01*
X2224953Y1554696D01*
X2224107Y1552653D01*
X2223495Y1550529D01*
X2223124Y1548349D01*
X2223001Y1546142D01*
X2223124Y1543934D01*
X2223495Y1541755D01*
X2224107Y1539630D01*
X2224953Y1537587D01*
X2224962Y1537571D01*
Y1473030D01*
X1998808D01*
X1996894Y1477649D01*
X2102991Y1583746D01*
X2103559Y1583910D01*
X2105602Y1584756D01*
X2107537Y1585826D01*
X2109340Y1587105D01*
X2110988Y1588578D01*
X2112462Y1590227D01*
X2113741Y1592030D01*
X2114811Y1593965D01*
X2115657Y1596008D01*
X2116269Y1598132D01*
X2116639Y1600312D01*
X2116763Y1602520D01*
X2116639Y1604727D01*
X2116269Y1606907D01*
X2115657Y1609032D01*
X2114811Y1611074D01*
X2113741Y1613009D01*
X2112462Y1614812D01*
X2110988Y1616461D01*
X2109340Y1617934D01*
X2107537Y1619214D01*
X2105602Y1620283D01*
X2103559Y1621129D01*
X2101434Y1621741D01*
X2099255Y1622112D01*
X2097047Y1622236D01*
X2094840Y1622112D01*
X2092660Y1621741D01*
X2090535Y1621129D01*
X2088493Y1620283D01*
X2086558Y1619214D01*
X2084755Y1617934D01*
X2083106Y1616461D01*
X2081633Y1614812D01*
X2080353Y1613009D01*
X2079284Y1611074D01*
X2078705Y1609678D01*
X2000012Y1530984D01*
X1995392Y1532898D01*
Y1619063D01*
X2008659Y1632330D01*
X2008677Y1632335D01*
X2010720Y1633181D01*
X2012655Y1634251D01*
X2014458Y1635530D01*
X2016107Y1637004D01*
X2017580Y1638652D01*
X2018859Y1640455D01*
X2019929Y1642390D01*
X2020775Y1644433D01*
X2021387Y1646558D01*
X2021757Y1648737D01*
X2021881Y1650945D01*
X2021757Y1653152D01*
X2021387Y1655332D01*
X2020775Y1657457D01*
X2019929Y1659499D01*
X2018859Y1661434D01*
X2017580Y1663238D01*
X2016107Y1664886D01*
X2014458Y1666360D01*
X2012655Y1667639D01*
X2010720Y1668708D01*
X2008677Y1669554D01*
X2006553Y1670167D01*
X2004373Y1670537D01*
X2002165Y1670661D01*
D02*
G37*
G36*
X3411417Y1514778D02*
X3408704Y1514395D01*
X3403287Y1513318D01*
X3397939Y1511938D01*
X3392676Y1510261D01*
X3387516Y1508292D01*
X3382475Y1506036D01*
X3377568Y1503501D01*
X3372811Y1500695D01*
X3368219Y1497626D01*
X3363806Y1494305D01*
X3359586Y1490742D01*
X3355572Y1486947D01*
X3351778Y1482934D01*
X3348215Y1478714D01*
X3344894Y1474301D01*
X3341825Y1469709D01*
X3339019Y1464952D01*
X3336484Y1460045D01*
X3334228Y1455003D01*
X3332258Y1449843D01*
X3330581Y1444581D01*
X3329202Y1439233D01*
X3328124Y1433816D01*
X3327741Y1431102D01*
X3411417D01*
Y1514778D01*
D02*
G37*
G36*
X112205D02*
Y1431102D01*
X195881D01*
X195498Y1433816D01*
X194420Y1439233D01*
X193041Y1444581D01*
X191363Y1449843D01*
X189394Y1455003D01*
X187138Y1460045D01*
X184603Y1464952D01*
X181797Y1469709D01*
X178728Y1474301D01*
X175407Y1478714D01*
X171844Y1482934D01*
X168050Y1486947D01*
X164036Y1490742D01*
X159816Y1494305D01*
X155403Y1497626D01*
X150811Y1500695D01*
X146054Y1503501D01*
X141147Y1506036D01*
X136106Y1508292D01*
X130946Y1510261D01*
X125683Y1511938D01*
X120335Y1513318D01*
X114918Y1514395D01*
X112205Y1514778D01*
D02*
G37*
G36*
X470417Y1461591D02*
X454669D01*
Y1436000D01*
X444827D01*
Y1426158D01*
X431167D01*
Y1422341D01*
X430970Y1423066D01*
X430380Y1423715D01*
X429395Y1424287D01*
X428017Y1424783D01*
X426246Y1425203D01*
X424080Y1425547D01*
X421521Y1425814D01*
X419236Y1425925D01*
Y1410409D01*
X423173D01*
Y1405168D01*
X423147Y1404724D01*
X422857Y1403047D01*
X422353Y1401294D01*
X421612Y1399448D01*
X420611Y1397502D01*
X419333Y1395462D01*
X417760Y1393330D01*
X415886Y1391120D01*
X413701Y1388839D01*
X411137Y1386436D01*
X398503Y1375168D01*
X395457Y1372622D01*
X392413Y1370398D01*
X389270Y1368411D01*
X386019Y1366652D01*
X382659Y1365121D01*
X379181Y1363813D01*
X375576Y1362728D01*
X371840Y1361866D01*
X367964Y1361227D01*
X363714Y1360793D01*
X363637Y1360777D01*
X363381Y1360766D01*
X360102Y1360334D01*
X356873Y1359618D01*
X353719Y1358624D01*
X350663Y1357358D01*
X347730Y1355831D01*
X344941Y1354054D01*
X342317Y1352041D01*
X339878Y1349806D01*
X337644Y1347368D01*
X335631Y1344744D01*
X333854Y1341955D01*
X332327Y1339022D01*
X331061Y1335966D01*
X330067Y1332812D01*
X329351Y1329583D01*
X328919Y1326304D01*
X328775Y1323000D01*
X328919Y1319696D01*
X329351Y1316417D01*
X330067Y1313188D01*
X331061Y1310034D01*
X332327Y1306978D01*
X333854Y1304045D01*
X335631Y1301256D01*
X337644Y1298632D01*
X339878Y1296194D01*
X342317Y1293959D01*
X344941Y1291946D01*
X347730Y1290169D01*
X350663Y1288642D01*
X353719Y1287376D01*
X356873Y1286382D01*
X360102Y1285666D01*
X363381Y1285234D01*
X366685Y1285090D01*
X369989Y1285234D01*
X373268Y1285666D01*
X376497Y1286382D01*
X379651Y1287376D01*
X382707Y1288642D01*
X385640Y1290169D01*
X388429Y1291946D01*
X391053Y1293959D01*
X393491Y1296194D01*
X395726Y1298632D01*
X397739Y1301256D01*
X399516Y1304045D01*
X401043Y1306978D01*
X402309Y1310034D01*
X403303Y1313188D01*
X403778Y1315328D01*
X403825Y1315456D01*
X403848Y1315603D01*
X403893Y1315743D01*
X404809Y1319915D01*
X405885Y1323693D01*
X407167Y1327308D01*
X408656Y1330765D01*
X410351Y1334071D01*
X412256Y1337235D01*
X414372Y1340264D01*
X416705Y1343160D01*
X419261Y1345931D01*
X422138Y1348667D01*
X434799Y1359959D01*
X437501Y1362253D01*
X440078Y1364216D01*
X442595Y1365915D01*
X445050Y1367355D01*
X447438Y1368545D01*
X449760Y1369495D01*
X452018Y1370216D01*
X454216Y1370719D01*
X456367Y1371015D01*
X456891Y1371039D01*
X466480D01*
Y1371039D01*
X467166Y1371890D01*
X530157D01*
Y1444724D01*
X470417D01*
Y1461591D01*
D02*
G37*
G36*
X3411417Y1403543D02*
X3327741D01*
X3328124Y1400830D01*
X3329202Y1395412D01*
X3330581Y1390064D01*
X3332258Y1384802D01*
X3334228Y1379642D01*
X3336484Y1374601D01*
X3339019Y1369694D01*
X3341825Y1364937D01*
X3344894Y1360345D01*
X3348215Y1355932D01*
X3351778Y1351712D01*
X3355572Y1347698D01*
X3359586Y1343904D01*
X3363806Y1340341D01*
X3368219Y1337020D01*
X3372811Y1333951D01*
X3377568Y1331145D01*
X3382475Y1328610D01*
X3387516Y1326354D01*
X3392676Y1324384D01*
X3397939Y1322707D01*
X3403287Y1321328D01*
X3408704Y1320250D01*
X3411417Y1319867D01*
Y1403543D01*
D02*
G37*
G36*
X195881D02*
X112205D01*
Y1319867D01*
X114918Y1320250D01*
X120335Y1321328D01*
X125683Y1322707D01*
X130946Y1324384D01*
X136106Y1326354D01*
X141147Y1328610D01*
X146054Y1331145D01*
X150811Y1333951D01*
X155403Y1337020D01*
X159816Y1340341D01*
X164036Y1343904D01*
X168050Y1347698D01*
X171844Y1351712D01*
X175407Y1355932D01*
X178728Y1360345D01*
X181797Y1364937D01*
X184603Y1369694D01*
X187138Y1374601D01*
X189394Y1379642D01*
X191363Y1384802D01*
X193041Y1390064D01*
X194420Y1395412D01*
X195498Y1400830D01*
X195881Y1403543D01*
D02*
G37*
G36*
X566685Y1360910D02*
X563381Y1360766D01*
X560102Y1360334D01*
X556873Y1359618D01*
X553719Y1358624D01*
X550663Y1357358D01*
X547730Y1355831D01*
X544941Y1354054D01*
X542317Y1352041D01*
X539879Y1349806D01*
X537644Y1347368D01*
X535631Y1344744D01*
X533854Y1341955D01*
X532327Y1339022D01*
X531061Y1335966D01*
X530067Y1332812D01*
X529351Y1329583D01*
X528919Y1326304D01*
X528775Y1323000D01*
X528919Y1319696D01*
X529351Y1316417D01*
X530067Y1313188D01*
X531061Y1310034D01*
X532327Y1306978D01*
X533854Y1304045D01*
X535631Y1301256D01*
X537644Y1298632D01*
X539879Y1296194D01*
X542317Y1293959D01*
X544941Y1291946D01*
X547730Y1290169D01*
X550663Y1288642D01*
X553719Y1287376D01*
X556873Y1286382D01*
X560102Y1285666D01*
X563381Y1285234D01*
X566685Y1285090D01*
X569989Y1285234D01*
X573268Y1285666D01*
X576497Y1286382D01*
X579651Y1287376D01*
X582707Y1288642D01*
X585640Y1290169D01*
X588429Y1291946D01*
X591053Y1293959D01*
X593491Y1296194D01*
X595726Y1298632D01*
X597739Y1301256D01*
X599516Y1304045D01*
X601043Y1306978D01*
X602309Y1310034D01*
X603303Y1313188D01*
X604019Y1316417D01*
X604451Y1319696D01*
X604595Y1323000D01*
X604451Y1326304D01*
X604019Y1329583D01*
X603303Y1332812D01*
X602309Y1335966D01*
X601043Y1339022D01*
X599516Y1341955D01*
X597739Y1344744D01*
X595726Y1347368D01*
X593491Y1349806D01*
X591053Y1352041D01*
X588429Y1354054D01*
X585640Y1355831D01*
X582707Y1357358D01*
X579651Y1358624D01*
X576497Y1359618D01*
X573268Y1360334D01*
X569989Y1360766D01*
X566685Y1360910D01*
D02*
G37*
G36*
X466685D02*
X463381Y1360766D01*
X460102Y1360334D01*
X456873Y1359618D01*
X453719Y1358624D01*
X450663Y1357358D01*
X447730Y1355831D01*
X444941Y1354054D01*
X442317Y1352041D01*
X439878Y1349806D01*
X437644Y1347368D01*
X435631Y1344744D01*
X433854Y1341955D01*
X432327Y1339022D01*
X431061Y1335966D01*
X430067Y1332812D01*
X429351Y1329583D01*
X429213Y1328537D01*
X429175Y1328413D01*
X429161Y1328265D01*
X429123Y1328122D01*
X428447Y1323904D01*
X427589Y1320072D01*
X426514Y1316389D01*
X425226Y1312854D01*
X423721Y1309455D01*
X422001Y1306188D01*
X420060Y1303044D01*
X417897Y1300019D01*
X415503Y1297107D01*
X412785Y1294209D01*
X403131Y1284554D01*
X401599Y1282808D01*
X400309Y1280877D01*
X399282Y1278794D01*
X398536Y1276595D01*
X398082Y1274317D01*
X397930Y1272000D01*
Y1257864D01*
X396050Y1256457D01*
X392930Y1255551D01*
X391280Y1256852D01*
X388548Y1258677D01*
X385682Y1260283D01*
X382698Y1261658D01*
X380464Y1262482D01*
Y1223000D01*
Y1183518D01*
X382698Y1184342D01*
X385682Y1185717D01*
X388548Y1187323D01*
X391280Y1189148D01*
X392930Y1190449D01*
X396050Y1189543D01*
X397930Y1188136D01*
Y795571D01*
X397921Y795554D01*
X397075Y793512D01*
X396463Y791387D01*
X396093Y789207D01*
X395969Y787000D01*
X396093Y784793D01*
X396463Y782613D01*
X397075Y780488D01*
X397921Y778446D01*
X398991Y776510D01*
X400270Y774707D01*
X401744Y773059D01*
X403392Y771585D01*
X405195Y770306D01*
X407130Y769236D01*
X409173Y768390D01*
X411298Y767778D01*
X413478Y767408D01*
X415685Y767284D01*
X417892Y767408D01*
X420072Y767778D01*
X422197Y768390D01*
X424240Y769236D01*
X426175Y770306D01*
X427978Y771585D01*
X429626Y773059D01*
X431100Y774707D01*
X432379Y776510D01*
X433449Y778446D01*
X434295Y780488D01*
X434907Y782613D01*
X435277Y784793D01*
X435401Y787000D01*
X435277Y789207D01*
X434907Y791387D01*
X434295Y793512D01*
X433449Y795554D01*
X433440Y795571D01*
Y1195766D01*
X438440Y1197386D01*
X439008Y1196601D01*
X441111Y1193284D01*
X442954Y1189920D01*
X444543Y1186509D01*
X445883Y1183042D01*
X446977Y1179515D01*
X447828Y1175920D01*
X448437Y1172250D01*
X448803Y1168499D01*
X448930Y1164532D01*
Y894571D01*
X448921Y894554D01*
X448075Y892512D01*
X447463Y890387D01*
X447093Y888207D01*
X446969Y886000D01*
X447093Y883793D01*
X447463Y881613D01*
X448075Y879488D01*
X448921Y877446D01*
X449991Y875510D01*
X451270Y873707D01*
X452744Y872059D01*
X454392Y870585D01*
X456195Y869306D01*
X458130Y868236D01*
X460173Y867390D01*
X462298Y866778D01*
X464478Y866408D01*
X466685Y866284D01*
X468892Y866408D01*
X471072Y866778D01*
X473197Y867390D01*
X475240Y868236D01*
X477175Y869306D01*
X478978Y870585D01*
X480626Y872059D01*
X482100Y873707D01*
X483379Y875510D01*
X484449Y877446D01*
X485295Y879488D01*
X485907Y881613D01*
X486277Y883793D01*
X486401Y886000D01*
X486277Y888207D01*
X485907Y890387D01*
X485295Y892512D01*
X484449Y894554D01*
X484440Y894571D01*
Y1164532D01*
X484567Y1168499D01*
X484933Y1172250D01*
X485542Y1175920D01*
X486394Y1179516D01*
X487487Y1183042D01*
X488827Y1186509D01*
X490416Y1189920D01*
X492260Y1193284D01*
X494362Y1196601D01*
X496867Y1200062D01*
X496942Y1200190D01*
X497036Y1200304D01*
X497097Y1200419D01*
X497739Y1201256D01*
X499516Y1204045D01*
X501043Y1206978D01*
X502309Y1210034D01*
X503303Y1213188D01*
X504019Y1216417D01*
X504451Y1219696D01*
X504595Y1223000D01*
X504451Y1226304D01*
X504019Y1229583D01*
X503303Y1232812D01*
X502309Y1235966D01*
X501043Y1239022D01*
X499516Y1241955D01*
X497739Y1244744D01*
X495726Y1247368D01*
X493491Y1249806D01*
X491053Y1252041D01*
X488429Y1254054D01*
X485640Y1255831D01*
X482707Y1257358D01*
X479651Y1258624D01*
X476497Y1259618D01*
X473268Y1260334D01*
X469989Y1260766D01*
X466685Y1260910D01*
X463381Y1260766D01*
X460102Y1260334D01*
X456873Y1259618D01*
X453719Y1258624D01*
X450663Y1257358D01*
X447730Y1255831D01*
X444941Y1254054D01*
X442317Y1252041D01*
X439878Y1249806D01*
X438440Y1248236D01*
X435241Y1248931D01*
X433440Y1250102D01*
Y1264646D01*
X437894Y1269100D01*
X440791Y1271818D01*
X443703Y1274211D01*
X446729Y1276375D01*
X449872Y1278315D01*
X453140Y1280036D01*
X456539Y1281541D01*
X460074Y1282829D01*
X463757Y1283904D01*
X467588Y1284762D01*
X471807Y1285438D01*
X471950Y1285476D01*
X472098Y1285491D01*
X472222Y1285528D01*
X473268Y1285666D01*
X476497Y1286382D01*
X479651Y1287376D01*
X482707Y1288642D01*
X485640Y1290169D01*
X488429Y1291946D01*
X491053Y1293959D01*
X493491Y1296194D01*
X495726Y1298632D01*
X497739Y1301256D01*
X499516Y1304045D01*
X501043Y1306978D01*
X502309Y1310034D01*
X503303Y1313188D01*
X504019Y1316417D01*
X504451Y1319696D01*
X504595Y1323000D01*
X504451Y1326304D01*
X504019Y1329583D01*
X503303Y1332812D01*
X502309Y1335966D01*
X501043Y1339022D01*
X499516Y1341955D01*
X497739Y1344744D01*
X495726Y1347368D01*
X493491Y1349806D01*
X491053Y1352041D01*
X488429Y1354054D01*
X485640Y1355831D01*
X482707Y1357358D01*
X479651Y1358624D01*
X476497Y1359618D01*
X473268Y1360334D01*
X469989Y1360766D01*
X466685Y1360910D01*
D02*
G37*
G36*
X352906Y1262482D02*
X350672Y1261658D01*
X347688Y1260283D01*
X344822Y1258677D01*
X342090Y1256852D01*
X339510Y1254818D01*
X337097Y1252588D01*
X334867Y1250175D01*
X332833Y1247595D01*
X331008Y1244863D01*
X329402Y1241996D01*
X328027Y1239013D01*
X327203Y1236780D01*
X339776D01*
X339887Y1236873D01*
X340600Y1237818D01*
Y1236780D01*
X352906D01*
Y1262482D01*
D02*
G37*
G36*
Y1209220D02*
X340600D01*
Y1208182D01*
X339887Y1209127D01*
X339776Y1209220D01*
X327203D01*
X328027Y1206987D01*
X329402Y1204004D01*
X331008Y1201137D01*
X332833Y1198405D01*
X334867Y1195825D01*
X337097Y1193412D01*
X339510Y1191182D01*
X342090Y1189148D01*
X344822Y1187323D01*
X347688Y1185717D01*
X350672Y1184342D01*
X352906Y1183518D01*
Y1209220D01*
D02*
G37*
G36*
X566685Y1260910D02*
X563381Y1260766D01*
X560102Y1260334D01*
X556873Y1259618D01*
X553719Y1258624D01*
X550663Y1257358D01*
X547730Y1255831D01*
X544941Y1254054D01*
X542317Y1252041D01*
X539879Y1249806D01*
X537644Y1247368D01*
X535631Y1244744D01*
X533854Y1241955D01*
X532327Y1239022D01*
X531061Y1235966D01*
X530067Y1232812D01*
X529351Y1229583D01*
X528919Y1226304D01*
X528775Y1223000D01*
X528919Y1219696D01*
X529351Y1216417D01*
X530067Y1213188D01*
X531061Y1210034D01*
X532327Y1206978D01*
X533854Y1204045D01*
X535631Y1201256D01*
X537644Y1198632D01*
X539879Y1196194D01*
X542317Y1193959D01*
X544941Y1191946D01*
X547730Y1190169D01*
X550663Y1188642D01*
X553719Y1187376D01*
X556873Y1186382D01*
X560102Y1185666D01*
X563381Y1185234D01*
X566685Y1185090D01*
X569989Y1185234D01*
X573268Y1185666D01*
X576497Y1186382D01*
X579651Y1187376D01*
X582707Y1188642D01*
X585640Y1190169D01*
X588429Y1191946D01*
X591053Y1193959D01*
X593491Y1196194D01*
X595726Y1198632D01*
X597739Y1201256D01*
X599516Y1204045D01*
X601043Y1206978D01*
X602309Y1210034D01*
X603303Y1213188D01*
X604019Y1216417D01*
X604451Y1219696D01*
X604595Y1223000D01*
X604451Y1226304D01*
X604019Y1229583D01*
X603303Y1232812D01*
X602309Y1235966D01*
X601043Y1239022D01*
X599516Y1241955D01*
X597739Y1244744D01*
X595726Y1247368D01*
X593491Y1249806D01*
X591053Y1252041D01*
X588429Y1254054D01*
X585640Y1255831D01*
X582707Y1257358D01*
X579651Y1258624D01*
X576497Y1259618D01*
X573268Y1260334D01*
X569989Y1260766D01*
X566685Y1260910D01*
D02*
G37*
G36*
X148783Y1028722D02*
X146084Y1026023D01*
X148783Y1023324D01*
X148131Y1023698D01*
X147255Y1023739D01*
X146154Y1023448D01*
X144829Y1022824D01*
X143279Y1021868D01*
X141505Y1020580D01*
X139506Y1018960D01*
X137895Y1017497D01*
X137824Y1017410D01*
X148783Y1006451D01*
X159919Y1017587D01*
X148783Y1028722D01*
D02*
G37*
G36*
X107465Y1025482D02*
Y1021053D01*
X109623Y1022056D01*
X112237Y1023487D01*
X109698Y1024658D01*
X107465Y1025482D01*
D02*
G37*
G36*
X130337Y1006122D02*
X129274Y1004021D01*
X127613Y1000076D01*
X127511Y999779D01*
X133167D01*
X132343Y1002013D01*
X130968Y1004996D01*
X130337Y1006122D01*
D02*
G37*
G36*
X79906Y1025482D02*
X77672Y1024658D01*
X74689Y1023283D01*
X71822Y1021677D01*
X69090Y1019852D01*
X66510Y1017818D01*
X64097Y1015588D01*
X61867Y1013175D01*
X59833Y1010595D01*
X58008Y1007863D01*
X56402Y1004996D01*
X55027Y1002013D01*
X54203Y999779D01*
X79906D01*
Y1025482D01*
D02*
G37*
G36*
X93685Y1123910D02*
X90381Y1123766D01*
X87102Y1123334D01*
X83873Y1122618D01*
X80719Y1121624D01*
X77663Y1120358D01*
X74730Y1118831D01*
X71941Y1117054D01*
X69317Y1115041D01*
X66879Y1112806D01*
X64644Y1110368D01*
X62631Y1107744D01*
X60854Y1104955D01*
X59327Y1102022D01*
X58061Y1098966D01*
X57067Y1095812D01*
X56351Y1092583D01*
X55919Y1089304D01*
X55775Y1086000D01*
X55919Y1082696D01*
X56351Y1079417D01*
X57067Y1076188D01*
X58061Y1073034D01*
X59327Y1069978D01*
X60854Y1067045D01*
X62631Y1064256D01*
X64644Y1061632D01*
X66879Y1059194D01*
X69317Y1056959D01*
X71941Y1054946D01*
X74730Y1053169D01*
X77663Y1051642D01*
X80719Y1050376D01*
X83873Y1049382D01*
X87102Y1048666D01*
X90381Y1048234D01*
X93685Y1048090D01*
X96989Y1048234D01*
X100268Y1048666D01*
X103497Y1049382D01*
X106651Y1050376D01*
X109707Y1051642D01*
X112640Y1053169D01*
X115429Y1054946D01*
X116266Y1055588D01*
X116381Y1055649D01*
X116495Y1055743D01*
X116623Y1055818D01*
X119243Y1057714D01*
X120755Y1057875D01*
X123041Y1053090D01*
X112593Y1042641D01*
X123518Y1031716D01*
X126722Y1035363D01*
X128010Y1037137D01*
X128966Y1038687D01*
X129589Y1040012D01*
X129881Y1041113D01*
X129839Y1041989D01*
X129466Y1042641D01*
X132165Y1039943D01*
X141823Y1049601D01*
X148783Y1042642D01*
X155743Y1049601D01*
X173838Y1031506D01*
X175758Y1033426D01*
X178021Y1033959D01*
X180662Y1033420D01*
X182697Y1028395D01*
X179014Y1024712D01*
X220772Y982954D01*
X265314Y1027496D01*
X223556Y1069254D01*
X217029Y1062727D01*
X216049Y1061851D01*
X214348Y1060689D01*
X212896Y1059999D01*
X211665Y1059666D01*
X210542Y1059590D01*
X209354Y1059747D01*
X207955Y1060207D01*
X206280Y1061084D01*
X205854Y1061390D01*
X204829Y1062922D01*
X204066Y1064405D01*
X203693Y1065487D01*
X203588Y1066153D01*
X203606Y1066494D01*
X203671Y1066724D01*
X203863Y1067078D01*
X203968Y1067203D01*
X210029Y1073264D01*
X179406Y1103887D01*
X171456Y1095937D01*
X171156Y1096073D01*
X170350Y1096575D01*
X169293Y1097400D01*
X167834Y1098756D01*
X167676Y1098877D01*
X166297Y1100086D01*
X164366Y1101376D01*
X162283Y1102403D01*
X160084Y1103149D01*
X157806Y1103603D01*
X155489Y1103755D01*
X152153D01*
X148186Y1103881D01*
X144435Y1104248D01*
X140765Y1104857D01*
X137169Y1105708D01*
X133643Y1106802D01*
X130176Y1108142D01*
X126765Y1109730D01*
X123401Y1111574D01*
X120085Y1113677D01*
X116623Y1116182D01*
X116495Y1116257D01*
X116381Y1116351D01*
X116266Y1116412D01*
X115429Y1117054D01*
X112640Y1118831D01*
X109707Y1120358D01*
X106651Y1121624D01*
X103497Y1122618D01*
X100268Y1123334D01*
X96989Y1123766D01*
X93685Y1123910D01*
D02*
G37*
G36*
X133167Y972221D02*
X107465D01*
Y946518D01*
X109698Y947342D01*
X112681Y948717D01*
X115548Y950323D01*
X118280Y952148D01*
X120860Y954182D01*
X123273Y956412D01*
X125503Y958825D01*
X127537Y961405D01*
X129362Y964137D01*
X130968Y967004D01*
X132343Y969987D01*
X133167Y972221D01*
D02*
G37*
G36*
X79906D02*
X54203D01*
X55027Y969987D01*
X56402Y967004D01*
X58008Y964137D01*
X59833Y961405D01*
X61867Y958825D01*
X64097Y956412D01*
X66510Y954182D01*
X69090Y952148D01*
X71822Y950323D01*
X74689Y948717D01*
X77672Y947342D01*
X79906Y946518D01*
Y972221D01*
D02*
G37*
G36*
X2385039Y1007101D02*
X2382832Y1006977D01*
X2380652Y1006607D01*
X2378528Y1005995D01*
X2376485Y1005149D01*
X2374550Y1004080D01*
X2372747Y1002800D01*
X2371098Y1001327D01*
X2369625Y999678D01*
X2368345Y997875D01*
X2367276Y995940D01*
X2366430Y993897D01*
X2365818Y991773D01*
X2365447Y989593D01*
X2365323Y987385D01*
X2365447Y985178D01*
X2365818Y982998D01*
X2366430Y980874D01*
X2367276Y978831D01*
X2368345Y976896D01*
X2369258Y975610D01*
Y920551D01*
X2310945D01*
Y911691D01*
X2310896Y911007D01*
X2310631Y909899D01*
X2310294Y909152D01*
X2309881Y908587D01*
X2309280Y908045D01*
X2308322Y907467D01*
X2306876Y906892D01*
X2304880Y906401D01*
X2302328Y906069D01*
X2299099Y905943D01*
X2271209D01*
X2271192Y905952D01*
X2269150Y906799D01*
X2267025Y907411D01*
X2264845Y907781D01*
X2262638Y907905D01*
X2260430Y907781D01*
X2258251Y907411D01*
X2256126Y906799D01*
X2254083Y905952D01*
X2252148Y904883D01*
X2250345Y903604D01*
X2248697Y902130D01*
X2247223Y900482D01*
X2245944Y898678D01*
X2244874Y896744D01*
X2244028Y894701D01*
X2243416Y892576D01*
X2243046Y890396D01*
X2242922Y888189D01*
X2243046Y885981D01*
X2243416Y883802D01*
X2244028Y881677D01*
X2244874Y879635D01*
X2245944Y877699D01*
X2247223Y875896D01*
X2248697Y874248D01*
X2250345Y872774D01*
X2252148Y871495D01*
X2254083Y870426D01*
X2256126Y869579D01*
X2258251Y868967D01*
X2260430Y868597D01*
X2262638Y868473D01*
X2264845Y868597D01*
X2267025Y868967D01*
X2269150Y869579D01*
X2271192Y870426D01*
X2271209Y870434D01*
X2299046D01*
X2302114Y870274D01*
X2304428Y869867D01*
X2306199Y869279D01*
X2307503Y868581D01*
X2308480Y867786D01*
X2309278Y866817D01*
X2309978Y865528D01*
X2310568Y863776D01*
X2310945Y861675D01*
Y847717D01*
X2369258D01*
Y791350D01*
X2368345Y790064D01*
X2367276Y788129D01*
X2366430Y786087D01*
X2365818Y783962D01*
X2365447Y781782D01*
X2365323Y779575D01*
X2365447Y777367D01*
X2365818Y775188D01*
X2366430Y773063D01*
X2367276Y771020D01*
X2368345Y769085D01*
X2369625Y767282D01*
X2371098Y765633D01*
X2372747Y764160D01*
X2374550Y762881D01*
X2376485Y761811D01*
X2378528Y760965D01*
X2380652Y760353D01*
X2382832Y759983D01*
X2385039Y759859D01*
X2387247Y759983D01*
X2389427Y760353D01*
X2391551Y760965D01*
X2393594Y761811D01*
X2395529Y762881D01*
X2397332Y764160D01*
X2398981Y765633D01*
X2400454Y767282D01*
X2401733Y769085D01*
X2402803Y771020D01*
X2403649Y773063D01*
X2404261Y775188D01*
X2404631Y777367D01*
X2404755Y779575D01*
X2404631Y781782D01*
X2404261Y783962D01*
X2403649Y786087D01*
X2402803Y788129D01*
X2401733Y790064D01*
X2400821Y791350D01*
Y847717D01*
X2456614D01*
Y856960D01*
X2456688Y858290D01*
X2457072Y860343D01*
X2457616Y861883D01*
X2458257Y863007D01*
X2459002Y863867D01*
X2459954Y864602D01*
X2461266Y865269D01*
X2463065Y865835D01*
X2465414Y866226D01*
X2468504Y866380D01*
X2475236D01*
X2477554Y866531D01*
X2479832Y866985D01*
X2482031Y867731D01*
X2484114Y868758D01*
X2486045Y870048D01*
X2487791Y871580D01*
X2509053Y892842D01*
X2509071Y892847D01*
X2511114Y893693D01*
X2513049Y894763D01*
X2514852Y896042D01*
X2516500Y897515D01*
X2517974Y899164D01*
X2519253Y900967D01*
X2520323Y902902D01*
X2521169Y904945D01*
X2521781Y907069D01*
X2522151Y909249D01*
X2522275Y911457D01*
X2522151Y913664D01*
X2521781Y915844D01*
X2521169Y917968D01*
X2520323Y920011D01*
X2519253Y921946D01*
X2517974Y923749D01*
X2516500Y925398D01*
X2514852Y926871D01*
X2513049Y928151D01*
X2511114Y929220D01*
X2509071Y930066D01*
X2506946Y930678D01*
X2504767Y931049D01*
X2502559Y931173D01*
X2500352Y931049D01*
X2498172Y930678D01*
X2496047Y930066D01*
X2494005Y929220D01*
X2492070Y928151D01*
X2490266Y926871D01*
X2488618Y925398D01*
X2487144Y923749D01*
X2485865Y921946D01*
X2484796Y920011D01*
X2483950Y917968D01*
X2483944Y917951D01*
X2467912Y901918D01*
X2465414Y902042D01*
X2463064Y902433D01*
X2461266Y902999D01*
X2459954Y903666D01*
X2459003Y904401D01*
X2458257Y905261D01*
X2457616Y906385D01*
X2457072Y907925D01*
X2456688Y909978D01*
X2456614Y911308D01*
Y920551D01*
X2400821D01*
Y975610D01*
X2401733Y976896D01*
X2402803Y978831D01*
X2403649Y980874D01*
X2404261Y982998D01*
X2404631Y985178D01*
X2404755Y987385D01*
X2404631Y989593D01*
X2404261Y991773D01*
X2403649Y993897D01*
X2402803Y995940D01*
X2401733Y997875D01*
X2400454Y999678D01*
X2398981Y1001327D01*
X2397332Y1002800D01*
X2395529Y1004080D01*
X2393594Y1005149D01*
X2391551Y1005995D01*
X2389427Y1006607D01*
X2387247Y1006977D01*
X2385039Y1007101D01*
D02*
G37*
G36*
X1089685Y975467D02*
X1086594Y975332D01*
X1083526Y974928D01*
X1080505Y974258D01*
X1077555Y973328D01*
X1074696Y972144D01*
X1071952Y970715D01*
X1069342Y969053D01*
X1066887Y967169D01*
X1064606Y965079D01*
X1062516Y962798D01*
X1060632Y960343D01*
X1058970Y957733D01*
X1057541Y954989D01*
X1056357Y952130D01*
X1055427Y949179D01*
X1054757Y946159D01*
X1054353Y943091D01*
X1054218Y940000D01*
X1054353Y936909D01*
X1054757Y933841D01*
X1055427Y930821D01*
X1056357Y927870D01*
X1057541Y925011D01*
X1058970Y922267D01*
X1060632Y919657D01*
X1062516Y917202D01*
X1064606Y914921D01*
X1066887Y912831D01*
X1069342Y910947D01*
X1071952Y909285D01*
X1074696Y907856D01*
X1077555Y906672D01*
X1080505Y905742D01*
X1083526Y905072D01*
X1086594Y904668D01*
X1089685Y904533D01*
X1092776Y904668D01*
X1095844Y905072D01*
X1098864Y905742D01*
X1101815Y906672D01*
X1104674Y907856D01*
X1107418Y909285D01*
X1110028Y910947D01*
X1112483Y912831D01*
X1114764Y914921D01*
X1116854Y917202D01*
X1118738Y919657D01*
X1120400Y922267D01*
X1121829Y925011D01*
X1123013Y927870D01*
X1123943Y930821D01*
X1124613Y933841D01*
X1125017Y936909D01*
X1125152Y940000D01*
X1125017Y943091D01*
X1124613Y946159D01*
X1123943Y949179D01*
X1123013Y952130D01*
X1121829Y954989D01*
X1120400Y957733D01*
X1118738Y960343D01*
X1116854Y962798D01*
X1114764Y965079D01*
X1112483Y967169D01*
X1110028Y969053D01*
X1107418Y970715D01*
X1104674Y972144D01*
X1101815Y973328D01*
X1098864Y974258D01*
X1095844Y974928D01*
X1092776Y975332D01*
X1089685Y975467D01*
D02*
G37*
G36*
X1290079Y926024D02*
X1285433Y925267D01*
X1283226Y925143D01*
X1281046Y924773D01*
X1278921Y924161D01*
X1276879Y923315D01*
X1274944Y922245D01*
X1273140Y920966D01*
X1271492Y919492D01*
X1270018Y917844D01*
X1268739Y916041D01*
X1267669Y914106D01*
X1266823Y912063D01*
X1266211Y909938D01*
X1265841Y907759D01*
X1265717Y905551D01*
X1265841Y903344D01*
X1266211Y901164D01*
X1266823Y899039D01*
X1267669Y896997D01*
X1268739Y895062D01*
X1270018Y893259D01*
X1271492Y891610D01*
X1273140Y890137D01*
X1274944Y888857D01*
X1276879Y887788D01*
X1278921Y886942D01*
X1281046Y886330D01*
X1283226Y885959D01*
X1285433Y885835D01*
X1289430Y882541D01*
X1290079Y881302D01*
Y863032D01*
X1362913D01*
Y926024D01*
X1290079D01*
X1290079Y926024D01*
D02*
G37*
G36*
X784656Y1200716D02*
X782448Y1200592D01*
X780269Y1200222D01*
X778144Y1199610D01*
X776101Y1198764D01*
X774166Y1197694D01*
X772363Y1196415D01*
X770714Y1194941D01*
X769241Y1193293D01*
X767962Y1191489D01*
X766892Y1189554D01*
X766046Y1187512D01*
X765434Y1185387D01*
X765064Y1183207D01*
X764940Y1181000D01*
X765064Y1178793D01*
X765434Y1176613D01*
X766046Y1174488D01*
X766892Y1172446D01*
X767962Y1170511D01*
X769241Y1168707D01*
X770714Y1167059D01*
X772363Y1165585D01*
X774166Y1164306D01*
X776101Y1163236D01*
X778144Y1162390D01*
X780269Y1161778D01*
X782448Y1161408D01*
X784656Y1161284D01*
X786863Y1161408D01*
X789043Y1161778D01*
X791168Y1162390D01*
X793210Y1163236D01*
X793226Y1163245D01*
X929402D01*
X1225086Y867561D01*
X1225091Y867543D01*
X1225937Y865501D01*
X1227007Y863566D01*
X1228286Y861762D01*
X1229759Y860114D01*
X1231408Y858640D01*
X1233211Y857361D01*
X1235146Y856292D01*
X1237189Y855446D01*
X1239313Y854833D01*
X1241493Y854463D01*
X1243701Y854339D01*
X1245908Y854463D01*
X1248088Y854833D01*
X1250213Y855446D01*
X1252255Y856292D01*
X1254190Y857361D01*
X1255993Y858640D01*
X1257642Y860114D01*
X1259115Y861762D01*
X1260395Y863566D01*
X1261464Y865501D01*
X1262310Y867543D01*
X1262922Y869668D01*
X1263293Y871848D01*
X1263417Y874055D01*
X1263293Y876263D01*
X1262922Y878442D01*
X1262310Y880567D01*
X1261464Y882610D01*
X1260395Y884545D01*
X1259115Y886348D01*
X1257642Y887996D01*
X1255993Y889470D01*
X1254190Y890749D01*
X1252255Y891819D01*
X1250213Y892665D01*
X1250195Y892670D01*
X949310Y1193554D01*
X947564Y1195086D01*
X945633Y1196376D01*
X943550Y1197403D01*
X941351Y1198149D01*
X939073Y1198603D01*
X936756Y1198755D01*
X793226D01*
X793210Y1198764D01*
X791168Y1199610D01*
X789043Y1200222D01*
X786863Y1200592D01*
X784656Y1200716D01*
D02*
G37*
G36*
X93685Y923910D02*
X90381Y923766D01*
X87102Y923334D01*
X83873Y922618D01*
X80719Y921624D01*
X77663Y920358D01*
X74730Y918831D01*
X71941Y917054D01*
X69317Y915041D01*
X66879Y912807D01*
X64644Y910368D01*
X62631Y907744D01*
X60854Y904955D01*
X59327Y902021D01*
X58061Y898966D01*
X57067Y895812D01*
X56351Y892583D01*
X55919Y889304D01*
X55775Y886000D01*
X55919Y882696D01*
X56351Y879417D01*
X57067Y876188D01*
X58061Y873034D01*
X59327Y869979D01*
X60854Y867045D01*
X62631Y864256D01*
X64644Y861632D01*
X66879Y859193D01*
X69317Y856959D01*
X71941Y854946D01*
X74730Y853169D01*
X77663Y851642D01*
X80719Y850376D01*
X83873Y849382D01*
X87102Y848666D01*
X90381Y848234D01*
X93685Y848090D01*
X96989Y848234D01*
X100268Y848666D01*
X103497Y849382D01*
X106651Y850376D01*
X109707Y851642D01*
X112640Y853169D01*
X115429Y854946D01*
X118053Y856959D01*
X120492Y859193D01*
X122726Y861632D01*
X124739Y864256D01*
X126516Y867045D01*
X128043Y869979D01*
X129309Y873034D01*
X130303Y876188D01*
X131019Y879417D01*
X131451Y882696D01*
X131595Y886000D01*
X131451Y889304D01*
X131019Y892583D01*
X130303Y895812D01*
X129309Y898966D01*
X128043Y902021D01*
X126516Y904955D01*
X124739Y907744D01*
X122726Y910368D01*
X120492Y912807D01*
X118053Y915041D01*
X115429Y917054D01*
X112640Y918831D01*
X109707Y920358D01*
X106651Y921624D01*
X103497Y922618D01*
X100268Y923334D01*
X96989Y923766D01*
X93685Y923910D01*
D02*
G37*
G36*
X612835Y1444724D02*
X549843D01*
Y1371890D01*
X590799D01*
X593757Y1369745D01*
X598742Y1365529D01*
X604239Y1360298D01*
X644717Y1319820D01*
Y1203607D01*
X644869Y1201289D01*
X645322Y1199012D01*
X646069Y1196812D01*
X647096Y1194729D01*
X648386Y1192799D01*
X649918Y1191053D01*
X993485Y847485D01*
X995231Y845954D01*
X997162Y844664D01*
X999245Y843636D01*
X1001444Y842890D01*
X1003722Y842437D01*
X1006039Y842285D01*
X1122921D01*
X1180013Y785194D01*
X1181759Y783662D01*
X1183690Y782372D01*
X1185773Y781345D01*
X1187972Y780598D01*
X1190249Y780145D01*
X1192567Y779994D01*
X1278387D01*
X1278388Y779993D01*
X1278389Y779994D01*
X1278396D01*
X1278397Y779993D01*
X1278482Y779994D01*
X1374603D01*
X1374604Y779993D01*
X1374605Y779994D01*
X1396115D01*
X1397755Y777625D01*
X1398495Y774994D01*
X1397763Y773962D01*
X1396693Y772027D01*
X1395847Y769984D01*
X1395842Y769966D01*
X1182016Y556140D01*
X1158190D01*
X1156293Y560670D01*
X1156254Y561140D01*
X1157619Y562668D01*
X1158899Y564471D01*
X1159968Y566406D01*
X1160814Y568449D01*
X1161426Y570573D01*
X1161797Y572753D01*
X1161921Y574961D01*
X1161797Y577168D01*
X1161426Y579348D01*
X1160814Y581472D01*
X1159968Y583515D01*
X1158899Y585450D01*
X1157619Y587253D01*
X1156146Y588902D01*
X1154497Y590375D01*
X1152694Y591655D01*
X1150759Y592724D01*
X1148716Y593570D01*
X1146592Y594182D01*
X1144412Y594553D01*
X1142205Y594677D01*
X1139997Y594553D01*
X1137818Y594182D01*
X1135693Y593570D01*
X1133650Y592724D01*
X1131715Y591655D01*
X1129912Y590375D01*
X1128263Y588902D01*
X1126790Y587253D01*
X1125511Y585450D01*
X1124441Y583515D01*
X1123595Y581472D01*
X1122983Y579348D01*
X1122613Y577168D01*
X1122489Y574961D01*
X1122613Y572753D01*
X1122983Y570573D01*
X1123595Y568449D01*
X1124441Y566406D01*
X1125511Y564471D01*
X1126790Y562668D01*
X1128155Y561140D01*
X1128117Y560670D01*
X1126219Y556140D01*
X1097638D01*
X1095320Y555988D01*
X1093043Y555535D01*
X1090843Y554789D01*
X1088761Y553762D01*
X1086830Y552471D01*
X1085083Y550940D01*
X1055278Y521135D01*
X1055260Y521129D01*
X1053217Y520283D01*
X1051282Y519214D01*
X1049479Y517934D01*
X1047830Y516461D01*
X1046357Y514812D01*
X1045078Y513009D01*
X1044008Y511074D01*
X1043162Y509031D01*
X1042550Y506907D01*
X1042180Y504727D01*
X1042056Y502520D01*
X1042180Y500312D01*
X1042550Y498132D01*
X1043162Y496008D01*
X1044008Y493965D01*
X1045078Y492030D01*
X1046357Y490227D01*
X1047830Y488578D01*
X1049479Y487105D01*
X1051282Y485826D01*
X1053217Y484756D01*
X1055260Y483910D01*
X1057384Y483298D01*
X1059564Y482928D01*
X1061772Y482804D01*
X1063979Y482928D01*
X1066159Y483298D01*
X1068284Y483910D01*
X1070326Y484756D01*
X1072261Y485826D01*
X1074064Y487105D01*
X1075713Y488578D01*
X1077186Y490227D01*
X1078466Y492030D01*
X1079535Y493965D01*
X1080381Y496008D01*
X1080387Y496026D01*
X1104992Y520631D01*
X1189370D01*
X1191687Y520783D01*
X1193965Y521236D01*
X1196164Y521983D01*
X1198247Y523010D01*
X1200178Y524300D01*
X1201924Y525832D01*
X1420951Y744858D01*
X1420968Y744863D01*
X1423011Y745709D01*
X1424946Y746778D01*
X1426749Y748058D01*
X1428398Y749531D01*
X1429871Y751180D01*
X1431151Y752983D01*
X1432220Y754918D01*
X1433066Y756961D01*
X1433678Y759085D01*
X1434049Y761265D01*
X1434173Y763472D01*
X1434049Y765680D01*
X1433678Y767860D01*
X1433066Y769984D01*
X1432220Y772027D01*
X1431151Y773962D01*
X1430419Y774994D01*
X1431158Y777625D01*
X1432798Y779994D01*
X1446114D01*
X1446130Y779985D01*
X1448173Y779138D01*
X1450298Y778526D01*
X1452477Y778156D01*
X1454685Y778032D01*
X1456892Y778156D01*
X1459072Y778526D01*
X1461197Y779138D01*
X1463239Y779985D01*
X1465175Y781054D01*
X1466978Y782333D01*
X1468626Y783807D01*
X1470100Y785455D01*
X1471379Y787259D01*
X1472448Y789193D01*
X1473295Y791236D01*
X1473907Y793361D01*
X1474277Y795540D01*
X1474401Y797748D01*
X1474277Y799956D01*
X1473907Y802135D01*
X1473295Y804260D01*
X1472448Y806303D01*
X1471379Y808237D01*
X1470100Y810041D01*
X1468626Y811689D01*
X1466978Y813163D01*
X1465175Y814442D01*
X1463239Y815511D01*
X1461197Y816358D01*
X1459072Y816970D01*
X1456892Y817340D01*
X1454685Y817464D01*
X1452477Y817340D01*
X1450298Y816970D01*
X1448173Y816358D01*
X1446130Y815511D01*
X1446114Y815503D01*
X1374813D01*
X1371748Y815663D01*
X1369436Y816070D01*
X1367667Y816657D01*
X1366364Y817356D01*
X1365386Y818151D01*
X1364587Y819121D01*
X1363886Y820413D01*
X1363294Y822165D01*
X1362913Y824282D01*
Y843346D01*
X1290079D01*
Y824282D01*
X1289698Y822165D01*
X1289106Y820413D01*
X1288405Y819121D01*
X1287606Y818151D01*
X1286628Y817356D01*
X1285325Y816657D01*
X1283556Y816070D01*
X1281244Y815663D01*
X1278179Y815503D01*
X1199921D01*
X1142830Y872594D01*
X1141084Y874125D01*
X1139153Y875415D01*
X1137070Y876442D01*
X1134871Y877189D01*
X1132593Y877642D01*
X1130275Y877794D01*
X1013393D01*
X680226Y1210961D01*
Y1327174D01*
X680074Y1329491D01*
X679621Y1331769D01*
X678875Y1333968D01*
X677848Y1336051D01*
X676558Y1337982D01*
X675026Y1339728D01*
X624435Y1390319D01*
X619815Y1395202D01*
X616078Y1399697D01*
X613153Y1403840D01*
X612835Y1404401D01*
Y1444724D01*
D02*
G37*
G36*
X93685Y823910D02*
X90381Y823766D01*
X87102Y823334D01*
X83873Y822618D01*
X80719Y821624D01*
X77663Y820358D01*
X74730Y818831D01*
X71941Y817054D01*
X69317Y815041D01*
X66879Y812807D01*
X64644Y810368D01*
X62631Y807744D01*
X60854Y804955D01*
X59327Y802021D01*
X58061Y798966D01*
X57067Y795812D01*
X56351Y792583D01*
X55919Y789304D01*
X55775Y786000D01*
X55919Y782696D01*
X56351Y779417D01*
X57067Y776188D01*
X58061Y773034D01*
X59327Y769979D01*
X60854Y767045D01*
X62631Y764256D01*
X64644Y761632D01*
X66879Y759193D01*
X69317Y756959D01*
X71941Y754946D01*
X74730Y753169D01*
X77663Y751642D01*
X80719Y750376D01*
X83873Y749382D01*
X87102Y748666D01*
X90381Y748234D01*
X93685Y748090D01*
X96989Y748234D01*
X100268Y748666D01*
X103497Y749382D01*
X106651Y750376D01*
X109707Y751642D01*
X112640Y753169D01*
X115429Y754946D01*
X118053Y756959D01*
X120492Y759193D01*
X122726Y761632D01*
X124739Y764256D01*
X126516Y767045D01*
X128043Y769979D01*
X129309Y773034D01*
X130303Y776188D01*
X131019Y779417D01*
X131451Y782696D01*
X131595Y786000D01*
X131451Y789304D01*
X131019Y792583D01*
X130303Y795812D01*
X129309Y798966D01*
X128043Y802021D01*
X126516Y804955D01*
X124739Y807744D01*
X122726Y810368D01*
X120492Y812807D01*
X118053Y815041D01*
X115429Y817054D01*
X112640Y818831D01*
X109707Y820358D01*
X106651Y821624D01*
X103497Y822618D01*
X100268Y823334D01*
X96989Y823766D01*
X93685Y823910D01*
D02*
G37*
G36*
X733685Y906031D02*
X731477Y905907D01*
X729298Y905537D01*
X727173Y904925D01*
X725130Y904078D01*
X723196Y903009D01*
X721392Y901730D01*
X719744Y900256D01*
X718270Y898608D01*
X716991Y896804D01*
X715922Y894870D01*
X715075Y892827D01*
X714463Y890702D01*
X714093Y888523D01*
X713969Y886315D01*
X714093Y884107D01*
X714463Y881928D01*
X715075Y879803D01*
X715922Y877760D01*
X716991Y875826D01*
X718270Y874022D01*
X719744Y872374D01*
X721392Y870900D01*
X723196Y869621D01*
X725130Y868552D01*
X727173Y867705D01*
X729298Y867093D01*
X731477Y866723D01*
X733685Y866599D01*
X735893Y866723D01*
X738072Y867093D01*
X740197Y867705D01*
X742240Y868552D01*
X742256Y868561D01*
X823556D01*
X993382Y698735D01*
X993387Y698717D01*
X994233Y696674D01*
X995303Y694739D01*
X996582Y692936D01*
X998055Y691287D01*
X999704Y689814D01*
X1001507Y688534D01*
X1003442Y687465D01*
X1005485Y686619D01*
X1007610Y686007D01*
X1009789Y685636D01*
X1011997Y685512D01*
X1014204Y685636D01*
X1016384Y686007D01*
X1018509Y686619D01*
X1020551Y687465D01*
X1022486Y688534D01*
X1024289Y689814D01*
X1025938Y691287D01*
X1027411Y692936D01*
X1028691Y694739D01*
X1029760Y696674D01*
X1030606Y698717D01*
X1031218Y700841D01*
X1031589Y703021D01*
X1031713Y705228D01*
X1031589Y707436D01*
X1031218Y709616D01*
X1030606Y711740D01*
X1029760Y713783D01*
X1028691Y715718D01*
X1027411Y717521D01*
X1025938Y719170D01*
X1024289Y720643D01*
X1022486Y721922D01*
X1020551Y722992D01*
X1018509Y723838D01*
X1018490Y723843D01*
X843464Y898869D01*
X841718Y900401D01*
X839787Y901691D01*
X837705Y902718D01*
X835505Y903465D01*
X833227Y903918D01*
X830910Y904069D01*
X742256D01*
X742240Y904078D01*
X740197Y904925D01*
X738072Y905537D01*
X735893Y905907D01*
X733685Y906031D01*
D02*
G37*
G36*
X741685Y807716D02*
X739477Y807592D01*
X737298Y807222D01*
X735173Y806610D01*
X733130Y805764D01*
X731196Y804694D01*
X729392Y803415D01*
X727744Y801941D01*
X726270Y800293D01*
X724991Y798490D01*
X723922Y796554D01*
X723075Y794512D01*
X722463Y792387D01*
X722093Y790207D01*
X721969Y788000D01*
X722093Y785793D01*
X722463Y783613D01*
X723075Y781488D01*
X723922Y779446D01*
X724991Y777510D01*
X726270Y775707D01*
X727744Y774059D01*
X729392Y772585D01*
X731196Y771306D01*
X733130Y770236D01*
X735173Y769390D01*
X737298Y768778D01*
X739477Y768408D01*
X741685Y768284D01*
X743893Y768408D01*
X746072Y768778D01*
X748197Y769390D01*
X750240Y770236D01*
X750256Y770245D01*
X820089D01*
X849273Y741062D01*
X849240Y740272D01*
X847270Y735993D01*
X846856Y735970D01*
X844676Y735600D01*
X842551Y734988D01*
X840509Y734141D01*
X838573Y733072D01*
X836770Y731793D01*
X835122Y730319D01*
X833648Y728671D01*
X832369Y726867D01*
X831299Y724933D01*
X830453Y722890D01*
X830448Y722872D01*
X741191Y633615D01*
X741173Y633610D01*
X739130Y632764D01*
X737196Y631694D01*
X735392Y630415D01*
X733744Y628941D01*
X732270Y627293D01*
X730991Y625490D01*
X729922Y623554D01*
X729075Y621512D01*
X728463Y619387D01*
X728093Y617207D01*
X727969Y615000D01*
X728093Y612793D01*
X728463Y610613D01*
X729075Y608488D01*
X729922Y606446D01*
X730991Y604510D01*
X732270Y602707D01*
X733744Y601059D01*
X735392Y599585D01*
X737196Y598306D01*
X739130Y597236D01*
X741173Y596390D01*
X743298Y595778D01*
X745477Y595408D01*
X747685Y595284D01*
X749893Y595408D01*
X752072Y595778D01*
X754197Y596390D01*
X756240Y597236D01*
X758174Y598306D01*
X759978Y599585D01*
X761626Y601059D01*
X763100Y602707D01*
X764379Y604510D01*
X765448Y606446D01*
X766295Y608488D01*
X766300Y608506D01*
X855557Y697763D01*
X855575Y697768D01*
X857617Y698615D01*
X859553Y699684D01*
X861356Y700963D01*
X863004Y702437D01*
X864478Y704085D01*
X865757Y705889D01*
X866827Y707823D01*
X867673Y709866D01*
X868285Y711991D01*
X868655Y714170D01*
X868678Y714585D01*
X872957Y716555D01*
X873746Y716588D01*
X917988Y672346D01*
X917969Y672000D01*
X918093Y669793D01*
X918463Y667613D01*
X919075Y665488D01*
X919922Y663446D01*
X920991Y661510D01*
X922270Y659707D01*
X923744Y658059D01*
X925392Y656585D01*
X927196Y655306D01*
X929130Y654236D01*
X931173Y653390D01*
X933298Y652778D01*
X935477Y652408D01*
X937685Y652284D01*
X939893Y652408D01*
X942072Y652778D01*
X944197Y653390D01*
X946240Y654236D01*
X948174Y655306D01*
X949978Y656585D01*
X951626Y658059D01*
X953100Y659707D01*
X954379Y661510D01*
X955448Y663446D01*
X956295Y665488D01*
X956907Y667613D01*
X957277Y669793D01*
X957401Y672000D01*
X957277Y674207D01*
X956907Y676387D01*
X956295Y678512D01*
X955448Y680554D01*
X955048Y681279D01*
X954835Y682353D01*
X954088Y684553D01*
X953061Y686635D01*
X951771Y688566D01*
X950239Y690312D01*
X839997Y800554D01*
X838251Y802086D01*
X836320Y803376D01*
X834237Y804403D01*
X832038Y805149D01*
X829760Y805603D01*
X827443Y805755D01*
X750256D01*
X750240Y805764D01*
X748197Y806610D01*
X746072Y807222D01*
X743893Y807592D01*
X741685Y807716D01*
D02*
G37*
G36*
X93685Y723910D02*
X90381Y723766D01*
X87102Y723334D01*
X83873Y722618D01*
X80719Y721624D01*
X77663Y720358D01*
X74730Y718831D01*
X71941Y717054D01*
X69317Y715041D01*
X66879Y712807D01*
X64644Y710368D01*
X62631Y707744D01*
X60854Y704955D01*
X59327Y702021D01*
X58061Y698966D01*
X57067Y695812D01*
X56351Y692583D01*
X55919Y689304D01*
X55775Y686000D01*
X55919Y682696D01*
X56351Y679417D01*
X57067Y676188D01*
X58061Y673034D01*
X59327Y669979D01*
X60854Y667045D01*
X62631Y664256D01*
X64644Y661632D01*
X66879Y659193D01*
X69317Y656959D01*
X71941Y654946D01*
X74730Y653169D01*
X77663Y651642D01*
X80719Y650376D01*
X83873Y649382D01*
X87102Y648666D01*
X90381Y648234D01*
X93685Y648090D01*
X96989Y648234D01*
X100268Y648666D01*
X103497Y649382D01*
X106651Y650376D01*
X109707Y651642D01*
X112640Y653169D01*
X115429Y654946D01*
X118053Y656959D01*
X120492Y659193D01*
X122726Y661632D01*
X124739Y664256D01*
X126516Y667045D01*
X128043Y669979D01*
X129309Y673034D01*
X130303Y676188D01*
X131019Y679417D01*
X131451Y682696D01*
X131595Y686000D01*
X131451Y689304D01*
X131019Y692583D01*
X130303Y695812D01*
X129309Y698966D01*
X128043Y702021D01*
X126516Y704955D01*
X124739Y707744D01*
X122726Y710368D01*
X120492Y712807D01*
X118053Y715041D01*
X115429Y717054D01*
X112640Y718831D01*
X109707Y720358D01*
X106651Y721624D01*
X103497Y722618D01*
X100268Y723334D01*
X96989Y723766D01*
X93685Y723910D01*
D02*
G37*
G36*
Y623910D02*
X90381Y623766D01*
X87102Y623334D01*
X83873Y622618D01*
X80719Y621624D01*
X77663Y620358D01*
X74730Y618831D01*
X71941Y617054D01*
X69317Y615041D01*
X66879Y612807D01*
X64644Y610368D01*
X62631Y607744D01*
X60854Y604955D01*
X59327Y602021D01*
X58061Y598966D01*
X57067Y595812D01*
X56351Y592583D01*
X55919Y589304D01*
X55775Y586000D01*
X55919Y582696D01*
X56351Y579417D01*
X57067Y576188D01*
X58061Y573034D01*
X59327Y569979D01*
X60854Y567045D01*
X62631Y564256D01*
X64644Y561632D01*
X66879Y559193D01*
X69317Y556959D01*
X71941Y554946D01*
X74730Y553169D01*
X77663Y551642D01*
X80719Y550376D01*
X83873Y549382D01*
X87102Y548666D01*
X90381Y548234D01*
X93685Y548090D01*
X96989Y548234D01*
X100268Y548666D01*
X103497Y549382D01*
X106651Y550376D01*
X109707Y551642D01*
X112640Y553169D01*
X115429Y554946D01*
X118053Y556959D01*
X120492Y559193D01*
X122726Y561632D01*
X124739Y564256D01*
X126516Y567045D01*
X128043Y569979D01*
X129309Y573034D01*
X130303Y576188D01*
X131019Y579417D01*
X131451Y582696D01*
X131595Y586000D01*
X131451Y589304D01*
X131019Y592583D01*
X130303Y595812D01*
X129309Y598966D01*
X128043Y602021D01*
X126516Y604955D01*
X124739Y607744D01*
X122726Y610368D01*
X120492Y612807D01*
X118053Y615041D01*
X115429Y617054D01*
X112640Y618831D01*
X109707Y620358D01*
X106651Y621624D01*
X103497Y622618D01*
X100268Y623334D01*
X96989Y623766D01*
X93685Y623910D01*
D02*
G37*
G36*
X1112685Y815495D02*
X1110477Y815371D01*
X1108298Y815001D01*
X1106173Y814389D01*
X1104130Y813543D01*
X1102196Y812473D01*
X1100392Y811194D01*
X1098744Y809721D01*
X1097270Y808072D01*
X1095991Y806269D01*
X1094921Y804334D01*
X1094075Y802291D01*
X1094070Y802273D01*
X1067131Y775334D01*
X1065599Y773588D01*
X1064309Y771657D01*
X1063282Y769574D01*
X1062535Y767375D01*
X1062082Y765097D01*
X1061930Y762779D01*
Y676212D01*
X891473Y505755D01*
X776256D01*
X776240Y505764D01*
X774197Y506610D01*
X772072Y507222D01*
X769893Y507592D01*
X767685Y507716D01*
X765477Y507592D01*
X763298Y507222D01*
X761173Y506610D01*
X759130Y505764D01*
X757196Y504694D01*
X755392Y503415D01*
X753744Y501941D01*
X752270Y500293D01*
X750991Y498490D01*
X749922Y496555D01*
X749075Y494512D01*
X748463Y492387D01*
X748093Y490207D01*
X747969Y488000D01*
X748093Y485793D01*
X748463Y483613D01*
X749075Y481488D01*
X749922Y479445D01*
X750991Y477510D01*
X752270Y475707D01*
X753744Y474059D01*
X755392Y472585D01*
X757196Y471306D01*
X759130Y470236D01*
X761173Y469390D01*
X763298Y468778D01*
X765477Y468408D01*
X767685Y468284D01*
X769893Y468408D01*
X772072Y468778D01*
X774197Y469390D01*
X776240Y470236D01*
X776256Y470245D01*
X898827D01*
X901144Y470397D01*
X903422Y470851D01*
X905621Y471597D01*
X907704Y472624D01*
X909635Y473914D01*
X911381Y475446D01*
X1092239Y656304D01*
X1093771Y658050D01*
X1095061Y659981D01*
X1096088Y662064D01*
X1096834Y664263D01*
X1097288Y666541D01*
X1097439Y668858D01*
Y755425D01*
X1119179Y777165D01*
X1119197Y777170D01*
X1121239Y778016D01*
X1123175Y779085D01*
X1124978Y780365D01*
X1126626Y781838D01*
X1128100Y783487D01*
X1129379Y785290D01*
X1130448Y787225D01*
X1131295Y789268D01*
X1131907Y791392D01*
X1132277Y793572D01*
X1132401Y795779D01*
X1132277Y797987D01*
X1131907Y800167D01*
X1131295Y802291D01*
X1130448Y804334D01*
X1129379Y806269D01*
X1128100Y808072D01*
X1126626Y809721D01*
X1124978Y811194D01*
X1123175Y812473D01*
X1121239Y813543D01*
X1119197Y814389D01*
X1117072Y815001D01*
X1114892Y815371D01*
X1112685Y815495D01*
D02*
G37*
G36*
X93685Y523910D02*
X90381Y523766D01*
X87102Y523334D01*
X83873Y522618D01*
X80719Y521624D01*
X77663Y520358D01*
X74730Y518831D01*
X71941Y517054D01*
X69317Y515041D01*
X66879Y512807D01*
X64644Y510368D01*
X62631Y507744D01*
X60854Y504955D01*
X59327Y502022D01*
X58061Y498966D01*
X57067Y495812D01*
X56351Y492583D01*
X55919Y489304D01*
X55775Y486000D01*
X55919Y482696D01*
X56351Y479417D01*
X57067Y476188D01*
X58061Y473034D01*
X59327Y469978D01*
X60854Y467045D01*
X62631Y464256D01*
X64644Y461632D01*
X66879Y459193D01*
X69317Y456959D01*
X71941Y454946D01*
X74730Y453169D01*
X77663Y451642D01*
X80719Y450376D01*
X83873Y449382D01*
X87102Y448666D01*
X90381Y448234D01*
X93685Y448090D01*
X96989Y448234D01*
X100268Y448666D01*
X103497Y449382D01*
X106651Y450376D01*
X109707Y451642D01*
X112640Y453169D01*
X115429Y454946D01*
X118053Y456959D01*
X120492Y459193D01*
X122726Y461632D01*
X124739Y464256D01*
X126516Y467045D01*
X128043Y469978D01*
X129309Y473034D01*
X130303Y476188D01*
X131019Y479417D01*
X131451Y482696D01*
X131595Y486000D01*
X131451Y489304D01*
X131019Y492583D01*
X130303Y495812D01*
X129309Y498966D01*
X128043Y502022D01*
X126516Y504955D01*
X124739Y507744D01*
X122726Y510368D01*
X120492Y512807D01*
X118053Y515041D01*
X115429Y517054D01*
X112640Y518831D01*
X109707Y520358D01*
X106651Y521624D01*
X103497Y522618D01*
X100268Y523334D01*
X96989Y523766D01*
X93685Y523910D01*
D02*
G37*
G36*
X3282441Y492477D02*
Y440866D01*
X3334052D01*
X3333231Y444388D01*
X3331961Y448574D01*
X3330420Y452668D01*
X3328615Y456652D01*
X3326552Y460510D01*
X3324242Y464225D01*
X3321695Y467780D01*
X3318919Y471162D01*
X3315929Y474354D01*
X3312737Y477345D01*
X3309355Y480120D01*
X3305800Y482668D01*
X3302085Y484978D01*
X3298227Y487040D01*
X3294243Y488845D01*
X3290149Y490386D01*
X3285963Y491656D01*
X3282441Y492477D01*
D02*
G37*
G36*
X2872283Y479114D02*
Y440866D01*
X2910531D01*
X2910176Y442259D01*
X2908961Y445906D01*
X2907490Y449458D01*
X2905770Y452896D01*
X2903808Y456202D01*
X2901615Y459360D01*
X2899203Y462353D01*
X2896584Y465166D01*
X2893770Y467786D01*
X2890777Y470198D01*
X2887619Y472391D01*
X2884313Y474352D01*
X2880875Y476073D01*
X2877324Y477544D01*
X2873676Y478758D01*
X2872283Y479114D01*
D02*
G37*
G36*
X3254882Y492477D02*
X3251360Y491656D01*
X3247174Y490386D01*
X3243080Y488845D01*
X3239096Y487040D01*
X3235238Y484978D01*
X3231523Y482668D01*
X3227968Y480120D01*
X3224586Y477345D01*
X3221394Y474354D01*
X3218403Y471162D01*
X3215628Y467780D01*
X3213080Y464225D01*
X3210770Y460510D01*
X3208708Y456652D01*
X3206903Y452668D01*
X3205362Y448574D01*
X3204092Y444388D01*
X3203271Y440866D01*
X3254882D01*
Y492477D01*
D02*
G37*
G36*
X2910531Y413307D02*
X2872283D01*
Y375059D01*
X2873676Y375415D01*
X2877324Y376629D01*
X2880875Y378100D01*
X2884313Y379821D01*
X2887619Y381783D01*
X2890777Y383975D01*
X2893770Y386387D01*
X2896584Y389007D01*
X2899203Y391820D01*
X2901615Y394814D01*
X2903808Y397971D01*
X2905770Y401278D01*
X2907490Y404715D01*
X2908961Y408267D01*
X2910176Y411914D01*
X2910531Y413307D01*
D02*
G37*
G36*
X2940315Y540117D02*
X2796575D01*
X2794257Y539965D01*
X2791980Y539512D01*
X2789780Y538765D01*
X2787698Y537738D01*
X2785767Y536448D01*
X2784021Y534917D01*
X2745950Y496846D01*
X2744418Y495100D01*
X2743128Y493168D01*
X2742101Y491086D01*
X2741354Y488887D01*
X2740901Y486609D01*
X2740764Y484520D01*
X2740750Y484389D01*
X2740714Y481486D01*
X2740432Y476638D01*
X2740222Y474924D01*
X2739973Y473555D01*
X2739933Y473404D01*
X2739400Y473207D01*
X2735841Y471566D01*
X2732421Y469651D01*
X2729162Y467473D01*
X2726083Y465046D01*
X2723205Y462386D01*
X2720544Y459507D01*
X2718117Y456429D01*
X2715940Y453170D01*
X2714025Y449750D01*
X2712384Y446190D01*
X2711027Y442513D01*
X2709963Y438740D01*
X2709198Y434896D01*
X2708738Y431003D01*
X2708584Y427087D01*
X2708738Y423170D01*
X2709198Y419277D01*
X2709963Y415433D01*
X2711027Y411660D01*
X2712384Y407983D01*
X2714025Y404423D01*
X2715940Y401003D01*
X2718117Y397744D01*
X2720544Y394666D01*
X2723205Y391788D01*
X2726083Y389127D01*
X2729162Y386700D01*
X2732421Y384522D01*
X2735841Y382607D01*
X2739400Y380966D01*
X2743078Y379610D01*
X2746850Y378546D01*
X2750695Y377781D01*
X2754587Y377320D01*
X2758504Y377166D01*
X2762421Y377320D01*
X2766313Y377781D01*
X2770158Y378546D01*
X2773930Y379610D01*
X2777608Y380966D01*
X2781167Y382607D01*
X2784587Y384522D01*
X2787846Y386700D01*
X2790925Y389127D01*
X2793803Y391788D01*
X2796464Y394666D01*
X2798890Y397744D01*
X2801068Y401003D01*
X2802983Y404423D01*
X2803638Y405844D01*
X2809094Y405736D01*
X2809517Y404715D01*
X2811238Y401278D01*
X2813200Y397971D01*
X2815392Y394814D01*
X2817804Y391820D01*
X2820424Y389007D01*
X2823238Y386387D01*
X2826231Y383975D01*
X2829389Y381783D01*
X2832695Y379821D01*
X2836133Y378100D01*
X2839684Y376629D01*
X2843332Y375415D01*
X2844724Y375059D01*
Y427087D01*
Y479114D01*
X2843332Y478758D01*
X2839684Y477544D01*
X2836133Y476073D01*
X2832695Y474352D01*
X2829389Y472391D01*
X2826231Y470198D01*
X2823238Y467786D01*
X2820424Y465166D01*
X2817804Y462353D01*
X2815392Y459360D01*
X2813200Y456202D01*
X2811238Y452896D01*
X2809517Y449458D01*
X2809094Y448437D01*
X2803638Y448329D01*
X2802983Y449750D01*
X2801068Y453170D01*
X2798890Y456429D01*
X2796464Y459507D01*
X2793803Y462386D01*
X2790925Y465046D01*
X2787846Y467473D01*
X2784587Y469651D01*
X2781167Y471566D01*
X2778177Y472944D01*
X2777436Y476548D01*
X2777359Y478038D01*
X2803929Y504608D01*
X2932961D01*
X2945735Y491834D01*
X2949675Y487460D01*
X2953266Y482592D01*
X2956644Y477051D01*
X2959792Y470823D01*
X2962699Y463903D01*
X2965349Y456293D01*
X2967709Y448075D01*
X2971679Y429240D01*
X2973223Y418831D01*
X2973238Y418774D01*
X2973287Y418473D01*
X2973290Y418449D01*
X2973293Y418438D01*
X2973892Y414814D01*
X2974826Y410805D01*
X2976021Y406866D01*
X2977471Y403013D01*
X2979170Y399263D01*
X2981111Y395633D01*
X2983285Y392137D01*
X2985682Y388791D01*
X2988294Y385609D01*
X2991108Y382604D01*
X2994113Y379790D01*
X2997295Y377179D01*
X3000641Y374781D01*
X3004137Y372607D01*
X3007767Y370666D01*
X3011517Y368967D01*
X3015369Y367517D01*
X3019309Y366322D01*
X3023318Y365388D01*
X3027379Y364717D01*
X3031476Y364314D01*
X3035590Y364179D01*
X3039705Y364314D01*
X3043802Y364717D01*
X3047863Y365388D01*
X3051872Y366322D01*
X3055811Y367517D01*
X3059664Y368967D01*
X3063414Y370666D01*
X3067044Y372607D01*
X3070540Y374781D01*
X3073886Y377179D01*
X3077068Y379790D01*
X3080073Y382604D01*
X3082887Y385609D01*
X3085499Y388791D01*
X3087896Y392137D01*
X3090070Y395633D01*
X3092011Y399263D01*
X3093710Y403013D01*
X3095160Y406866D01*
X3096355Y410805D01*
X3097289Y414814D01*
X3097960Y418875D01*
X3098363Y422972D01*
X3098498Y427087D01*
X3098363Y431201D01*
X3097960Y435298D01*
X3097289Y439359D01*
X3096355Y443368D01*
X3095160Y447308D01*
X3093710Y451160D01*
X3092011Y454910D01*
X3090070Y458540D01*
X3087896Y462036D01*
X3085499Y465382D01*
X3082887Y468565D01*
X3080073Y471569D01*
X3077068Y474383D01*
X3073886Y476995D01*
X3070540Y479392D01*
X3067044Y481566D01*
X3063414Y483507D01*
X3059664Y485206D01*
X3055811Y486656D01*
X3051872Y487851D01*
X3047863Y488786D01*
X3044240Y489384D01*
X3044228Y489387D01*
X3044203Y489390D01*
X3043903Y489439D01*
X3043846Y489454D01*
X3033437Y490998D01*
X3014602Y494968D01*
X3006385Y497328D01*
X2998774Y499978D01*
X2991854Y502885D01*
X2985626Y506034D01*
X2980085Y509411D01*
X2975217Y513003D01*
X2970843Y516942D01*
X2952869Y534917D01*
X2951123Y536448D01*
X2949192Y537738D01*
X2947109Y538765D01*
X2944910Y539512D01*
X2942632Y539965D01*
X2940315Y540117D01*
D02*
G37*
G36*
X3334052Y413307D02*
X3282441D01*
Y361696D01*
X3285963Y362517D01*
X3290149Y363787D01*
X3294243Y365328D01*
X3298227Y367134D01*
X3302085Y369196D01*
X3305800Y371505D01*
X3309355Y374053D01*
X3312737Y376829D01*
X3315929Y379819D01*
X3318919Y383011D01*
X3321695Y386393D01*
X3324242Y389949D01*
X3326552Y393663D01*
X3328615Y397521D01*
X3330420Y401505D01*
X3331961Y405599D01*
X3333231Y409785D01*
X3334052Y413307D01*
D02*
G37*
G36*
X3254882D02*
X3203271D01*
X3204092Y409785D01*
X3205362Y405599D01*
X3206903Y401505D01*
X3208708Y397521D01*
X3210770Y393663D01*
X3213080Y389949D01*
X3215628Y386393D01*
X3218403Y383011D01*
X3221394Y379819D01*
X3224586Y376829D01*
X3227968Y374053D01*
X3231523Y371505D01*
X3235238Y369196D01*
X3239096Y367134D01*
X3243080Y365328D01*
X3247174Y363787D01*
X3251360Y362517D01*
X3254882Y361696D01*
Y413307D01*
D02*
G37*
G36*
X93685Y423910D02*
X90381Y423766D01*
X87102Y423334D01*
X83873Y422618D01*
X80719Y421624D01*
X77663Y420358D01*
X74730Y418831D01*
X71941Y417054D01*
X69317Y415041D01*
X66879Y412807D01*
X64644Y410368D01*
X62631Y407744D01*
X60854Y404955D01*
X59327Y402022D01*
X58061Y398966D01*
X57067Y395812D01*
X56351Y392583D01*
X55919Y389304D01*
X55775Y386000D01*
X55919Y382696D01*
X56351Y379417D01*
X57067Y376188D01*
X58061Y373034D01*
X59327Y369978D01*
X60854Y367045D01*
X62631Y364256D01*
X64644Y361632D01*
X66879Y359193D01*
X69317Y356959D01*
X71941Y354946D01*
X74730Y353169D01*
X77663Y351642D01*
X80719Y350376D01*
X83873Y349382D01*
X87102Y348666D01*
X90381Y348234D01*
X93685Y348090D01*
X96989Y348234D01*
X100268Y348666D01*
X103497Y349382D01*
X106651Y350376D01*
X109707Y351642D01*
X112640Y353169D01*
X115429Y354946D01*
X118053Y356959D01*
X120492Y359193D01*
X122726Y361632D01*
X124739Y364256D01*
X126516Y367045D01*
X128043Y369978D01*
X129309Y373034D01*
X130303Y376188D01*
X131019Y379417D01*
X131451Y382696D01*
X131595Y386000D01*
X131451Y389304D01*
X131019Y392583D01*
X130303Y395812D01*
X129309Y398966D01*
X128043Y402022D01*
X126516Y404955D01*
X124739Y407744D01*
X122726Y410368D01*
X120492Y412807D01*
X118053Y415041D01*
X115429Y417054D01*
X112640Y418831D01*
X109707Y420358D01*
X106651Y421624D01*
X103497Y422618D01*
X100268Y423334D01*
X96989Y423766D01*
X93685Y423910D01*
D02*
G37*
G36*
X3411417Y195881D02*
X3408704Y195498D01*
X3403287Y194420D01*
X3397939Y193041D01*
X3392676Y191363D01*
X3387516Y189394D01*
X3382475Y187138D01*
X3377568Y184603D01*
X3372811Y181797D01*
X3368219Y178728D01*
X3363806Y175407D01*
X3359586Y171844D01*
X3355572Y168050D01*
X3351778Y164036D01*
X3348215Y159816D01*
X3344894Y155403D01*
X3341825Y150811D01*
X3339019Y146054D01*
X3336484Y141147D01*
X3334228Y136106D01*
X3332258Y130946D01*
X3330581Y125683D01*
X3329202Y120335D01*
X3328124Y114918D01*
X3327741Y112205D01*
X3411417D01*
Y195881D01*
D02*
G37*
G36*
X112205D02*
Y112205D01*
X195881D01*
X195498Y114918D01*
X194420Y120335D01*
X193041Y125683D01*
X191363Y130946D01*
X189394Y136106D01*
X187138Y141147D01*
X184603Y146054D01*
X181797Y150811D01*
X178728Y155403D01*
X175407Y159816D01*
X171844Y164036D01*
X168050Y168050D01*
X164036Y171844D01*
X159816Y175407D01*
X155403Y178728D01*
X150811Y181797D01*
X146054Y184603D01*
X141147Y187138D01*
X136106Y189394D01*
X130946Y191363D01*
X125683Y193041D01*
X120335Y194420D01*
X114918Y195498D01*
X112205Y195881D01*
D02*
G37*
G36*
X3086496Y156847D02*
X3083192Y156703D01*
X3079913Y156271D01*
X3076684Y155555D01*
X3073530Y154561D01*
X3070475Y153295D01*
X3067541Y151768D01*
X3064752Y149991D01*
X3062128Y147978D01*
X3059690Y145744D01*
X3057455Y143305D01*
X3055442Y140681D01*
X3053665Y137892D01*
X3052138Y134958D01*
X3050872Y131903D01*
X3049878Y128749D01*
X3049162Y125520D01*
X3048730Y122241D01*
X3048586Y118937D01*
X3048730Y115633D01*
X3049162Y112354D01*
X3049878Y109125D01*
X3050872Y105971D01*
X3052138Y102915D01*
X3053665Y99982D01*
X3055442Y97193D01*
X3057455Y94569D01*
X3059690Y92130D01*
X3062128Y89896D01*
X3064752Y87883D01*
X3067541Y86106D01*
X3070475Y84579D01*
X3073530Y83313D01*
X3076684Y82319D01*
X3079913Y81603D01*
X3083192Y81171D01*
X3086496Y81027D01*
X3089800Y81171D01*
X3093079Y81603D01*
X3096308Y82319D01*
X3099462Y83313D01*
X3102518Y84579D01*
X3105451Y86106D01*
X3108240Y87883D01*
X3110864Y89896D01*
X3113303Y92130D01*
X3115537Y94569D01*
X3117550Y97193D01*
X3119327Y99982D01*
X3120854Y102915D01*
X3122120Y105971D01*
X3123114Y109125D01*
X3123830Y112354D01*
X3124262Y115633D01*
X3124406Y118937D01*
X3124262Y122241D01*
X3123830Y125520D01*
X3123114Y128749D01*
X3122120Y131903D01*
X3120854Y134958D01*
X3119327Y137892D01*
X3117550Y140681D01*
X3115537Y143305D01*
X3113303Y145744D01*
X3110864Y147978D01*
X3108240Y149991D01*
X3105451Y151768D01*
X3102518Y153295D01*
X3099462Y154561D01*
X3096308Y155555D01*
X3093079Y156271D01*
X3089800Y156703D01*
X3086496Y156847D01*
D02*
G37*
G36*
X2986496D02*
X2983192Y156703D01*
X2979913Y156271D01*
X2976684Y155555D01*
X2973530Y154561D01*
X2970475Y153295D01*
X2967541Y151768D01*
X2964752Y149991D01*
X2962128Y147978D01*
X2959690Y145744D01*
X2957455Y143305D01*
X2955442Y140681D01*
X2953665Y137892D01*
X2952138Y134958D01*
X2950872Y131903D01*
X2949878Y128749D01*
X2949162Y125520D01*
X2948730Y122241D01*
X2948586Y118937D01*
X2948730Y115633D01*
X2949162Y112354D01*
X2949878Y109125D01*
X2950872Y105971D01*
X2952138Y102915D01*
X2953665Y99982D01*
X2955442Y97193D01*
X2957455Y94569D01*
X2959690Y92130D01*
X2962128Y89896D01*
X2964752Y87883D01*
X2967541Y86106D01*
X2970475Y84579D01*
X2973530Y83313D01*
X2976684Y82319D01*
X2979913Y81603D01*
X2983192Y81171D01*
X2986496Y81027D01*
X2989800Y81171D01*
X2993079Y81603D01*
X2996308Y82319D01*
X2999462Y83313D01*
X3002518Y84579D01*
X3005451Y86106D01*
X3008240Y87883D01*
X3010864Y89896D01*
X3013303Y92130D01*
X3015537Y94569D01*
X3017550Y97193D01*
X3019327Y99982D01*
X3020854Y102915D01*
X3022120Y105971D01*
X3023114Y109125D01*
X3023830Y112354D01*
X3024262Y115633D01*
X3024406Y118937D01*
X3024262Y122241D01*
X3023830Y125520D01*
X3023114Y128749D01*
X3022120Y131903D01*
X3020854Y134958D01*
X3019327Y137892D01*
X3017550Y140681D01*
X3015537Y143305D01*
X3013303Y145744D01*
X3010864Y147978D01*
X3008240Y149991D01*
X3005451Y151768D01*
X3002518Y153295D01*
X2999462Y154561D01*
X2996308Y155555D01*
X2993079Y156271D01*
X2989800Y156703D01*
X2986496Y156847D01*
D02*
G37*
G36*
X3228346Y182986D02*
X3224232Y182852D01*
X3220135Y182448D01*
X3216074Y181778D01*
X3212065Y180843D01*
X3208125Y179648D01*
X3204273Y178198D01*
X3200523Y176499D01*
X3196892Y174558D01*
X3193397Y172384D01*
X3190050Y169987D01*
X3186868Y167375D01*
X3183864Y164561D01*
X3181050Y161556D01*
X3178438Y158374D01*
X3176041Y155028D01*
X3173867Y151532D01*
X3171926Y147902D01*
X3170227Y144152D01*
X3168777Y140300D01*
X3167582Y136360D01*
X3166647Y132351D01*
X3165977Y128290D01*
X3165573Y124193D01*
X3165439Y120079D01*
X3165573Y115964D01*
X3165977Y111868D01*
X3166647Y107806D01*
X3167582Y103797D01*
X3168777Y99858D01*
X3170227Y96005D01*
X3171926Y92255D01*
X3173867Y88625D01*
X3176041Y85129D01*
X3178438Y81783D01*
X3181050Y78601D01*
X3183864Y75596D01*
X3186868Y72782D01*
X3190050Y70171D01*
X3193397Y67773D01*
X3196892Y65599D01*
X3200523Y63658D01*
X3204273Y61959D01*
X3208125Y60509D01*
X3212065Y59314D01*
X3216074Y58380D01*
X3220135Y57709D01*
X3224232Y57306D01*
X3228346Y57171D01*
X3232461Y57306D01*
X3236557Y57709D01*
X3240619Y58380D01*
X3244628Y59314D01*
X3248567Y60509D01*
X3252420Y61959D01*
X3256170Y63658D01*
X3259800Y65599D01*
X3263296Y67773D01*
X3266642Y70171D01*
X3269824Y72782D01*
X3272829Y75596D01*
X3275643Y78601D01*
X3278254Y81783D01*
X3280652Y85129D01*
X3282826Y88625D01*
X3284767Y92255D01*
X3286465Y96005D01*
X3287916Y99858D01*
X3289110Y103797D01*
X3290045Y107806D01*
X3290716Y111868D01*
X3291119Y115964D01*
X3291254Y120079D01*
X3291119Y124193D01*
X3290716Y128290D01*
X3290045Y132351D01*
X3289110Y136360D01*
X3287916Y140300D01*
X3286465Y144152D01*
X3284767Y147902D01*
X3282826Y151532D01*
X3280652Y155028D01*
X3278254Y158374D01*
X3275643Y161556D01*
X3272829Y164561D01*
X3269824Y167375D01*
X3266642Y169987D01*
X3263296Y172384D01*
X3259800Y174558D01*
X3256170Y176499D01*
X3252420Y178198D01*
X3248567Y179648D01*
X3244628Y180843D01*
X3240619Y181778D01*
X3236557Y182448D01*
X3232461Y182852D01*
X3228346Y182986D01*
D02*
G37*
G36*
X2842874Y180742D02*
X2838760Y180608D01*
X2834663Y180204D01*
X2830601Y179534D01*
X2826592Y178599D01*
X2822653Y177404D01*
X2818800Y175954D01*
X2815051Y174255D01*
X2811420Y172314D01*
X2807924Y170140D01*
X2804578Y167743D01*
X2801396Y165131D01*
X2798392Y162317D01*
X2795577Y159312D01*
X2792966Y156130D01*
X2790568Y152784D01*
X2788394Y149288D01*
X2786454Y145658D01*
X2784755Y141908D01*
X2783305Y138056D01*
X2782110Y134116D01*
X2781175Y130107D01*
X2780505Y126046D01*
X2780101Y121949D01*
X2779966Y117835D01*
X2780101Y113720D01*
X2780505Y109624D01*
X2781175Y105562D01*
X2782110Y101553D01*
X2783305Y97614D01*
X2784755Y93761D01*
X2786454Y90011D01*
X2788394Y86381D01*
X2790568Y82885D01*
X2792966Y79539D01*
X2795577Y76357D01*
X2798392Y73352D01*
X2801396Y70538D01*
X2804578Y67927D01*
X2807924Y65529D01*
X2811420Y63355D01*
X2815051Y61414D01*
X2818800Y59715D01*
X2822653Y58265D01*
X2826592Y57070D01*
X2830601Y56136D01*
X2834663Y55465D01*
X2838760Y55062D01*
X2842874Y54927D01*
X2846988Y55062D01*
X2851085Y55465D01*
X2855147Y56136D01*
X2859156Y57070D01*
X2863095Y58265D01*
X2866948Y59715D01*
X2870697Y61414D01*
X2874328Y63355D01*
X2877824Y65529D01*
X2881170Y67927D01*
X2884352Y70538D01*
X2887356Y73352D01*
X2890171Y76357D01*
X2892782Y79539D01*
X2895180Y82885D01*
X2897354Y86381D01*
X2899294Y90011D01*
X2900993Y93761D01*
X2902443Y97614D01*
X2903638Y101553D01*
X2904573Y105562D01*
X2905244Y109624D01*
X2905647Y113720D01*
X2905782Y117835D01*
X2905647Y121949D01*
X2905244Y126046D01*
X2904573Y130107D01*
X2903638Y134116D01*
X2902443Y138056D01*
X2900993Y141908D01*
X2899294Y145658D01*
X2897354Y149288D01*
X2895180Y152784D01*
X2892782Y156130D01*
X2890171Y159312D01*
X2887356Y162317D01*
X2884352Y165131D01*
X2881170Y167743D01*
X2877824Y170140D01*
X2874328Y172314D01*
X2870697Y174255D01*
X2866948Y175954D01*
X2863095Y177404D01*
X2859156Y178599D01*
X2855147Y179534D01*
X2851085Y180204D01*
X2846988Y180608D01*
X2842874Y180742D01*
D02*
G37*
%LPD*%
G36*
X293700Y1013465D02*
X344685Y962480D01*
X344685Y400438D01*
X445123Y300000D01*
X815685Y300000D01*
X940685Y425000D01*
X1509850D01*
X1607208Y522358D01*
X1607715Y604919D01*
X1687795Y685000D01*
X1707559D01*
X2129559Y263000D01*
X2224686Y263000D01*
X2267685Y220000D01*
X2267685Y180000D01*
X2201939Y114254D01*
X1997746Y113811D01*
X1876914Y234000D01*
X995685Y234000D01*
X921685Y160000D01*
X362047Y160000D01*
X214685Y307362D01*
X214685Y954567D01*
X273583Y1013465D01*
X293700Y1013465D01*
D02*
G37*
G36*
X475159Y1402566D02*
X478171Y1402535D01*
Y1382850D01*
X475159Y1382820D01*
Y1379884D01*
X474963Y1380447D01*
X474372Y1380952D01*
X473388Y1381397D01*
X472010Y1381782D01*
X470238Y1382109D01*
X468073Y1382376D01*
X467875Y1382389D01*
X465573Y1382240D01*
X463407Y1381896D01*
X461636Y1381476D01*
X460258Y1380980D01*
X459274Y1380408D01*
X458683Y1379759D01*
X458486Y1379033D01*
Y1382800D01*
X455474Y1382850D01*
Y1402535D01*
X458486Y1402694D01*
Y1406352D01*
X458683Y1405627D01*
X459274Y1404978D01*
X460258Y1404406D01*
X461636Y1403909D01*
X463205Y1403537D01*
X465514Y1404307D01*
X468073Y1405685D01*
X470238Y1407457D01*
X472010Y1409622D01*
X473388Y1412181D01*
X474372Y1415134D01*
X474963Y1418480D01*
X475159Y1422220D01*
Y1402566D01*
D02*
G37*
G36*
X458486Y1379033D02*
X455644Y1378902D01*
X452791Y1378509D01*
X449928Y1377854D01*
X447055Y1376937D01*
X444173Y1375758D01*
X441280Y1374316D01*
X438377Y1372613D01*
X435464Y1370648D01*
X432541Y1368420D01*
X429608Y1365931D01*
X416476Y1380596D01*
X419267Y1383212D01*
X421765Y1385819D01*
X423969Y1388417D01*
X425878Y1391006D01*
X427494Y1393586D01*
X428817Y1396158D01*
X429845Y1398720D01*
X430579Y1401273D01*
X431020Y1403817D01*
X431167Y1406352D01*
X458486Y1379033D01*
D02*
G37*
G36*
X416775Y1354486D02*
X413621Y1351486D01*
X410710Y1348330D01*
X408042Y1345017D01*
X405616Y1341547D01*
X403434Y1337921D01*
X401494Y1334138D01*
X399798Y1330198D01*
X398344Y1326102D01*
X397133Y1321849D01*
X396165Y1317440D01*
X364519Y1352922D01*
X369011Y1353381D01*
X373374Y1354099D01*
X377609Y1355077D01*
X381716Y1356314D01*
X385695Y1357810D01*
X389547Y1359565D01*
X393270Y1361579D01*
X396866Y1363852D01*
X400333Y1366385D01*
X403673Y1369177D01*
X416775Y1354486D01*
D02*
G37*
G36*
X470554Y1293251D02*
X466097Y1292536D01*
X461782Y1291570D01*
X457609Y1290352D01*
X453579Y1288883D01*
X449692Y1287162D01*
X445947Y1285190D01*
X442344Y1282967D01*
X438885Y1280492D01*
X435567Y1277766D01*
X432392Y1274788D01*
X418473Y1288707D01*
X421451Y1291882D01*
X424177Y1295199D01*
X426652Y1298659D01*
X428875Y1302262D01*
X430847Y1306007D01*
X432568Y1309894D01*
X434037Y1313924D01*
X435255Y1318097D01*
X436221Y1322412D01*
X436936Y1326869D01*
X470554Y1293251D01*
D02*
G37*
G36*
X487810Y1201043D02*
X485442Y1197308D01*
X483353Y1193497D01*
X481542Y1189608D01*
X480010Y1185643D01*
X478756Y1181600D01*
X477781Y1177481D01*
X477085Y1173284D01*
X476667Y1169011D01*
X476527Y1164660D01*
X456842D01*
X456703Y1169011D01*
X456285Y1173284D01*
X455589Y1177481D01*
X454614Y1181600D01*
X453360Y1185643D01*
X451828Y1189608D01*
X450017Y1193497D01*
X447928Y1197308D01*
X445560Y1201043D01*
X442913Y1204700D01*
X490457D01*
X487810Y1201043D01*
D02*
G37*
G36*
X115642Y1107125D02*
X119377Y1104757D01*
X123188Y1102668D01*
X127077Y1100857D01*
X131042Y1099325D01*
X135085Y1098071D01*
X139204Y1097096D01*
X143401Y1096400D01*
X147674Y1095982D01*
X152024Y1095842D01*
Y1082536D01*
X162449Y1092960D01*
X164156Y1091373D01*
X165811Y1090081D01*
X167413Y1089083D01*
X168963Y1088379D01*
X170460Y1087969D01*
X171904Y1087854D01*
X173297Y1088033D01*
X174636Y1088505D01*
X175923Y1089273D01*
X177158Y1090334D01*
X160088Y1073264D01*
X159452Y1072802D01*
X158701Y1072570D01*
X157834Y1072570D01*
X156851Y1072801D01*
X155753Y1073263D01*
X154539Y1073956D01*
X153210Y1074880D01*
X151765Y1076036D01*
X151647Y1076145D01*
X147674Y1076018D01*
X143401Y1075600D01*
X139204Y1074904D01*
X135085Y1073929D01*
X131042Y1072675D01*
X127077Y1071143D01*
X123188Y1069332D01*
X119377Y1067243D01*
X115642Y1064875D01*
X111985Y1062228D01*
Y1109772D01*
X115642Y1107125D01*
D02*
G37*
G36*
X197287Y1071550D02*
X196296Y1069723D01*
X195748Y1067784D01*
X195645Y1065732D01*
X195986Y1063567D01*
X196771Y1061290D01*
X198000Y1058900D01*
X199674Y1056398D01*
X200279Y1055650D01*
X202121Y1054331D01*
X204861Y1052896D01*
X207584Y1051999D01*
X210290Y1051643D01*
X212978Y1051825D01*
X215648Y1052547D01*
X218302Y1053808D01*
X220937Y1055609D01*
X223556Y1057949D01*
X190319Y1024712D01*
X191371Y1026042D01*
X192019Y1027526D01*
X192263Y1029162D01*
X192104Y1030951D01*
X191541Y1032894D01*
X190574Y1034989D01*
X189203Y1037238D01*
X187429Y1039639D01*
X185251Y1042193D01*
X182669Y1044901D01*
X184282Y1046514D01*
X179406Y1053947D01*
X198723Y1073264D01*
X197287Y1071550D01*
D02*
G37*
G36*
X2319059Y858662D02*
X2318853Y862402D01*
X2318253Y865748D01*
X2317258Y868701D01*
X2315869Y871260D01*
X2314086Y873425D01*
X2311908Y875197D01*
X2309336Y876575D01*
X2306370Y877559D01*
X2303009Y878150D01*
X2299254Y878346D01*
Y898032D01*
X2302994Y898177D01*
X2306340Y898612D01*
X2309293Y899339D01*
X2311852Y900356D01*
X2314018Y901663D01*
X2315789Y903261D01*
X2317167Y905149D01*
X2318151Y907328D01*
X2318742Y909797D01*
X2318939Y912557D01*
X2319059Y858662D01*
D02*
G37*
G36*
X2448817Y909027D02*
X2449407Y905868D01*
X2450392Y903081D01*
X2451770Y900666D01*
X2453541Y898622D01*
X2455707Y896949D01*
X2458266Y895649D01*
X2461218Y894720D01*
X2464565Y894162D01*
X2468305Y893976D01*
Y874292D01*
X2464565Y874106D01*
X2461218Y873548D01*
X2458266Y872619D01*
X2455707Y871319D01*
X2453541Y869646D01*
X2451770Y867602D01*
X2450392Y865187D01*
X2449407Y862400D01*
X2448817Y859241D01*
X2448620Y855711D01*
Y912557D01*
X2448817Y909027D01*
D02*
G37*
G36*
X1298193Y886592D02*
X1298059Y888324D01*
X1297671Y889874D01*
X1297030Y891241D01*
X1296134Y892427D01*
X1294985Y893429D01*
X1293582Y894250D01*
X1291926Y894888D01*
X1290015Y895344D01*
X1287851Y895617D01*
X1285433Y895709D01*
Y915394D01*
X1287834Y915420D01*
X1293522Y915815D01*
X1294913Y916053D01*
X1296050Y916343D01*
X1296935Y916685D01*
X1297567Y917081D01*
X1297946Y917529D01*
X1298073Y918030D01*
X1298193Y886592D01*
D02*
G37*
G36*
X602661Y1423356D02*
X601371Y1419934D01*
X600851Y1416296D01*
X601101Y1412443D01*
X602120Y1408375D01*
X603909Y1404092D01*
X606467Y1399593D01*
X609795Y1394879D01*
X613893Y1389950D01*
X618760Y1384805D01*
X609762Y1365964D01*
X604028Y1371421D01*
X598640Y1375978D01*
X593598Y1379633D01*
X588903Y1382388D01*
X584554Y1384243D01*
X580551Y1385196D01*
X576895Y1385249D01*
X573585Y1384401D01*
X570621Y1382653D01*
X568004Y1380004D01*
X604721Y1426563D01*
X602661Y1423356D01*
D02*
G37*
G36*
X1355008Y823535D02*
X1355611Y820189D01*
X1356607Y817236D01*
X1357997Y814677D01*
X1359781Y812512D01*
X1361958Y810740D01*
X1364529Y809362D01*
X1367494Y808378D01*
X1370852Y807787D01*
X1374604Y807591D01*
Y787905D01*
X1354919Y788348D01*
X1354799Y827275D01*
X1355008Y823535D01*
D02*
G37*
G36*
X1298073Y788348D02*
X1297876Y788264D01*
X1297285Y788189D01*
X1296301Y788122D01*
X1282128Y787910D01*
X1278388Y787905D01*
Y807591D01*
X1282140Y807787D01*
X1285498Y808378D01*
X1288463Y809362D01*
X1291034Y810740D01*
X1293211Y812512D01*
X1294995Y814677D01*
X1296385Y817236D01*
X1297381Y820189D01*
X1297984Y823535D01*
X1298193Y827275D01*
X1298073Y788348D01*
D02*
G37*
G36*
X2768385Y481207D02*
X2768960Y473734D01*
X2769305Y471837D01*
X2769727Y470237D01*
X2770225Y468934D01*
X2770801Y467928D01*
X2771452Y467218D01*
X2772181Y466805D01*
X2744827D01*
X2745555Y467218D01*
X2746207Y467928D01*
X2746782Y468934D01*
X2747281Y470237D01*
X2747703Y471837D01*
X2748048Y473734D01*
X2748316Y475928D01*
X2748623Y481207D01*
X2748661Y484291D01*
X2768346D01*
X2768385Y481207D01*
D02*
G37*
G36*
X2970208Y506865D02*
X2975668Y502837D01*
X2981777Y499114D01*
X2988533Y495698D01*
X2995938Y492587D01*
X3003991Y489783D01*
X3012692Y487285D01*
X3032039Y483207D01*
X3042684Y481627D01*
X2981050Y419993D01*
X2979470Y430639D01*
X2975392Y449985D01*
X2972894Y458686D01*
X2970090Y466739D01*
X2966979Y474144D01*
X2963563Y480901D01*
X2959840Y487009D01*
X2955812Y492469D01*
X2951477Y497281D01*
X2965396Y511200D01*
X2970208Y506865D01*
D02*
G37*
D10*
X2425118Y884134D02*
D03*
X2342441D02*
D03*
X498661Y1408307D02*
D03*
X581339D02*
D03*
D12*
X1326496Y811850D02*
D03*
Y894528D02*
D03*
D13*
X444827Y1392693D02*
D03*
Y1436000D02*
D03*
D32*
X2262638Y888189D02*
X2343898D01*
X2475236Y884134D02*
X2502559Y911457D01*
X2425118Y884134D02*
X2475236D01*
X2385039Y778465D02*
Y779575D01*
X1697724Y245000D02*
Y1125639D01*
X2940315Y522362D02*
X3035590Y427087D01*
X2796575Y522362D02*
X2940315D01*
X2758504Y484291D02*
X2796575Y522362D01*
X2758504Y427087D02*
Y484291D01*
X1189370Y538386D02*
X1413701Y762717D01*
X1097638Y538386D02*
X1189370D01*
X1061772Y502520D02*
X1097638Y538386D01*
X93685Y987543D02*
X148783Y1042641D01*
X93685Y986000D02*
Y987543D01*
X278287Y959626D02*
X279685Y958228D01*
Y380302D02*
Y958228D01*
X155489Y1086000D02*
X217988Y1023500D01*
X2096656Y1602520D02*
X2097047D01*
X1640637Y1146501D02*
X2096656Y1602520D01*
X1988386Y1455276D02*
X2237795D01*
X1668196Y1135086D02*
X1988386Y1455276D01*
X2237795D02*
X2242716Y1460197D01*
Y1546142D01*
X414987Y245000D02*
X1386772D01*
X1387599D02*
X1389213Y243386D01*
Y199567D02*
Y243386D01*
X1386772Y245827D02*
X1387599Y245000D01*
X1697724D01*
X1977638Y1626417D02*
X2002165Y1650945D01*
X1977638Y1525000D02*
Y1626417D01*
X1613078Y1160440D02*
X1977638Y1525000D01*
X1640637Y770913D02*
Y1146501D01*
X1697724Y1125639D02*
X1996770Y1424685D01*
X1613078Y792015D02*
Y1160440D01*
X1602126Y781063D02*
X1613078Y792015D01*
X1637480Y767756D02*
X1640637Y770913D01*
X1996770Y1424685D02*
X2201220D01*
X1668196Y753880D02*
Y1135086D01*
X2301078Y1540448D02*
Y1604210D01*
X2278032Y1517402D02*
X2301078Y1540448D01*
X1079685Y762779D02*
X1112685Y795779D01*
X1079685Y668858D02*
Y762779D01*
X320220Y1223000D02*
X366685D01*
X294606Y1248614D02*
X320220Y1223000D01*
X294606Y1248614D02*
Y1386260D01*
X1285433Y905551D02*
X1315472D01*
X2381039Y241720D02*
X2400319D01*
X2422598Y264000D01*
X2428598Y270000D02*
X2464685D01*
X2422598Y264000D02*
X2428598Y270000D01*
X2478032D02*
X2530748Y217284D01*
X2464685Y270000D02*
X2478032D01*
X344346Y1436000D02*
X444827D01*
X294606Y1386260D02*
X344346Y1436000D01*
X366685Y1323000D02*
X444827Y1392693D01*
X484819D01*
X1192567Y797748D02*
X1454685D01*
X581339Y1408307D02*
X662472Y1327174D01*
Y1203607D02*
Y1327174D01*
Y1203607D02*
X1006039Y860039D01*
X1315472Y905551D02*
X1326496Y894528D01*
X484819Y1392693D02*
X498504Y1406378D01*
X1130275Y860039D02*
X1192567Y797748D01*
X936756Y1181000D02*
X1243701Y874055D01*
X784656Y1181000D02*
X936756D01*
X747685Y615000D02*
X849063Y716378D01*
X827443Y788000D02*
X937685Y677758D01*
X741685Y788000D02*
X827443D01*
X937685Y672000D02*
Y677758D01*
X1006039Y860039D02*
X1130275D01*
X93685Y1086000D02*
X155489D01*
X767685Y488000D02*
X898827D01*
X1079685Y668858D01*
X415685Y1272000D02*
X466685Y1323000D01*
X415685Y787000D02*
Y1272000D01*
X830910Y886315D02*
X1011997Y705228D01*
X733685Y886315D02*
X830910D01*
X466685Y886000D02*
Y1223000D01*
X279685Y380302D02*
X414987Y245000D01*
D43*
X3035590Y427087D02*
D03*
X3268661D02*
D03*
X2842874Y117835D02*
D03*
X3228346Y120079D02*
D03*
D44*
X2986496Y118937D02*
D03*
X3086496D02*
D03*
X93685Y386000D02*
D03*
Y486000D02*
D03*
Y586000D02*
D03*
Y686000D02*
D03*
Y1086000D02*
D03*
Y986000D02*
D03*
Y886000D02*
D03*
Y786000D02*
D03*
X566685Y1323000D02*
D03*
X466685D02*
D03*
X366685D02*
D03*
Y1223000D02*
D03*
X466685D02*
D03*
X566685D02*
D03*
D45*
X1771653Y1555118D02*
D03*
D46*
X2758504Y427087D02*
D03*
X2858504D02*
D03*
D47*
X98425Y98425D02*
D03*
Y1417323D02*
D03*
X3425197D02*
D03*
Y98425D02*
D03*
D48*
X2549882Y817323D02*
D03*
X2262638Y888189D02*
D03*
X2502559Y911457D02*
D03*
X2467913Y805787D02*
D03*
X2291220Y966142D02*
D03*
X2385039Y779575D02*
D03*
Y987385D02*
D03*
X1700591Y794882D02*
D03*
X2097047Y1602520D02*
D03*
X2237795Y1455276D02*
D03*
X2212756Y236299D02*
D03*
X1389213Y199567D02*
D03*
X2002165Y1650945D02*
D03*
X1668196Y753880D02*
D03*
X1637480Y767756D02*
D03*
X2201220Y1424685D02*
D03*
X1602126Y781063D02*
D03*
X2398987Y1612445D02*
D03*
X2242716Y1546142D02*
D03*
X2278032Y1517402D02*
D03*
X2301078Y1604210D02*
D03*
X1142205Y574961D02*
D03*
X1112685Y795779D02*
D03*
X1285433Y905551D02*
D03*
X2381039Y241720D02*
D03*
X2385157Y652205D02*
D03*
X1104528Y455984D02*
D03*
X1061772Y502520D02*
D03*
X1451614Y843661D02*
D03*
X2211685Y166000D02*
D03*
X1352401Y507205D02*
D03*
X2530748Y217284D02*
D03*
X1273835Y409000D02*
D03*
X1240493D02*
D03*
X1204685D02*
D03*
X2245685Y202000D02*
D03*
X2464685Y270000D02*
D03*
X1384842Y540158D02*
D03*
X1414457Y763472D02*
D03*
X1527953Y930945D02*
D03*
X1059094Y992716D02*
D03*
X1243701Y874055D02*
D03*
X1217953Y750787D02*
D03*
X1218386Y843661D02*
D03*
X849063Y716378D02*
D03*
X1172331Y640268D02*
D03*
X1428583Y693150D02*
D03*
X767685Y488000D02*
D03*
X415685Y787000D02*
D03*
X466685Y886000D02*
D03*
X1454685Y797748D02*
D03*
X937685Y672000D02*
D03*
X1011997Y705228D02*
D03*
X733685Y886315D02*
D03*
X784656Y1181000D02*
D03*
X747685Y615000D02*
D03*
X741685Y788000D02*
D03*
X2422598Y264000D02*
D03*
X2395709Y192284D02*
D03*
X2359417Y147127D02*
D03*
X2289016Y238819D02*
D03*
X2351902Y1060000D02*
D03*
X2400685Y103820D02*
D03*
D49*
X1089685Y940000D02*
D03*
D50*
X179406Y1073264D02*
D03*
X148783Y1042641D02*
D03*
D51*
X222164Y1026104D02*
D03*
X269490Y978778D02*
D03*
D52*
X2385039Y779575D02*
Y987385D01*
%TF.MD5,8563a9a5baea5959058dcf52a2231651*%
M02*
