%TF.GenerationSoftware,Altium Limited,Altium Designer,20.1.12 (249)*%
G04 Layer_Color=65535*
%FSLAX26Y26*%
%MOIN*%
%TF.SameCoordinates,7F4B2EE0-29BC-4F04-AEBD-3A4CCF5859FD*%
%TF.FilePolarity,Positive*%
%TF.FileFunction,Legend,Top*%
%TF.Part,Single*%
G01*
G75*
%TA.AperFunction,NonConductor*%
%ADD38C,0.007874*%
%ADD39C,0.003937*%
%ADD40C,0.010000*%
D38*
X5163071Y2793386D02*
Y2978425D01*
X5497717D01*
Y2793386D02*
Y2978425D01*
X5163071Y2793386D02*
X5497717D01*
X4915236Y4063898D02*
X5781378D01*
Y3406417D02*
Y4063898D01*
X4915236Y3406417D02*
X5781378D01*
X4915236D02*
Y4063898D01*
X3558740Y2555000D02*
Y3655000D01*
X3066614D02*
X3558740D01*
X3066614Y2555000D02*
Y3655000D01*
Y2555000D02*
X3558740D01*
X4598071Y2788386D02*
X4932717D01*
Y2973425D01*
X4598071D02*
X4932717D01*
X4598071Y2788386D02*
Y2973425D01*
X3706024Y3096102D02*
Y3430748D01*
X3961929D01*
X3706024Y3096102D02*
X3961929D01*
Y3430748D01*
X5162283Y3261614D02*
X5496929D01*
X5162283Y3076575D02*
Y3261614D01*
Y3076575D02*
X5496929D01*
Y3261614D01*
X4603071Y3113386D02*
X4937717D01*
Y3298425D01*
X4603071D02*
X4937717D01*
X4603071Y3113386D02*
Y3298425D01*
X5922677Y4783583D02*
X6788819D01*
Y4126102D02*
Y4783583D01*
X5922677Y4126102D02*
X6788819D01*
X5922677D02*
Y4783583D01*
Y4083583D02*
X6788819D01*
Y3426102D02*
Y4083583D01*
X5922677Y3426102D02*
X6788819D01*
X5922677D02*
Y4083583D01*
X4925236Y4793583D02*
X5791378D01*
Y4136102D02*
Y4793583D01*
X4925236Y4136102D02*
X5791378D01*
X4925236D02*
Y4793583D01*
X4201575Y2785000D02*
Y2905000D01*
X4361575D01*
X4421575Y2785000D02*
Y2905000D01*
X4361575D02*
X4421575D01*
X4201575Y2785000D02*
X4421575D01*
X4157835Y3427677D02*
Y3440000D01*
X4007835D02*
X4157835D01*
X4007835Y3350000D02*
Y3440000D01*
Y3350000D02*
X4157835D01*
Y3427677D01*
X4097677Y3075000D02*
X4110000D01*
Y3225000D01*
X4020000D02*
X4110000D01*
X4020000Y3075000D02*
Y3225000D01*
Y3075000D02*
X4097677D01*
X3031260Y4676260D02*
X3688740D01*
X3031260D02*
Y4933740D01*
X3688740D01*
Y4676260D02*
Y4933740D01*
D39*
X3535000Y4105000D02*
G03*
X3535000Y4055000I0J-25000D01*
G01*
X5575315Y2998622D02*
X5595000D01*
X5575315D02*
Y3095079D01*
X5614685D01*
Y2998622D02*
Y3095079D01*
X5595000Y2998622D02*
X5614685D01*
X5575315Y3096391D02*
X5614685D01*
X5595000Y3095079D02*
Y3196457D01*
Y2897244D02*
Y2998622D01*
X5575315Y3014370D02*
X5614685D01*
X4706378Y3040315D02*
Y3060000D01*
X4609921Y3040315D02*
X4706378D01*
X4609921D02*
Y3079685D01*
X4706378D01*
Y3060000D02*
Y3079685D01*
X4608609Y3040315D02*
Y3079685D01*
X4508543Y3060000D02*
X4609921D01*
X4706378D02*
X4807756D01*
X4690630Y3040315D02*
Y3079685D01*
X4740079Y2645315D02*
Y2665000D01*
X4643622Y2645315D02*
X4740079D01*
X4643622D02*
Y2684685D01*
X4740079D01*
Y2665000D02*
Y2684685D01*
X4642310Y2645315D02*
Y2684685D01*
X4542244Y2665000D02*
X4643622D01*
X4740079D02*
X4841457D01*
X4724331Y2645315D02*
Y2684685D01*
X5280079Y2640315D02*
Y2660000D01*
X5183622Y2640315D02*
X5280079D01*
X5183622D02*
Y2679685D01*
X5280079D01*
Y2660000D02*
Y2679685D01*
X5182310Y2640315D02*
Y2679685D01*
X5082244Y2660000D02*
X5183622D01*
X5280079D02*
X5381457D01*
X5264331Y2640315D02*
Y2679685D01*
X6220079Y3245315D02*
Y3265000D01*
X6123622Y3245315D02*
X6220079D01*
X6123622D02*
Y3284685D01*
X6220079D01*
Y3265000D02*
Y3284685D01*
X6122310Y3245315D02*
Y3284685D01*
X6022244Y3265000D02*
X6123622D01*
X6220079D02*
X6321457D01*
X6204331Y3245315D02*
Y3284685D01*
X5010315Y3004921D02*
X5030000D01*
X5010315D02*
Y3101378D01*
X5049685D01*
Y3004921D02*
Y3101378D01*
X5030000Y3004921D02*
X5049685D01*
X5010315Y3102690D02*
X5049685D01*
X5030000Y3101378D02*
Y3202756D01*
Y2903543D02*
Y3004921D01*
X5010315Y3020669D02*
X5049685D01*
X3035000Y4311693D02*
X3535000D01*
X3035000Y3848307D02*
Y4311693D01*
Y3848307D02*
X3535000D01*
Y4055000D01*
Y4105000D02*
Y4311693D01*
X4166142Y4172992D02*
X4360827D01*
Y3931653D02*
Y4172992D01*
X4156103Y3931653D02*
X4360827D01*
X4119488Y3968268D02*
X4156103Y3931653D01*
X4119488Y3968268D02*
Y4126338D01*
Y4172992D01*
X4166142D01*
X4171693Y4389134D02*
X4258307D01*
Y4530866D01*
X4171693Y4389134D02*
Y4530866D01*
X4258307D01*
D40*
X4213586Y4808958D02*
G03*
X4073758Y4806626I-68901J-61911D01*
G01*
X4194882Y4797244D02*
G03*
X4094488Y4797244I-50197J-50197D01*
G01*
X4075785Y4685136D02*
G03*
X4215612Y4687469I68901J61911D01*
G01*
X4094488Y4696850D02*
G03*
X4194882Y4696850I50197J50197D01*
G01*
X4607286Y4808958D02*
G03*
X4467459Y4806626I-68901J-61911D01*
G01*
X4588583Y4797244D02*
G03*
X4488189Y4797244I-50197J-50197D01*
G01*
X4469485Y4685136D02*
G03*
X4609313Y4687469I68901J61911D01*
G01*
X4488189Y4696850D02*
G03*
X4588583Y4696850I50197J50197D01*
G01*
X4062008Y4847441D02*
X4081693D01*
X4071850Y4837598D02*
Y4857283D01*
X4455709Y4847441D02*
X4475394D01*
X4465551Y4837598D02*
Y4857283D01*
X5215551Y3007566D02*
Y3047553D01*
X5205555Y3057549D01*
X5185561D01*
X5175564Y3047553D01*
Y3007566D01*
X5185561Y2997569D01*
X5205555D01*
X5195558Y3017562D02*
X5215551Y2997569D01*
X5205555D02*
X5215551Y3007566D01*
X5235545Y2997569D02*
X5255538D01*
X5245542D01*
Y3057549D01*
X5235545Y3047553D01*
X5277569Y3670016D02*
X5337549D01*
X5317556D01*
X5277569Y3710003D01*
X5307559Y3680013D01*
X5337549Y3710003D01*
Y3769984D02*
Y3729997D01*
X5297562Y3769984D01*
X5287566D01*
X5277569Y3759987D01*
Y3739994D01*
X5287566Y3729997D01*
X3043000Y4512981D02*
Y4462997D01*
X3052997Y4453000D01*
X3072990D01*
X3082987Y4462997D01*
Y4512981D01*
X3102981Y4453000D02*
X3122974D01*
X3112977D01*
Y4512981D01*
X3102981Y4502984D01*
X3192952Y4453000D02*
X3152964D01*
X3192952Y4492987D01*
Y4502984D01*
X3182955Y4512981D01*
X3162961D01*
X3152964Y4502984D01*
X3590016Y2704990D02*
Y2655006D01*
X3600013Y2645010D01*
X3620006D01*
X3630003Y2655006D01*
Y2704990D01*
X3689984D02*
X3649997D01*
Y2675000D01*
X3669990Y2684997D01*
X3679987D01*
X3689984Y2675000D01*
Y2655006D01*
X3679987Y2645010D01*
X3659994D01*
X3649997Y2655006D01*
X4055390Y4337481D02*
Y4287497D01*
X4065387Y4277500D01*
X4085380D01*
X4095377Y4287497D01*
Y4337481D01*
X4115371Y4277500D02*
X4135364D01*
X4125367D01*
Y4337481D01*
X4115371Y4327484D01*
X3752566Y3514909D02*
X3742569Y3524906D01*
X3722575D01*
X3712579Y3514909D01*
Y3504912D01*
X3722575Y3494916D01*
X3742569D01*
X3752566Y3484919D01*
Y3474922D01*
X3742569Y3464925D01*
X3722575D01*
X3712579Y3474922D01*
X3772559Y3524906D02*
Y3464925D01*
X3792553Y3484919D01*
X3812546Y3464925D01*
Y3524906D01*
X3832540Y3464925D02*
X3852533D01*
X3842537D01*
Y3524906D01*
X3832540Y3514909D01*
X4180000Y4563000D02*
Y4622981D01*
X4209990D01*
X4219987Y4612984D01*
Y4592990D01*
X4209990Y4582993D01*
X4180000D01*
X4199993D02*
X4219987Y4563000D01*
X4239981D02*
X4259974D01*
X4249977D01*
Y4622981D01*
X4239981Y4612984D01*
X5207987Y3305997D02*
Y3345984D01*
X5197990Y3355981D01*
X5177997D01*
X5168000Y3345984D01*
Y3305997D01*
X5177997Y3296000D01*
X5197990D01*
X5187993Y3315994D02*
X5207987Y3296000D01*
X5197990D02*
X5207987Y3305997D01*
X5257971Y3296000D02*
Y3355981D01*
X5227981Y3325990D01*
X5267968D01*
X4648987Y3341997D02*
Y3381984D01*
X4638990Y3391981D01*
X4618997D01*
X4609000Y3381984D01*
Y3341997D01*
X4618997Y3332000D01*
X4638990D01*
X4628993Y3351994D02*
X4648987Y3332000D01*
X4638990D02*
X4648987Y3341997D01*
X4668981Y3381984D02*
X4678977Y3391981D01*
X4698971D01*
X4708968Y3381984D01*
Y3371987D01*
X4698971Y3361990D01*
X4688974D01*
X4698971D01*
X4708968Y3351994D01*
Y3341997D01*
X4698971Y3332000D01*
X4678977D01*
X4668981Y3341997D01*
X4510003Y2920006D02*
Y2959994D01*
X4500007Y2969990D01*
X4480013D01*
X4470016Y2959994D01*
Y2920006D01*
X4480013Y2910010D01*
X4500007D01*
X4490010Y2930003D02*
X4510003Y2910010D01*
X4500007D02*
X4510003Y2920006D01*
X4569984Y2910010D02*
X4529997D01*
X4569984Y2949997D01*
Y2959994D01*
X4559987Y2969990D01*
X4539994D01*
X4529997Y2959994D01*
X6420961Y3042214D02*
Y3102195D01*
X6450951D01*
X6460948Y3092198D01*
Y3072205D01*
X6450951Y3062208D01*
X6420961D01*
X6520929Y3042214D02*
X6480942D01*
X6520929Y3082202D01*
Y3092198D01*
X6510932Y3102195D01*
X6490939D01*
X6480942Y3092198D01*
X5813122Y3104831D02*
Y3164811D01*
X5843112D01*
X5853109Y3154814D01*
Y3134821D01*
X5843112Y3124824D01*
X5813122D01*
X5873103Y3104831D02*
X5893096D01*
X5883099D01*
Y3164811D01*
X5873103Y3154814D01*
X4067000Y4951981D02*
Y4892000D01*
X4106987D01*
X4166968Y4951981D02*
X4126981D01*
Y4892000D01*
X4166968D01*
X4126981Y4921990D02*
X4146974D01*
X4186961Y4951981D02*
Y4892000D01*
X4216952D01*
X4226948Y4901997D01*
Y4941984D01*
X4216952Y4951981D01*
X4186961D01*
X4286929Y4892000D02*
X4246942D01*
X4286929Y4931987D01*
Y4941984D01*
X4276932Y4951981D01*
X4256939D01*
X4246942Y4941984D01*
X4461000Y4951981D02*
Y4892000D01*
X4500987D01*
X4560968Y4951981D02*
X4520981D01*
Y4892000D01*
X4560968D01*
X4520981Y4921990D02*
X4540974D01*
X4580961Y4951981D02*
Y4892000D01*
X4610952D01*
X4620948Y4901997D01*
Y4941984D01*
X4610952Y4951981D01*
X4580961D01*
X4640942Y4892000D02*
X4660935D01*
X4650939D01*
Y4951981D01*
X4640942Y4941984D01*
X6290016Y4549990D02*
Y4490010D01*
Y4510003D01*
X6330003Y4549990D01*
X6300013Y4520000D01*
X6330003Y4490010D01*
X6379987D02*
Y4549990D01*
X6349997Y4520000D01*
X6389984D01*
X6300016Y3784990D02*
Y3725010D01*
Y3745003D01*
X6340003Y3784990D01*
X6310013Y3755000D01*
X6340003Y3725010D01*
X6359997Y3774994D02*
X6369994Y3784990D01*
X6389987D01*
X6399984Y3774994D01*
Y3764997D01*
X6389987Y3755000D01*
X6379990D01*
X6389987D01*
X6399984Y3745003D01*
Y3735006D01*
X6389987Y3725010D01*
X6369994D01*
X6359997Y3735006D01*
X5293832Y4500896D02*
Y4440915D01*
Y4460909D01*
X5333819Y4500896D01*
X5303829Y4470905D01*
X5333819Y4440915D01*
X5353812D02*
X5373806D01*
X5363809D01*
Y4500896D01*
X5353812Y4490899D01*
X4247562Y2998981D02*
X4227568D01*
X4237565D01*
Y2948997D01*
X4227568Y2939000D01*
X4217572D01*
X4207575Y2948997D01*
X4267555Y2939000D02*
X4287549D01*
X4277552D01*
Y2998981D01*
X4267555Y2988984D01*
X4053987Y3533981D02*
X4014000D01*
Y3503990D01*
X4033994D01*
X4014000D01*
Y3474000D01*
X4113968D02*
X4073981D01*
X4113968Y3513987D01*
Y3523984D01*
X4103971Y3533981D01*
X4083977D01*
X4073981Y3523984D01*
X4065987Y3319146D02*
X4026000D01*
Y3289156D01*
X4045994D01*
X4026000D01*
Y3259165D01*
X4085981D02*
X4105974D01*
X4095977D01*
Y3319146D01*
X4085981Y3309149D01*
X3050034Y4649990D02*
Y4590010D01*
X3080024D01*
X3090021Y4600007D01*
Y4639993D01*
X3080024Y4649990D01*
X3050034D01*
X3110015D02*
X3130008D01*
X3120011D01*
Y4590010D01*
X3110015D01*
X3130008D01*
X3199985Y4639993D02*
X3189989Y4649990D01*
X3169995D01*
X3159998Y4639993D01*
Y4629997D01*
X3169995Y4620000D01*
X3189989D01*
X3199985Y4610003D01*
Y4600007D01*
X3189989Y4590010D01*
X3169995D01*
X3159998Y4600007D01*
X3219979Y4590010D02*
Y4649990D01*
X3249969D01*
X3259966Y4639993D01*
Y4620000D01*
X3249969Y4610003D01*
X3219979D01*
X5577000Y3360981D02*
Y3301000D01*
X5606990D01*
X5616987Y3310997D01*
Y3350984D01*
X5606990Y3360981D01*
X5577000D01*
X5676968D02*
X5656974Y3350984D01*
X5636981Y3330990D01*
Y3310997D01*
X5646977Y3301000D01*
X5666971D01*
X5676968Y3310997D01*
Y3320994D01*
X5666971Y3330990D01*
X5636981D01*
X4444000Y3177981D02*
Y3118000D01*
X4473990D01*
X4483987Y3127997D01*
Y3167984D01*
X4473990Y3177981D01*
X4444000D01*
X4543968D02*
X4503981D01*
Y3147990D01*
X4523974Y3157987D01*
X4533971D01*
X4543968Y3147990D01*
Y3127997D01*
X4533971Y3118000D01*
X4513977D01*
X4503981Y3127997D01*
X4477701Y2782981D02*
Y2723000D01*
X4507691D01*
X4517688Y2732997D01*
Y2772984D01*
X4507691Y2782981D01*
X4477701D01*
X4567672Y2723000D02*
Y2782981D01*
X4537681Y2752990D01*
X4577668D01*
X5017000Y2777981D02*
Y2718000D01*
X5046990D01*
X5056987Y2727997D01*
Y2767984D01*
X5046990Y2777981D01*
X5017000D01*
X5076981Y2767984D02*
X5086977Y2777981D01*
X5106971D01*
X5116968Y2767984D01*
Y2757987D01*
X5106971Y2747990D01*
X5096974D01*
X5106971D01*
X5116968Y2737994D01*
Y2727997D01*
X5106971Y2718000D01*
X5086977D01*
X5076981Y2727997D01*
X5957000Y3382981D02*
Y3323000D01*
X5986990D01*
X5996987Y3332997D01*
Y3372984D01*
X5986990Y3382981D01*
X5957000D01*
X6056968Y3323000D02*
X6016981D01*
X6056968Y3362987D01*
Y3372984D01*
X6046971Y3382981D01*
X6026977D01*
X6016981Y3372984D01*
X5012000Y3367981D02*
Y3308000D01*
X5041990D01*
X5051987Y3317997D01*
Y3357984D01*
X5041990Y3367981D01*
X5012000D01*
X5071981Y3308000D02*
X5091974D01*
X5081977D01*
Y3367981D01*
X5071981Y3357984D01*
%TF.MD5,17b25108123d5195b36c171b9471cc1d*%
M02*
